{
.appVersion = "3238";
.formatVersion = 3;
DisplayStrings = (
"ᩫ"
);
axes = (
{
name = Weight;
tag = wght;
}
);
classes = (
{
automatic = 1;

glyphs = (
{
category = Letter;
color = 9;
glyphname = KaH;
lastChange = "2024-02-10 14:51:08 +0000";
layers = (
{
anchors = (
{
name = MaiKU;
pos = (1469,-100);
},
{
name = am;
pos = (1065,1010);
},
{
name = bottom;
pos = (1064,-100);
},
{
name = top;
pos = (1064,1000);
}
);
layerId = m01;
shapes = (
{
closed = 1;
nodes = (
(1115,0,l),
(1115,420,l),
(1049,473,l),
(985,420,l),
(985,0,l)
);
},
{
closed = 1;
nodes = (
(1465,0,l),
(1786,0,o),
(1950,223,o),
(1950,497,cs),
(1950,770,o),
(1778,1000,o),
(1485,1000,cs),
(1209,1000,o),
(985,673,o),
(985,400,c),
(1115,400,l),
(1115,607,o),
(1301,860,o),
(1485,860,cs),
(1691,860,o),
(1810,702,o),
(1810,497,cs),
(1810,293,o),
(1700,140,o),
(1465,140,c)
);
},
{
closed = 1;
nodes = (
(383,140,o),
(290,290,o),
(290,497,cs),
(290,702,o),
(410,860,o),
(615,860,cs),
(801,860,o),
(985,607,o),
(985,400,c),
(1115,400,l),
(1115,673,o),
(894,1000,o),
(615,1000,cs),
(324,1000,o),
(150,770,o),
(150,497,cs),
(150,223,o),
(294,0,o),
(635,0,c),
(635,140,l)
);
},
{
closed = 1;
nodes = (
(635,140,l),
(635,0,l),
(689,0,l),
(689,140,l)
);
},
{
closed = 1;
nodes = (
(1412,0,l),
(1465,0,l),
(1465,140,l),
(1412,140,l)
);
}
);
width = 2100;
},
{
anchors = (
{
name = am;
pos = (973,1010);
},
{
name = bottom;
pos = (972,-90);
},
{
name = top;
pos = (972,1000);
}
);
associatedMasterId = m01;
layerId = m003;
shapes = (
{
closed = 1;
nodes = (
(1659,0,o),
(1797,178,o),
(1797,479,cs),
(1797,769,o),
(1700,1010,o),
(1378,1010,cs),
(1117,1010,o),
(931,699,o),
(931,419,c),
(1015,419,l),
(1015,689,o),
(1206,926,o),
(1378,926,cs),
(1668,926,o),
(1713,689,o),
(1713,479,cs),
(1713,247,o),
(1628,83,o),
(1388,83,c),
(1388,0,l)
);
},
{
closed = 1;
nodes = (
(559,83,l),
(319,83,o),
(234,247,o),
(234,479,cs),
(234,689,o),
(279,926,o),
(569,926,cs),
(741,926,o),
(931,689,o),
(931,419,c),
(1015,419,l),
(1015,699,o),
(830,1010,o),
(569,1010,cs),
(248,1010,o),
(150,774,o),
(150,479,cs),
(150,178,o),
(287,0,o),
(559,0,c)
);
},
{
closed = 1;
nodes = (
(1015,0,l),
(1015,419,l),
(972,474,l),
(931,419,l),
(931,0,l)
);
}
);
width = 1947;
}
);
note = uni1A20;
production = uni1A20;
script = tham;
sortName = thamConsonant001;
sortNameKeep = thamConsonant001;
subCategory = Letter;
tags = (
"Letter Base",
Letter2100
);
unicode = 6688;
},
{
category = Letter;
glyphname = KhaH;
lastChange = "2024-02-10 14:51:08 +0000";
layers = (
{
anchors = (
{
name = am;
pos = (771,1010);
},
{
name = bottom;
pos = (772,-100);
},
{
name = top;
pos = (772,1000);
}
);
layerId = m01;
shapes = (
{
closed = 1;
nodes = (
(1370,5,l),
(1328,128,o),
(1304,179,o),
(1272,226,c),
(1324,295,o),
(1350,403,o),
(1350,495,cs),
(1350,662,ls),
(1350,865,o),
(1210,1001,o),
(1018,1000,cs),
(924,1000,o),
(803,905,o),
(750,817,c),
(687,905,o),
(565,999,o),
(483,1000,cs),
(322,1001,o),
(150,888,o),
(150,714,cs),
(150,617,o),
(201,554,o),
(273,498,c),
(387,583,l),
(322,634,o),
(290,668,o),
(290,714,cs),
(290,799,o),
(387,860,o),
(483,860,cs),
(550,860,o),
(638,767,o),
(693,693,cs),
(748,619,l),
(801,690,ls),
(858,767,o),
(926,860,o),
(1017,860,cs),
(1088,860,o),
(1210,825,o),
(1210,663,cs),
(1210,499,ls),
(1210,439,o),
(1195,377,o),
(1174,332,c),
(1048,446,o),
(848,509,o),
(650,509,cs),
(454,509,o),
(150,460,o),
(150,256,cs),
(150,63,o),
(491,-1,o),
(687,-1,cs),
(874,-1,o),
(1025,33,o),
(1170,121,c),
(1187,91,o),
(1199,60,o),
(1235,-42,c)
);
},
{
closed = 1;
nodes = (
(557,139,o),
(290,193,o),
(290,256,cs),
(290,341,o),
(560,369,o),
(650,369,cs),
(836,369,o),
(986,306,o),
(1086,234,c),
(935,145,o),
(776,139,o),
(687,139,cs)
);
}
);
width = 1520;
},
{
anchors = (
{
name = am;
pos = (766,1010);
},
{
name = bottom;
pos = (767,-90);
},
{
name = top;
pos = (767,1000);
}
);
associatedMasterId = m01;
layerId = m003;
shapes = (
{
closed = 1;
nodes = (
(1383,6,l),
(1340,131,o),
(1315,183,o),
(1283,231,c),
(1336,301,o),
(1362,411,o),
(1362,505,cs),
(1362,675,ls),
(1362,873,o),
(1220,1020,o),
(1023,1019,cs),
(883,1018,o),
(805,903,o),
(756,847,c),
(707,896,o),
(612,1018,o),
(489,1019,cs),
(325,1020,o),
(150,903,o),
(150,728,cs),
(150,629,o),
(202,565,o),
(275,508,c),
(353,549,l),
(231,646,o),
(235,681,o),
(235,728,cs),
(235,827,o),
(333,934,o),
(489,934,cs),
(557,934,o),
(657,846,o),
(707,766,cs),
(754,691,l),
(801,763,ls),
(855,845,o),
(930,934,o),
(1022,934,cs),
(1166,934,o),
(1277,841,o),
(1277,676,cs),
(1277,509,ls),
(1277,448,o),
(1245,364,o),
(1223,318,c),
(1095,434,o),
(855,519,o),
(659,519,cs),
(459,519,o),
(150,469,o),
(150,261,cs),
(150,65,o),
(497,0,o),
(697,0,cs),
(882,0,o),
(1071,64,o),
(1219,154,c),
(1236,123,o),
(1269,62,o),
(1305,-42,c)
);
},
{
closed = 1;
nodes = (
(455,85,o),
(235,139,o),
(235,261,cs),
(235,391,o),
(457,434,o),
(659,434,cs),
(843,434,o),
(1065,364,o),
(1166,237,c),
(1010,95,o),
(823,85,o),
(697,85,cs)
);
}
);
width = 1533;
}
);
note = uni1A21;
production = uni1A21;
script = tham;
sortName = thamConsonant002;
sortNameKeep = thamConsonant002;
subCategory = Letter;
tags = (
"Letter Base",
Letter1500
);
unicode = 6689;
},
{
category = Letter;
color = 3;
glyphname = KxaH;
lastChange = "2024-02-10 14:51:08 +0000";
layers = (
{
anchors = (
{
name = am;
pos = (786,1010);
},
{
name = bottom;
pos = (767,-100);
},
{
name = top;
pos = (786,965);
}
);
layerId = m01;
shapes = (
{
closed = 1;
nodes = (
(296,1349,l),
(295,1455,ls),
(293,1672,o),
(500,1842,o),
(756,1842,cs),
(817,1842,o),
(873,1833,o),
(925,1816,c),
(1071,1914,l),
(975,1963,o),
(870,1988,o),
(756,1988,cs),
(595,1988,o),
(444,1935,o),
(331,1839,cs),
(214,1739,o),
(152,1604,o),
(151,1455,cs),
(150,1349,l),
(218,1315,l)
);
},
{
ref = KhaH;
},
{
closed = 1;
nodes = (
(355,975,l),
(316,1006,o),
(296,1068,o),
(296,1129,cs),
(296,1349,l),
(150,1349,l),
(150,1129,ls),
(150,1038,o),
(178,949,o),
(233,893,c)
);
}
);
width = 1520;
},
{
anchors = (
{
name = am;
pos = (786,1010);
},
{
name = bottom;
pos = (767,-90);
},
{
name = top;
pos = (786,965);
}
);
associatedMasterId = m01;
layerId = m003;
shapes = (
{
closed = 1;
nodes = (
(296,1359,l),
(295,1455,ls),
(293,1672,o),
(500,1842,o),
(756,1842,cs),
(817,1842,o),
(873,1833,o),
(925,1816,c),
(1071,1914,l),
(975,1963,o),
(870,1988,o),
(756,1988,cs),
(595,1988,o),
(444,1935,o),
(331,1839,cs),
(214,1739,o),
(153,1604,o),
(151,1455,cs),
(150,1359,l),
(218,1325,l)
);
},
{
ref = KhaH;
},
{
closed = 1;
nodes = (
(355,985,l),
(316,1016,o),
(296,1078,o),
(296,1139,cs),
(296,1359,l),
(150,1359,l),
(150,1139,ls),
(150,1048,o),
(178,959,o),
(233,903,c)
);
}
);
width = 1533;
}
);
note = uni1A22;
production = uni1A22;
script = tham;
sortName = thamConsonant003;
sortNameKeep = thamConsonant003;
subCategory = Letter;
tags = (
"Letter Base",
Letter1500
);
unicode = 6690;
},
{
category = Letter;
glyphname = KaL;
lastChange = "2024-02-10 14:51:08 +0000";
layers = (
{
anchors = (
{
name = am;
pos = (760,1010);
},
{
name = bottom;
pos = (760,-100);
},
{
name = top;
pos = (760,1000);
}
);
layerId = m01;
shapes = (
{
closed = 1;
nodes = (
(559,128,l),
(397,197,o),
(290,317,o),
(290,475,cs),
(290,686,o),
(495,860,o),
(750,860,cs),
(1006,860,o),
(1210,685,o),
(1210,475,cs),
(1210,317,o),
(1105,197,o),
(947,128,c),
(1006,0,l),
(1213,91,o),
(1350,263,o),
(1350,475,cs),
(1350,770,o),
(1075,1000,o),
(750,1000,cs),
(424,1000,o),
(150,771,o),
(150,475,cs),
(150,255,o),
(293,90,o),
(501,0,c)
);
}
);
width = 1500;
},
{
anchors = (
{
name = am;
pos = (756,1010);
},
{
name = bottom;
pos = (756,-90);
},
{
name = top;
pos = (756,1000);
}
);
associatedMasterId = m01;
layerId = m003;
shapes = (
{
closed = 1;
nodes = (
(536,70,l),
(371,141,o),
(235,287,o),
(235,484,cs),
(235,721,o),
(454,933,o),
(756,933,cs),
(1063,933,o),
(1276,717,o),
(1276,484,cs),
(1276,281,o),
(1142,146,o),
(982,73,c),
(1012,0,l),
(1223,93,o),
(1362,268,o),
(1362,484,cs),
(1362,784,o),
(1081,1018,o),
(756,1018,cs),
(428,1018,o),
(150,785,o),
(150,484,cs),
(150,260,o),
(296,92,o),
(507,0,c)
);
}
);
width = 1512;
}
);
note = uni1A23;
production = uni1A23;
script = tham;
sortName = thamConsonant004;
sortNameKeep = thamConsonant004;
subCategory = Letter;
tags = (
"Letter Base",
Letter1500
);
unicode = 6691;
},
{
category = Letter;
color = 9;
glyphname = KhaL;
lastChange = "2024-02-10 14:51:08 +0000";
layers = (
{
anchors = (
{
name = MaiKU;
pos = (1873,-100);
},
{
name = MaiKangLai;
pos = (1356,1003);
},
{
name = am;
pos = (1448,1010);
},
{
name = bottom;
pos = (1641,-100);
},
{
name = top;
pos = (1804,1000);
}
);
layerId = m01;
shapes = (
{
closed = 1;
nodes = (
(2350,816,o),
(2232,944,o),
(2078,1007,c),
(2009,885,l),
(2159,828,o),
(2210,722,o),
(2210,500,cs),
(2210,296,o),
(2105,140,o),
(1872,140,cs),
(1658,140,o),
(1550,288,o),
(1550,492,c),
(1410,492,l),
(1410,221,o),
(1572,0,o),
(1872,0,cs),
(2192,0,o),
(2350,229,o),
(2350,500,cs)
);
},
{
closed = 1;
nodes = (
(1396,0,o),
(1550,137,o),
(1550,445,cs),
(1550,738,ls),
(1550,876,o),
(1461,949,o),
(1361,1000,c),
(1293,878,l),
(1375,834,o),
(1410,804,o),
(1410,738,cs),
(1410,447,ls),
(1410,203,o),
(1301,140,o),
(1043,140,cs),
(941,140,o),
(843,209,o),
(782,305,c),
(700,194,o),
(580,140,o),
(486,140,cs),
(397,140,o),
(290,190,o),
(290,287,c),
(346,303,o),
(395,320,o),
(448,338,cs),
(592,387,o),
(760,446,o),
(906,574,cs),
(981,640,o),
(1036,690,o),
(1036,776,cs),
(1036,913,o),
(900,1000,o),
(787,1000,cs),
(719,1000,o),
(652,969,o),
(590,873,c),
(529,970,o),
(461,1000,o),
(393,1000,cs),
(259,1000,o),
(150,911,o),
(150,776,cs),
(150,697,o),
(195,624,o),
(275,585,cs),
(340,553,l),
(402,678,l),
(342,708,ls),
(310,724,o),
(290,752,o),
(290,776,cs),
(290,827,o),
(331,866,o),
(393,866,cs),
(470,865,o),
(507,825,o),
(589,714,c),
(668,826,o),
(717,866,o),
(787,866,cs),
(840,866,o),
(896,824,o),
(896,776,cs),
(896,752,o),
(877,739,o),
(854,716,cs),
(718,581,o),
(554,520,o),
(397,469,cs),
(270,429,o),
(150,400,o),
(150,287,cs),
(150,115,o),
(311,0,o),
(486,0,cs),
(569,0,o),
(673,53,o),
(780,150,c),
(843,83,o),
(951,0,o),
(1043,0,cs)
);
}
);
width = 2500;
},
{
anchors = (
{
name = am;
pos = (1288,1010);
},
{
name = bottom;
pos = (1531,-90);
},
{
name = top;
pos = (1544,1000);
}
);
associatedMasterId = m01;
layerId = m003;
shapes = (
{
closed = 1;
nodes = (
(2426,816,o),
(2304,957,o),
(2145,1022,c),
(2106,949,l),
(2261,890,o),
(2341,749,o),
(2341,509,cs),
(2341,251,o),
(2176,85,o),
(1936,85,cs),
(1654,85,o),
(1582,249,o),
(1582,459,c),
(1497,459,l),
(1497,179,o),
(1625,0,o),
(1936,0,cs),
(2245,0,o),
(2426,229,o),
(2426,509,cs)
);
},
{
closed = 1;
nodes = (
(1451,0,o),
(1582,179,o),
(1582,459,c),
(1497,459,l),
(1497,249,o),
(1422,85,o),
(1142,85,cs),
(949,85,o),
(890,191,o),
(828,288,c),
(745,176,o),
(614,85,o),
(509,85,cs),
(364,85,o),
(235,155,o),
(235,270,cs),
(235,360,o),
(400,403,o),
(451,423,cs),
(934,611,ls),
(1023,646,o),
(1070,713,o),
(1070,792,cs),
(1070,930,o),
(938,1018,o),
(803,1018,cs),
(735,1018,o),
(673,987,o),
(610,890,c),
(550,989,o),
(484,1018,o),
(416,1018,cs),
(280,1018,o),
(150,928,o),
(150,792,cs),
(150,712,o),
(195,638,o),
(276,599,cs),
(342,567,l),
(381,644,l),
(294,688,ls),
(240,715,o),
(235,768,o),
(235,792,cs),
(235,843,o),
(273,933,o),
(416,933,cs),
(493,933,o),
(515,897,o),
(561,837,cs),
(609,774,l),
(656,842,ls),
(695,898,o),
(733,933,o),
(803,933,cs),
(920,933,o),
(985,840,o),
(985,792,cs),
(985,768,o),
(910,695,o),
(881,681,c),
(399,494,ls),
(274,446,o),
(150,404,o),
(150,270,cs),
(150,96,o),
(333,0,o),
(509,0,cs),
(603,0,o),
(718,44,o),
(826,141,c),
(890,74,o),
(979,0,o),
(1142,0,cs)
);
},
{
closed = 1;
nodes = (
(1582,459,l),
(1582,758,ls),
(1582,898,o),
(1523,971,o),
(1422,1023,c),
(1380,947,l),
(1463,902,o),
(1497,825,o),
(1497,758,cs),
(1497,459,l)
);
}
);
width = 2576;
}
);
note = uni1A25;
script = tham;
subCategory = Letter;
tags = (
"Letter Base",
Letter2500
);
unicode = 6693;
},
{
glyphname = Nga;
lastChange = "2024-02-10 14:51:08 +0000";
layers = (
{
anchors = (
{
name = am;
pos = (761,1010);
},
{
name = bottom;
pos = (761,-100);
},
{
name = top;
pos = (761,1000);
}
);
layerId = m01;
shapes = (
{
closed = 1;
nodes = (
(575,0,o),
(671,158,o),
(755,164,cs),
(790,164,o),
(814,136,o),
(814,80,cs),
(814,0,l),
(956,0,l),
(956,84,ls),
(956,199,o),
(877,291,o),
(758,291,cs),
(597,291,o),
(575,140,o),
(446,140,cs),
(355,140,o),
(290,208,o),
(290,305,cs),
(290,399,o),
(405,466,o),
(520,543,c),
(395,612,o),
(355,674,o),
(355,743,cs),
(355,807,o),
(432,860,o),
(510,860,cs),
(802,860,ls),
(1107,860,o),
(1208,671,o),
(1208,353,cs),
(1208,0,l),
(1350,0,l),
(1350,353,ls),
(1350,734,o),
(1196,1000,o),
(802,1000,cs),
(510,1000,ls),
(350,1000,o),
(214,884,o),
(214,743,cs),
(214,672,o),
(256,595,o),
(301,549,c),
(228,474,o),
(150,418,o),
(150,305,cs),
(150,131,o),
(278,0,o),
(446,0,cs)
);
}
);
width = 1500;
},
{
anchors = (
{
name = am;
pos = (756,1010);
},
{
name = bottom;
pos = (756,-90);
},
{
name = top;
pos = (756,1000);
}
);
associatedMasterId = m01;
layerId = m003;
shapes = (
{
closed = 1;
nodes = (
(455,85,l),
(455,85,ls),
(376,85,o),
(235,142,o),
(235,315,cs),
(235,409,o),
(346,492,o),
(438,561,c),
(359,632,o),
(301,682,o),
(301,752,cs),
(301,819,o),
(371,933,o),
(522,933,cs),
(823,933,ls),
(1115,933,o),
(1277,767,o),
(1277,364,cs),
(1277,0,l),
(1362,0,l),
(1362,364,ls),
(1362,757,o),
(1208,1018,o),
(823,1018,cs),
(522,1018,ls),
(357,1018,o),
(216,898,o),
(216,752,cs),
(216,680,o),
(260,614,o),
(307,567,c),
(230,490,o),
(150,432,o),
(150,315,cs),
(150,135,o),
(282,0,o),
(455,0,c)
);
},
{
closed = 1;
nodes = (
(615,0,o),
(671,215,o),
(774,215,c),
(823,215,o),
(899,190,o),
(899,82,cs),
(899,0,l),
(984,0,l),
(984,84,ls),
(984,206,o),
(900,300,o),
(777,300,cs),
(612,300,o),
(566,85,o),
(455,85,c),
(406,45,l),
(455,0,l)
);
}
);
width = 1512;
}
);
note = uni1A26;
subCategory = Letter;
tags = (
"Letter Base",
Letter1500
);
unicode = 6694;
},
{
glyphname = JaH;
lastChange = "2024-02-10 14:51:08 +0000";
layers = (
{
anchors = (
{
name = am;
pos = (791,1010);
},
{
name = bottom;
pos = (792,-100);
},
{
name = top;
pos = (792,1000);
}
);
layerId = m01;
shapes = (
{
closed = 1;
nodes = (
(1117,0,o),
(1350,223,o),
(1350,500,cs),
(1350,758,o),
(1137,1000,o),
(777,1000,cs),
(500,1000,o),
(329,921,o),
(150,691,c),
(285,662,o),
(432,630,o),
(432,500,cs),
(432,373,o),
(285,336,o),
(150,309,c),
(330,82,o),
(513,0,o),
(777,0,cs)
);
},
{
closed = 1;
nodes = (
(592,140,o),
(482,177,o),
(403,236,c),
(487,284,o),
(572,382,o),
(572,500,cs),
(572,621,o),
(488,713,o),
(404,764,c),
(483,826,o),
(591,860,o),
(777,860,cs),
(1044,860,o),
(1210,694,o),
(1210,500,cs),
(1210,309,o),
(1048,140,o),
(777,140,cs)
);
}
);
width = 1500;
},
{
anchors = (
{
name = am;
pos = (716,1010);
},
{
name = bottom;
pos = (717,-90);
},
{
name = top;
pos = (717,1000);
}
);
associatedMasterId = m01;
layerId = m003;
shapes = (
{
closed = 1;
nodes = (
(1022,0,o),
(1283,227,o),
(1283,509,cs),
(1283,772,o),
(1043,1018,o),
(702,1018,cs),
(516,1018,o),
(332,938,o),
(150,703,c),
(287,674,o),
(427,641,o),
(427,509,cs),
(427,380,o),
(287,342,o),
(150,315,c),
(333,83,o),
(509,0,o),
(702,0,cs)
);
},
{
closed = 1;
nodes = (
(521,85,o),
(398,195,o),
(318,255,c),
(403,304,o),
(512,369,o),
(512,509,cs),
(512,652,o),
(404,711,o),
(319,763,c),
(399,826,o),
(527,933,o),
(702,933,cs),
(982,933,o),
(1198,737,o),
(1198,509,cs),
(1198,281,o),
(982,85,o),
(702,85,cs)
);
}
);
width = 1433;
}
);
note = uni1A27;
subCategory = Letter;
tags = (
"Letter Base",
Letter1400
);
unicode = 6695;
},
{
glyphname = ChaH;
lastChange = "2024-02-10 14:51:08 +0000";
layers = (
{
anchors = (
{
name = am;
pos = (861,1010);
},
{
name = bottom;
pos = (861,-100);
},
{
name = top;
pos = (861,1000);
}
);
layerId = m01;
shapes = (
{
closed = 1;
nodes = (
(741,337,o),
(741,550,cs),
(741,775,o),
(632,1000,o),
(404,1000,cs),
(266,1000,o),
(150,895,o),
(150,759,cs),
(150,688,l),
(290,688,l),
(290,759,ls),
(290,814,o),
(343,860,o),
(404,860,cs),
(545,860,o),
(601,694,o),
(601,551,cs),
(601,393,o),
(536,120,o),
(382,120,cs),
(324,120,o),
(270,174,o),
(270,238,cs),
(270,301,o),
(314,356,o),
(386,356,cs),
(534,356,o),
(618,0,o),
(970,0,cs),
(1215,0,o),
(1450,210,o),
(1450,500,cs),
(1450,796,o),
(1232,1000,o),
(970,1000,cs),
(926,1000,l),
(926,860,l),
(970,860,ls),
(1130,860,o),
(1310,739,o),
(1310,500,cs),
(1310,271,o),
(1120,140,o),
(971,140,cs),
(654,140,o),
(656,476,o),
(386,476,cs),
(255,476,o),
(150,374,o),
(150,238,cs),
(150,116,o),
(250,0,o),
(381,0,cs),
(382,0,ls),
(643,0,o)
);
}
);
width = 1600;
},
{
anchors = (
{
name = am;
pos = (756,1010);
},
{
name = bottom;
pos = (756,-90);
},
{
name = top;
pos = (756,1000);
}
);
associatedMasterId = m01;
layerId = m003;
shapes = (
{
closed = 1;
nodes = (
(386,0,ls),
(503,0,o),
(579,71,o),
(626,137,c),
(695,72,o),
(821,0,o),
(942,0,cs),
(1191,0,o),
(1362,248,o),
(1362,509,cs),
(1362,774,o),
(1189,1018,o),
(943,1018,cs),
(870,1018,l),
(870,873,l),
(943,873,ls),
(1109,873,o),
(1216,685,o),
(1216,509,cs),
(1216,309,o),
(1094,145,o),
(943,145,cs),
(847,145,o),
(748,211,o),
(696,271,c),
(733,367,o),
(752,463,o),
(752,560,cs),
(755,789,o),
(641,1018,o),
(409,1018,cs),
(268,1018,o),
(150,911,o),
(150,773,cs),
(150,700,l),
(295,700,l),
(295,773,ls),
(295,829,o),
(346,873,o),
(409,873,cs),
(552,873,o),
(605,709,o),
(605,566,cs),
(605,513,o),
(600,459,o),
(585,403,c),
(552,436,o),
(475,485,o),
(390,485,cs),
(257,485,o),
(150,381,o),
(150,242,cs),
(150,118,o),
(252,0,o),
(385,0,cs)
);
},
{
closed = 1;
nodes = (
(337,145,o),
(295,198,o),
(295,242,cs),
(295,306,o),
(342,339,o),
(390,339,cs),
(442,339,o),
(475,311,o),
(526,252,c),
(489,188,o),
(450,145,o),
(386,145,cs)
);
}
);
width = 1512;
}
);
note = uni1A28;
subCategory = Letter;
tags = (
"Letter Base",
Letter1600
);
unicode = 6696;
},
{
glyphname = JaL;
lastChange = "2024-02-10 14:51:08 +0000";
layers = (
{
anchors = (
{
name = am;
pos = (759,1010);
},
{
name = bottom;
pos = (756,-100);
},
{
name = top;
pos = (756,1000);
}
);
layerId = m01;
shapes = (
{
closed = 1;
nodes = (
(1350,0,l),
(1350,71,ls),
(1350,520,o),
(984,631,o),
(771,631,cs),
(730,631,l),
(676,496,l),
(771,496,ls),
(983,496,o),
(1215,383,o),
(1215,71,cs),
(1215,0,l)
);
},
{
closed = 1;
nodes = (
(1108,860,o),
(1103,859,o),
(1229,735,c),
(1318,842,l),
(1162,1002,o),
(1105,1000,o),
(804,1000,cs),
(511,1000,ls),
(352,1000,o),
(214,885,o),
(214,742,cs),
(214,675,o),
(281,591,o),
(329,551,c),
(227,482,o),
(150,423,o),
(150,306,cs),
(150,131,o),
(280,0,o),
(447,0,cs),
(556,0,o),
(649,164,o),
(756,164,cs),
(792,164,o),
(813,137,o),
(827,1,c),
(969,0,l),
(953,164,o),
(925,292,o),
(759,292,cs),
(688,292,o),
(573,202,o),
(524,162,cs),
(461,113,o),
(290,140,o),
(290,306,cs),
(290,402,o),
(412,469,o),
(533,532,c),
(419,623,o),
(356,654,o),
(356,742,cs),
(356,810,o),
(438,860,o),
(511,860,cs),
(804,860,ls)
);
}
);
width = 1500;
},
{
anchors = (
{
name = am;
pos = (759,1010);
},
{
name = bottom;
pos = (756,-90);
},
{
name = top;
pos = (756,1000);
}
);
associatedMasterId = m01;
layerId = m003;
shapes = (
{
closed = 1;
nodes = (
(567,0,o),
(663,169,o),
(774,169,cs),
(811,169,o),
(832,140,o),
(846,1,c),
(993,0,l),
(977,169,o),
(947,300,o),
(777,300,cs),
(704,300,o),
(586,208,o),
(535,167,cs),
(470,116,o),
(295,145,o),
(295,315,cs),
(295,413,o),
(420,483,o),
(544,548,c),
(427,641,o),
(362,662,o),
(362,752,cs),
(362,823,o),
(446,873,o),
(522,873,cs),
(823,873,ls),
(992,873,o),
(1107,808,o),
(1165,674,cs),
(1194,607,l),
(1326,665,l),
(1298,731,ls),
(1214,929,o),
(1040,1018,o),
(823,1018,cs),
(522,1018,ls),
(358,1018,o),
(216,900,o),
(216,752,cs),
(216,683,o),
(284,608,o),
(334,567,c),
(229,496,o),
(150,436,o),
(150,315,cs),
(150,134,o),
(283,0,o),
(455,0,cs)
);
},
{
closed = 1;
nodes = (
(1369,0,l),
(1363,73,ls),
(1328,498,o),
(1023,608,o),
(805,608,cs),
(778,608,l),
(640,482,l),
(789,482,ls),
(943,482,o),
(1186,399,o),
(1217,73,cs),
(1224,0,l)
);
}
);
width = 1519;
}
);
note = uni1A29;
subCategory = Letter;
tags = (
"Letter Base",
Letter1500
);
unicode = 6697;
},
{
color = 3;
glyphname = SaL;
lastChange = "2024-02-10 14:51:08 +0000";
layers = (
{
anchors = (
{
name = am;
pos = (791,1010);
},
{
name = bottom;
pos = (756,-100);
},
{
name = top;
pos = (791,971);
}
);
layerId = m01;
shapes = (
{
closed = 1;
nodes = (
(290,1369,l),
(290,1463,ls),
(290,1672,o),
(483,1840,o),
(738,1840,cs),
(796,1840,o),
(853,1832,o),
(902,1815,c),
(1043,1908,l),
(950,1956,o),
(849,1980,o),
(738,1980,cs),
(431,1980,o),
(154,1777,o),
(151,1463,cs),
(150,1369,l),
(217,1336,l)
);
},
{
ref = JaL;
},
{
closed = 1;
nodes = (
(368,965,l),
(313,1013,o),
(290,1057,o),
(290,1131,cs),
(290,1369,l),
(150,1369,l),
(150,1131,ls),
(150,1023,o),
(178,908,o),
(267,864,c)
);
}
);
width = 1500;
},
{
anchors = (
{
name = am;
pos = (791,1010);
},
{
name = bottom;
pos = (756,-90);
},
{
name = top;
pos = (791,971);
}
);
associatedMasterId = m01;
layerId = m003;
shapes = (
{
closed = 1;
nodes = (
(295,1359,l),
(295,1455,ls),
(295,1671,o),
(496,1842,o),
(756,1842,cs),
(817,1842,o),
(873,1833,o),
(925,1816,c),
(1071,1914,l),
(975,1963,o),
(870,1988,o),
(756,1988,cs),
(439,1988,o),
(154,1780,o),
(151,1455,cs),
(150,1359,l),
(218,1325,l)
);
},
{
ref = JaL;
},
{
closed = 1;
nodes = (
(375,968,l),
(317,1018,o),
(295,1062,o),
(295,1139,cs),
(295,1359,l),
(150,1359,l),
(150,1139,ls),
(150,1027,o),
(179,909,o),
(271,864,c)
);
}
);
width = 1519;
}
);
note = uni1A2A;
subCategory = Letter;
tags = (
"Letter Base",
Letter1500
);
unicode = 6698;
},
{
color = 9;
glyphname = ChaL;
lastChange = "2024-02-10 14:51:08 +0000";
layers = (
{
anchors = (
{
name = am;
pos = (861,1010);
},
{
name = bottom;
pos = (851,-90);
},
{
name = top;
pos = (861,1000);
}
);
layerId = m01;
shapes = (
{
closed = 1;
nodes = (
(1587,-194,o),
(1750,-37,o),
(1750,154,cs),
(1750,1000,l),
(1608,1000,l),
(1608,154,ls),
(1608,42,o),
(1501,-54,o),
(1347,-54,cs),
(1203,-54,o),
(1089,6,o),
(1077,100,c),
(954,31,l),
(978,-56,o),
(1089,-194,o),
(1347,-194,cs)
);
},
{
ref = JaH;
}
);
width = 1900;
},
{
anchors = (
{
name = am;
pos = (861,1010);
},
{
name = bottom;
pos = (851,-90);
},
{
name = top;
pos = (861,1000);
}
);
associatedMasterId = m01;
layerId = m003;
shapes = (
{
closed = 1;
nodes = (
(1564,-194,o),
(1751,-35,o),
(1751,159,cs),
(1751,1018,l),
(1606,1018,l),
(1606,159,ls),
(1606,46,o),
(1476,-48,o),
(1320,-48,cs),
(1191,-48,o),
(1051,9,o),
(1039,104,c),
(907,34,l),
(931,-54,o),
(1058,-194,o),
(1320,-194,cs)
);
},
{
ref = JaH;
}
);
width = 1901;
}
);
note = uni1A2B;
subCategory = Letter;
tags = (
"Letter Base",
Letter1900
);
unicode = 6699;
},
{
color = 9;
glyphname = Nying;
lastChange = "2024-02-10 14:51:08 +0000";
layers = (
{
anchors = (
{
name = am;
pos = (987,1010);
},
{
name = bottom;
pos = (1313,-90);
},
{
name = top;
pos = (1020,1000);
}
);
layerId = m01;
shapes = (
{
closed = 1;
nodes = (
(1395,-850,ls),
(1609,-850,o),
(1801,-738,o),
(1830,-533,c),
(1711,-488,l),
(1686,-640,o),
(1543,-710,o),
(1391,-710,cs),
(577,-710,ls),
(434,-710,o),
(290,-542,o),
(290,-410,c),
(150,-410,l),
(150,-621,o),
(356,-850,o),
(579,-850,cs)
);
},
{
ref = Nya_wide;
}
);
width = 2100;
},
{
anchors = (
{
name = am;
pos = (987,1010);
},
{
name = bottom;
pos = (1313,-90);
},
{
name = top;
pos = (1020,1000);
}
);
associatedMasterId = m01;
layerId = m003;
shapes = (
{
closed = 1;
nodes = (
(579,-651,l),
(445,-646,o),
(295,-486,o),
(295,-354,c),
(150,-354,l),
(150,-574,o),
(358,-798,o),
(581,-798,c)
);
},
{
closed = 1;
nodes = (
(1352,-798,l),
(1403,-732,l),
(1352,-651,l),
(579,-651,l),
(535,-724,l),
(581,-798,l)
);
},
{
closed = 1;
nodes = (
(1363,-798,ls),
(1579,-798,o),
(1774,-684,o),
(1800,-470,c),
(1678,-414,l),
(1673,-434,ls),
(1633,-593,o),
(1497,-651,o),
(1359,-651,cs),
(1352,-651,l),
(1352,-798,l)
);
},
{
ref = Nya_wide;
}
);
width = 2127;
}
);
note = uni1A2C;
subCategory = Letter;
tags = (
"Letter Base",
Letter2100
);
unicode = 6700;
},
{
glyphname = RataH;
lastChange = "2024-02-10 14:51:08 +0000";
layers = (
{
anchors = (
{
name = am;
pos = (770,1010);
},
{
name = bottom;
pos = (770,-100);
},
{
name = top;
pos = (770,1000);
}
);
layerId = m01;
shapes = (
{
closed = 1;
nodes = (
(579,0,o),
(684,72,o),
(751,145,c),
(793,97,o),
(917,0,o),
(1025,0,cs),
(1204,0,o),
(1350,148,o),
(1350,303,cs),
(1350,1000,l),
(1210,1000,l),
(1210,303,ls),
(1210,229,o),
(1130,140,o),
(1025,140,cs),
(922,140,o),
(829,218,o),
(785,283,cs),
(746,342,l),
(707,283,ls),
(679,243,o),
(586,140,o),
(477,140,cs),
(389,140,o),
(290,197,o),
(290,285,cs),
(290,369,o),
(403,432,o),
(517,500,c),
(401,563,o),
(290,647,o),
(290,718,cs),
(290,797,o),
(358,860,o),
(440,860,cs),
(482,860,o),
(518,845,o),
(599,769,c),
(696,870,l),
(588,972,o),
(517,1000,o),
(440,1000,cs),
(278,1000,o),
(150,872,o),
(150,718,cs),
(150,623,o),
(229,547,o),
(295,499,c),
(224,440,o),
(150,362,o),
(150,285,cs),
(150,123,o),
(302,0,o),
(477,0,cs)
);
}
);
width = 1500;
},
{
anchors = (
{
name = am;
pos = (756,1010);
},
{
name = bottom;
pos = (756,-90);
},
{
name = top;
pos = (756,1000);
}
);
associatedMasterId = m01;
layerId = m003;
shapes = (
{
closed = 1;
nodes = (
(595,0,o),
(690,75,o),
(756,150,c),
(799,101,o),
(910,0,o),
(1022,0,cs),
(1206,0,o),
(1362,153,o),
(1362,315,cs),
(1362,1018,l),
(1277,1018,l),
(1277,315,ls),
(1277,177,o),
(1129,85,o),
(1022,85,c),
(916,96,o),
(831,162,o),
(791,234,cs),
(751,305,l),
(714,234,ls),
(691,190,o),
(602,85,o),
(489,85,cs),
(398,85,o),
(235,142,o),
(235,291,cs),
(235,358,o),
(311,428,o),
(431,508,c),
(311,590,o),
(235,653,o),
(235,727,cs),
(235,829,o),
(316,933,o),
(451,933,cs),
(494,933,o),
(550,925,o),
(654,827,c),
(716,884,l),
(604,989,o),
(531,1018,o),
(451,1018,cs),
(282,1018,o),
(150,886,o),
(150,727,cs),
(150,627,o),
(215,556,o),
(300,507,c),
(215,459,o),
(150,370,o),
(150,291,cs),
(150,122,o),
(308,0,o),
(489,0,cs)
);
}
);
width = 1512;
}
);
note = uni1A2D;
subCategory = Letter;
tags = (
"Letter Base",
Letter1500
);
unicode = 6701;
},
{
color = 8;
glyphname = RathaH;
lastChange = "2024-02-10 14:51:08 +0000";
layers = (
{
anchors = (
{
name = am;
pos = (759,1010);
},
{
name = bottom;
pos = (759,-100);
},
{
name = top;
pos = (759,1000);
}
);
layerId = m01;
shapes = (
{
closed = 1;
nodes = (
(963,-850,o),
(1244,-705,o),
(1244,-408,cs),
(1244,-91,ls),
(1244,-1,o),
(1206,72,o),
(1151,110,c),
(1006,33,l),
(1061,5,o),
(1104,-23,o),
(1104,-91,cs),
(1104,-408,ls),
(1104,-619,o),
(892,-709,o),
(663,-709,cs),
(547,-709,o),
(315,-656,o),
(315,-548,cs),
(315,-457,o),
(459,-385,o),
(644,-385,cs),
(713,-385,o),
(799,-406,o),
(903,-489,c),
(990,-379,l),
(847,-272,o),
(750,-244,o),
(644,-244,cs),
(376,-244,o),
(174,-377,o),
(174,-548,cs),
(174,-750,o),
(449,-850,o),
(663,-850,cs)
);
},
{
closed = 1;
nodes = (
(556,0,o),
(640,56,o),
(716,127,c),
(756,70,o),
(852,0,o),
(946,0,cs),
(1106,0,o),
(1247,116,o),
(1247,281,cs),
(1247,449,o),
(1122,572,o),
(958,572,cs),
(887,572,l),
(887,432,l),
(958,432,ls),
(1029,432,o),
(1107,386,o),
(1107,281,cs),
(1107,181,o),
(1011,140,o),
(946,140,cs),
(852,140,o),
(761,264,o),
(709,333,c),
(656,252,o),
(566,140,o),
(463,140,cs),
(378,140,o),
(290,202,o),
(290,309,cs),
(290,428,o),
(443,500,o),
(550,542,c),
(448,601,o),
(356,681,o),
(356,739,cs),
(356,804,o),
(439,860,o),
(525,860,cs),
(836,860,ls),
(1014,860,o),
(1085,849,o),
(1261,685,c),
(1350,792,l),
(1144,992,o),
(1087,1000,o),
(836,1000,cs),
(525,1000,ls),
(367,1000,o),
(216,893,o),
(216,739,cs),
(216,669,o),
(276,606,o),
(319,558,c),
(208,481,o),
(150,468,o),
(150,309,cs),
(150,136,o),
(287,0,o),
(463,0,cs)
);
}
);
width = 1500;
},
{
anchors = (
{
name = am;
pos = (759,1010);
},
{
name = bottom;
pos = (759,-803);
},
{
name = top;
pos = (759,1000);
}
);
associatedMasterId = m01;
layerId = m003;
shapes = (
{
closed = 1;
nodes = (
(1018,-800,o),
(1309,-650,o),
(1309,-339,cs),
(1309,-71,ls),
(1309,24,o),
(1271,100,o),
(1212,139,c),
(1061,57,l),
(1117,29,o),
(1164,0,o),
(1164,-71,cs),
(1164,-339,ls),
(1164,-561,o),
(942,-654,o),
(703,-654,cs),
(583,-654,o),
(340,-597,o),
(340,-485,cs),
(340,-390,o),
(491,-315,o),
(684,-315,cs),
(756,-315,o),
(845,-336,o),
(954,-424,c),
(1044,-309,l),
(896,-197,o),
(795,-169,o),
(684,-169,cs),
(405,-169,o),
(194,-307,o),
(194,-485,cs),
(194,-695,o),
(481,-800,o),
(703,-800,cs)
);
},
{
ref = ThaH.cv04;
}
);
width = 1519;
}
);
note = uni1A2E;
subCategory = Letter;
tags = (
"Letter Base",
Letter1500
);
unicode = 6702;
},
{
category = Letter;
color = 1;
glyphname = Da;
lastChange = "2024-01-23 17:58:50 +0000";
layers = (
{
anchors = (
{
name = am;
pos = (794,1010);
},
{
name = bottom;
pos = (734,-100);
},
{
name = top;
pos = (794,1000);
}
);
layerId = m01;
shapes = (
{
closed = 1;
nodes = (
(1400,116,l),
(1178,205,o),
(946,213,o),
(762,213,cs),
(611,213,o),
(435,189,o),
(306,161,c),
(376,294,o),
(559,308,o),
(736,344,cs),
(937,383,o),
(1151,383,o),
(1256,503,cs),
(1298,551,o),
(1322,617,o),
(1322,712,cs),
(1322,878,o),
(1170,1000,o),
(994,1000,cs),
(909,1000,o),
(833,923,o),
(736,821,c),
(656,928,o),
(586,1000,o),
(479,1000,cs),
(296,1000,o),
(150,871,o),
(150,712,cs),
(150,614,o),
(206,519,o),
(364,432,c),
(432,556,l),
(320,616,o),
(291,664,o),
(291,712,cs),
(291,794,o),
(378,860,o),
(479,860,cs),
(557,860,o),
(656,740,o),
(694,681,cs),
(736,617,l),
(778,681,ls),
(827,756,o),
(905,860,o),
(994,860,cs),
(1095,860,o),
(1182,794,o),
(1182,712,cs),
(1182,664,o),
(1178,615,o),
(1145,588,cs),
(1056,515,o),
(893,515,o),
(736,484,cs),
(499,440,o),
(264,374,o),
(199,254,cs),
(145,154,o),
(150,146,o),
(150,3,c),
(359,62,o),
(551,73,o),
(758,73,cs),
(928,73,o),
(1121,67,o),
(1326,0,c)
);
}
);
width = 1500;
},
{
anchors = (
{
name = am;
pos = (794,1010);
},
{
name = bottom;
pos = (734,-90);
},
{
name = top;
pos = (794,1000);
}
);
associatedMasterId = m01;
layerId = m003;
shapes = (
{
closed = 1;
nodes = (
(1438,104,l),
(1207,196,o),
(968,204,o),
(783,204,cs),
(626,204,o),
(445,179,o),
(312,151,c),
(384,288,o),
(573,303,o),
(756,339,cs),
(1046,396,o),
(1362,373,o),
(1362,720,cs),
(1362,892,o),
(1204,1018,o),
(1023,1018,cs),
(935,1018,o),
(856,939,o),
(756,833,c),
(673,944,o),
(601,1018,o),
(490,1018,cs),
(301,1018,o),
(150,885,o),
(150,720,cs),
(150,619,o),
(208,520,o),
(371,431,c),
(442,559,l),
(326,621,o),
(296,671,o),
(296,720,cs),
(296,805,o),
(386,873,o),
(490,873,cs),
(571,873,o),
(673,749,o),
(713,688,cs),
(756,622,l),
(799,688,ls),
(850,766,o),
(931,873,o),
(1023,873,cs),
(1127,873,o),
(1217,805,o),
(1217,720,cs),
(1217,508,o),
(968,525,o),
(756,485,cs),
(511,439,o),
(268,371,o),
(201,247,cs),
(145,143,o),
(150,135,o),
(150,-13,c),
(366,48,o),
(564,59,o),
(779,59,cs),
(949,59,o),
(1149,53,o),
(1361,-16,c)
);
}
);
width = 1518;
}
);
note = uni1A2F;
production = uni1A2F;
script = tham;
subCategory = Letter;
tags = (
"Letter Base",
Letter1500
);
unicode = 6703;
},
{
glyphname = RathaL;
lastChange = "2024-02-10 14:51:08 +0000";
layers = (
{
anchors = (
{
name = am;
pos = (916,1010);
},
{
name = bottom;
pos = (756,-100);
},
{
name = top;
pos = (916,1000);
}
);
layerId = m01;
shapes = (
{
closed = 1;
nodes = (
(1366,0,o),
(1550,137,o),
(1550,445,cs),
(1550,738,ls),
(1550,876,o),
(1461,949,o),
(1361,1000,c),
(1293,878,l),
(1375,834,o),
(1410,804,o),
(1410,738,cs),
(1410,447,ls),
(1410,203,o),
(1277,140,o),
(1129,140,cs),
(927,140,o),
(843,209,o),
(782,305,c),
(700,194,o),
(580,140,o),
(486,140,cs),
(397,140,o),
(290,190,o),
(290,287,c),
(346,303,o),
(395,320,o),
(448,338,cs),
(592,387,o),
(760,446,o),
(906,574,cs),
(981,640,o),
(1036,690,o),
(1036,776,cs),
(1036,913,o),
(900,1000,o),
(787,1000,cs),
(719,1000,o),
(652,969,o),
(590,873,c),
(529,970,o),
(461,1000,o),
(393,1000,cs),
(259,1000,o),
(150,911,o),
(150,776,cs),
(150,697,o),
(195,624,o),
(275,585,cs),
(340,553,l),
(402,678,l),
(342,708,ls),
(310,724,o),
(290,752,o),
(290,776,cs),
(290,827,o),
(331,866,o),
(393,866,cs),
(470,865,o),
(507,825,o),
(589,714,c),
(668,826,o),
(717,866,o),
(787,866,cs),
(840,866,o),
(896,824,o),
(896,776,cs),
(896,752,o),
(877,739,o),
(854,716,cs),
(718,581,o),
(554,520,o),
(397,469,cs),
(270,429,o),
(150,400,o),
(150,287,cs),
(150,115,o),
(311,0,o),
(486,0,cs),
(569,0,o),
(673,53,o),
(780,150,c),
(843,83,o),
(937,0,o),
(1129,0,cs)
);
}
);
width = 1700;
},
{
anchors = (
{
name = am;
pos = (756,1010);
},
{
name = bottom;
pos = (756,-90);
},
{
name = top;
pos = (756,1000);
}
);
associatedMasterId = m01;
layerId = m003;
shapes = (
{
closed = 1;
nodes = (
(1301,0,o),
(1467,169,o),
(1467,449,cs),
(1467,745,ls),
(1467,885,o),
(1377,958,o),
(1276,1010,c),
(1204,884,l),
(1287,839,o),
(1322,812,o),
(1322,745,cs),
(1322,451,ls),
(1322,241,o),
(1212,146,o),
(1052,146,cs),
(949,146,o),
(850,211,o),
(788,308,c),
(705,196,o),
(584,145,o),
(489,145,cs),
(394,145,o),
(295,204,o),
(295,290,c),
(352,306,o),
(397,319,o),
(451,338,cs),
(596,389,o),
(786,443,o),
(934,577,cs),
(1008,644,o),
(1070,697,o),
(1070,784,cs),
(1070,922,o),
(938,1010,o),
(803,1010,cs),
(735,1010,o),
(672,979,o),
(610,882,c),
(548,980,o),
(484,1010,o),
(416,1010,cs),
(280,1010,o),
(150,920,o),
(150,784,cs),
(150,704,o),
(195,630,o),
(276,591,cs),
(342,559,l),
(408,689,l),
(344,721,ls),
(312,737,o),
(295,760,o),
(295,784,cs),
(295,835,o),
(353,875,o),
(416,875,cs),
(493,874,o),
(526,833,o),
(609,721,c),
(688,834,o),
(733,875,o),
(803,875,cs),
(877,875,o),
(924,832,o),
(924,784,cs),
(924,760,o),
(904,746,o),
(881,723,cs),
(744,587,o),
(558,525,o),
(399,474,cs),
(271,433,o),
(150,404,o),
(150,290,cs),
(150,116,o),
(313,0,o),
(489,0,cs),
(573,0,o),
(678,54,o),
(786,151,c),
(850,84,o),
(959,0,o),
(1052,0,cs)
);
}
);
width = 1617;
}
);
note = uni1A30;
subCategory = Letter;
tags = (
"Letter Base",
Letter1700
);
unicode = 6704;
},
{
color = 9;
glyphname = Rana;
lastChange = "2024-02-10 14:51:08 +0000";
layers = (
{
anchors = (
{
name = MaiKU;
pos = (1783,-100);
},
{
name = am;
pos = (1219,1010);
},
{
name = bottom;
pos = (1221,-100);
},
{
name = top;
pos = (1221,1000);
}
);
layerId = m01;
shapes = (
{
closed = 1;
nodes = (
(1348,565,l),
(1276,500,l),
(1276,297,o),
(1434,133,o),
(1201,133,cs),
(956,133,o),
(1123,297,o),
(1123,500,c),
(1053,565,l),
(983,500,l),
(983,364,o),
(913,343,o),
(913,241,cs),
(913,105,o),
(1037,0,o),
(1201,0,cs),
(1366,0,o),
(1486,107,o),
(1486,241,cs),
(1486,346,o),
(1416,366,o),
(1416,500,c)
);
},
{
closed = 1;
nodes = (
(1754,0,l),
(2097,0,o),
(2250,204,o),
(2250,500,cs),
(2250,775,o),
(2097,1000,o),
(1754,1000,cs),
(1449,1000,o),
(1276,775,o),
(1276,500,c),
(1416,500,l),
(1416,706,o),
(1516,859,o),
(1754,859,cs),
(2029,859,o),
(2109,706,o),
(2109,500,cs),
(2109,272,o),
(2029,140,o),
(1754,140,c)
);
},
{
closed = 1;
nodes = (
(371,140,o),
(291,272,o),
(291,500,cs),
(291,706,o),
(371,859,o),
(646,859,cs),
(884,859,o),
(983,706,o),
(983,500,c),
(1123,500,l),
(1123,775,o),
(951,1000,o),
(646,1000,cs),
(303,1000,o),
(150,775,o),
(150,500,cs),
(150,204,o),
(303,0,o),
(646,0,c),
(646,140,l)
);
}
);
width = 2400;
},
{
anchors = (
{
name = am;
pos = (1223,1010);
},
{
name = bottom;
pos = (1225,-90);
},
{
name = top;
pos = (1225,1000);
}
);
associatedMasterId = m01;
layerId = m003;
shapes = (
{
closed = 1;
nodes = (
(1374,575,l),
(1300,509,l),
(1300,302,o),
(1461,135,o),
(1224,135,cs),
(975,135,o),
(1145,302,o),
(1145,509,c),
(1073,575,l),
(1002,509,l),
(1002,371,o),
(931,349,o),
(931,245,cs),
(931,107,o),
(1057,0,o),
(1224,0,cs),
(1392,0,o),
(1514,109,o),
(1514,245,cs),
(1514,352,o),
(1443,373,o),
(1443,509,c)
);
},
{
closed = 1;
nodes = (
(1787,0,l),
(2136,0,o),
(2296,208,o),
(2296,509,cs),
(2296,789,o),
(2136,1018,o),
(1787,1018,cs),
(1476,1018,o),
(1300,789,o),
(1300,509,c),
(1443,509,l),
(1443,719,o),
(1545,874,o),
(1787,874,cs),
(2067,874,o),
(2152,719,o),
(2152,509,cs),
(2152,277,o),
(2067,143,o),
(1787,143,c)
);
},
{
closed = 1;
nodes = (
(379,143,o),
(294,277,o),
(294,509,cs),
(294,719,o),
(379,874,o),
(659,874,cs),
(901,874,o),
(1002,719,o),
(1002,509,c),
(1145,509,l),
(1145,789,o),
(970,1018,o),
(659,1018,cs),
(310,1018,o),
(150,789,o),
(150,509,cs),
(150,208,o),
(310,0,o),
(659,0,c),
(659,143,l)
);
}
);
width = 2446;
}
);
note = uni1A31;
subCategory = Letter;
tags = (
"Letter Base",
Letter2400
);
unicode = 6705;
},
{
color = 9;
glyphname = TaH;
lastChange = "2024-02-10 14:51:08 +0000";
layers = (
{
anchors = (
{
name = MaiKU;
pos = (1449,-100);
},
{
name = am;
pos = (1119,1010);
},
{
name = bottom;
pos = (1119,-100);
},
{
name = top;
pos = (1119,1000);
}
);
layerId = m01;
shapes = (
{
closed = 1;
nodes = (
(926,0,o),
(1120,224,o),
(1120,500,cs),
(1120,775,o),
(926,1000,o),
(633,1000,cs),
(339,1000,o),
(150,775,o),
(150,500,cs),
(150,224,o),
(339,0,o),
(633,0,cs)
);
},
{
closed = 1;
nodes = (
(406,140,o),
(290,292,o),
(290,500,cs),
(290,706,o),
(406,859,o),
(633,859,cs),
(857,859,o),
(980,706,o),
(980,500,cs),
(980,292,o),
(857,140,o),
(633,140,cs)
);
},
{
closed = 1;
nodes = (
(1468,0,l),
(1760,0,o),
(1950,224,o),
(1950,500,cs),
(1950,775,o),
(1760,1000,o),
(1468,1000,cs),
(1174,1000,o),
(981,775,o),
(981,500,c),
(1120,500,l),
(1120,706,o),
(1241,859,o),
(1468,859,cs),
(1693,859,o),
(1809,706,o),
(1809,500,cs),
(1809,292,o),
(1693,140,o),
(1468,140,c)
);
},
{
closed = 1;
nodes = (
(1385,0,l),
(1468,0,l),
(1468,140,l),
(1385,140,l)
);
}
);
width = 2100;
},
{
anchors = (
{
name = am;
pos = (1134,1010);
},
{
name = bottom;
pos = (1134,-90);
},
{
name = top;
pos = (1134,1000);
}
);
associatedMasterId = m01;
layerId = m003;
shapes = (
{
closed = 1;
nodes = (
(924,0,o),
(1108,228,o),
(1108,509,cs),
(1108,789,o),
(924,1018,o),
(624,1018,cs),
(323,1018,o),
(150,789,o),
(150,509,cs),
(150,228,o),
(323,0,o),
(624,0,cs)
);
},
{
closed = 1;
nodes = (
(372,85,o),
(235,277,o),
(235,509,cs),
(235,741,o),
(372,933,o),
(624,933,cs),
(874,933,o),
(1024,739,o),
(1024,509,cs),
(1024,277,o),
(874,85,o),
(624,85,cs)
);
},
{
closed = 1;
nodes = (
(1489,0,l),
(1788,0,o),
(1982,228,o),
(1982,509,cs),
(1982,789,o),
(1798,1018,o),
(1499,1018,cs),
(1198,1018,o),
(1025,789,o),
(1025,509,c),
(1108,509,l),
(1108,739,o),
(1247,934,o),
(1499,934,cs),
(1749,934,o),
(1898,739,o),
(1898,509,cs),
(1898,277,o),
(1739,83,o),
(1489,83,c)
);
},
{
closed = 1;
nodes = (
(1404,0,l),
(1489,0,l),
(1489,83,l),
(1404,83,l)
);
}
);
width = 2132;
}
);
note = uni1A32;
subCategory = Letter;
tags = (
"Letter Base",
Letter2100
);
unicode = 6706;
},
{
glyphname = ThaH;
lastChange = "2024-02-10 14:51:08 +0000";
layers = (
{
anchors = (
{
name = "*top.sam";
pos = (417,1010);
userData = {
GPOS_Context = "* MaiSam";
};
},
{
name = am;
pos = (819,1010);
},
{
name = bottom;
pos = (819,-100);
},
{
name = top;
pos = (819,1000);
}
);
layerId = m01;
shapes = (
{
closed = 1;
nodes = (
(576,0,o),
(683,66,o),
(759,137,c),
(826,69,o),
(945,0,o),
(1049,0,cs),
(1209,0,o),
(1350,116,o),
(1350,281,cs),
(1350,449,o),
(1225,572,o),
(1061,572,cs),
(990,572,l),
(990,432,l),
(1061,432,ls),
(1132,432,o),
(1210,386,o),
(1210,281,cs),
(1210,181,o),
(1114,140,o),
(1049,140,cs),
(955,140,o),
(804,264,o),
(752,333,c),
(699,252,o),
(566,140,o),
(463,140,cs),
(378,140,o),
(290,202,o),
(290,309,cs),
(290,428,o),
(443,500,o),
(550,542,c),
(448,601,o),
(356,681,o),
(356,739,cs),
(356,804,o),
(439,860,o),
(525,860,cs),
(836,860,ls),
(1140,860,o),
(1135,859,o),
(1261,735,c),
(1350,842,l),
(1194,1002,o),
(1137,1000,o),
(836,1000,cs),
(525,1000,ls),
(367,1000,o),
(216,893,o),
(216,739,cs),
(216,669,o),
(276,606,o),
(319,558,c),
(208,481,o),
(150,468,o),
(150,309,cs),
(150,136,o),
(287,0,o),
(463,0,cs)
);
}
);
width = 1500;
},
{
anchors = (
{
name = am;
pos = (819,1010);
},
{
name = bottom;
pos = (819,-90);
},
{
name = top;
pos = (819,1000);
}
);
associatedMasterId = m01;
layerId = m003;
shapes = (
{
closed = 1;
nodes = (
(352,146,o),
(295,215,o),
(295,315,cs),
(295,411,o),
(414,482,o),
(533,561,c),
(403,631,o),
(362,682,o),
(362,752,cs),
(362,819,o),
(441,873,o),
(522,873,cs),
(903,873,ls),
(1195,873,o),
(1296,668,o),
(1296,364,cs),
(1296,0,l),
(1442,0,l),
(1442,364,ls),
(1442,757,o),
(1288,1018,o),
(903,1018,cs),
(522,1018,ls),
(357,1018,o),
(216,898,o),
(216,752,cs),
(216,680,o),
(260,614,o),
(307,567,c),
(230,490,o),
(150,432,o),
(150,315,cs),
(150,135,o),
(276,0,o),
(449,0,cs),
(543,0,o),
(614,85,o),
(649,149,c),
(690,91,o),
(753,0,o),
(860,0,cs),
(1023,0,o),
(1137,108,o),
(1137,276,cs),
(1137,447,o),
(1010,562,o),
(843,562,cs),
(770,562,l),
(770,416,l),
(843,416,ls),
(915,416,o),
(991,383,o),
(991,276,cs),
(991,174,o),
(927,145,o),
(860,145,cs),
(765,145,o),
(695,269,o),
(642,339,c),
(604,278,o),
(534,146,o),
(449,146,cs)
);
}
);
width = 1592;
}
);
note = uni1A33;
subCategory = Letter;
tags = (
"Letter Base",
Letter1500
);
unicode = 6707;
},
{
glyphname = TaL;
lastChange = "2024-02-10 14:51:08 +0000";
layers = (
{
anchors = (
{
name = "* MaiKangLai";
pos = (1278,1000);
userData = {
GPOS_Context = "* Sakot La";
};
},
{
name = am;
pos = (776,1010);
},
{
name = bottom;
pos = (718,-100);
},
{
name = top;
pos = (776,1000);
}
);
layerId = m01;
shapes = (
{
closed = 1;
nodes = (
(1350,759,l),
(1282,900,o),
(1127,1000,o),
(964,1000,cs),
(563,1000,ls),
(328,1000,o),
(150,857,o),
(150,625,cs),
(150,372,ls),
(150,139,o),
(327,0,o),
(561,0,cs),
(919,0,ls),
(1074,0,o),
(1163,99,o),
(1163,219,cs),
(1163,276,o),
(1125,335,o),
(1071,377,c),
(1113,417,o),
(1163,457,o),
(1163,515,cs),
(1163,641,o),
(1046,737,o),
(910,737,cs),
(832,737,o),
(763,709,o),
(666,604,c),
(768,508,l),
(836,581,o),
(872,597,o),
(910,597,cs),
(963,597,o),
(1023,565,o),
(1023,515,cs),
(1023,486,o),
(980,432,o),
(852,363,c),
(958,317,o),
(1005,275,o),
(1021,219,cs),
(1036,173,o),
(966,140,o),
(919,140,cs),
(563,140,ls),
(402,140,o),
(290,220,o),
(290,372,cs),
(290,625,ls),
(290,767,o),
(386,860,o),
(563,860,cs),
(964,860,ls),
(1081,860,o),
(1186,784,o),
(1230,686,c)
);
}
);
width = 1500;
},
{
anchors = (
{
name = am;
pos = (756,1010);
},
{
name = bottom;
pos = (698,-90);
},
{
name = top;
pos = (756,1000);
}
);
associatedMasterId = m01;
layerId = m003;
shapes = (
{
closed = 1;
nodes = (
(1332,769,l),
(1262,915,o),
(1102,1018,o),
(933,1018,cs),
(578,1018,ls),
(334,1018,o),
(150,871,o),
(150,631,cs),
(150,384,ls),
(150,144,o),
(333,0,o),
(576,0,cs),
(886,0,ls),
(1047,0,o),
(1138,103,o),
(1138,226,cs),
(1138,286,o),
(1100,346,o),
(1044,389,c),
(1089,432,o),
(1138,472,o),
(1138,532,cs),
(1138,663,o),
(1017,761,o),
(877,761,cs),
(797,761,o),
(726,733,o),
(625,625,c),
(731,525,l),
(802,602,o),
(838,615,o),
(877,615,cs),
(932,615,o),
(993,583,o),
(993,532,cs),
(993,502,o),
(949,447,o),
(818,376,c),
(927,328,o),
(976,285,o),
(993,226,cs),
(1007,179,o),
(935,145,o),
(886,145,cs),
(578,145,ls),
(421,145,o),
(295,227,o),
(295,384,cs),
(295,631,ls),
(295,778,o),
(405,873,o),
(578,873,cs),
(933,873,ls),
(1054,873,o),
(1164,796,o),
(1208,694,c)
);
}
);
width = 1458;
}
);
note = uni1A34;
subCategory = Letter;
tags = (
"Letter Base",
Letter1500
);
unicode = 6708;
},
{
glyphname = ThaL;
lastChange = "2024-02-10 14:51:08 +0000";
layers = (
{
anchors = (
{
name = am;
pos = (710,1010);
},
{
name = bottom;
pos = (706,-100);
},
{
name = top;
pos = (704,1000);
}
);
layerId = m01;
shapes = (
{
closed = 1;
nodes = (
(518,146,o),
(559,224,o),
(700,224,cs),
(845,224,o),
(882,147,o),
(919,0,c),
(1147,148,o),
(1250,305,o),
(1250,476,cs),
(1250,770,o),
(998,1000,o),
(700,1000,cs),
(400,1000,o),
(150,771,o),
(150,476,cs),
(150,306,o),
(250,151,o),
(479,0,c)
);
},
{
closed = 1;
nodes = (
(355,260,o),
(290,374,o),
(290,476,cs),
(290,685,o),
(470,860,o),
(700,860,cs),
(926,860,o),
(1110,686,o),
(1110,476,cs),
(1110,374,o),
(1041,250,o),
(966,180,c),
(941,280,o),
(835,364,o),
(700,364,cs),
(553,364,o),
(448,278,o),
(429,190,c)
);
}
);
width = 1400;
},
{
anchors = (
{
name = am;
pos = (708,1010);
},
{
name = bottom;
pos = (704,-90);
},
{
name = top;
pos = (702,1000);
}
);
associatedMasterId = m01;
layerId = m003;
shapes = (
{
closed = 1;
nodes = (
(523,135,o),
(564,228,o),
(708,228,cs),
(855,228,o),
(893,137,o),
(931,-13,c),
(1163,138,o),
(1267,310,o),
(1267,485,cs),
(1267,784,o),
(1011,1018,o),
(708,1018,cs),
(402,1018,o),
(150,785,o),
(150,485,cs),
(150,311,o),
(250,140,o),
(483,-14,c)
);
},
{
closed = 1;
nodes = (
(357,265,o),
(295,381,o),
(295,485,cs),
(295,697,o),
(479,873,o),
(708,873,cs),
(935,873,o),
(1121,698,o),
(1121,485,cs),
(1121,381,o),
(1055,255,o),
(979,183,c),
(953,285,o),
(845,373,o),
(708,373,cs),
(558,373,o),
(451,283,o),
(432,193,c)
);
}
);
width = 1417;
}
);
note = uni1A35;
subCategory = Letter;
tags = (
"Letter Base",
Letter1400
);
unicode = 6709;
},
{
category = Letter;
color = 1;
glyphname = Na;
lastChange = "2024-02-10 14:51:08 +0000";
layers = (
{
anchors = (
{
name = am;
pos = (682,1010);
},
{
name = bottom;
pos = (676,-100);
},
{
name = top;
pos = (682,1000);
}
);
layerId = m01;
shapes = (
{
closed = 1;
nodes = (
(1350,-17,l),
(1310,42,ls),
(1182,234,o),
(933,328,o),
(723,328,cs),
(576,328,o),
(413,281,o),
(290,198,c),
(290,609,ls),
(290,766,o),
(491,860,o),
(674,860,cs),
(852,860,o),
(1057,767,o),
(1057,616,cs),
(1057,591,o),
(1024,560,o),
(998,560,cs),
(926,560,l),
(926,420,l),
(998,420,ls),
(1103,420,o),
(1197,517,o),
(1197,616,cs),
(1197,852,o),
(936,1000,o),
(674,1000,cs),
(408,1000,o),
(150,847,o),
(150,616,cs),
(150,36,l),
(263,-8,l),
(381,119,o),
(548,188,o),
(726,188,cs),
(895,188,o),
(1096,111,o),
(1194,-36,cs),
(1235,-96,l)
);
}
);
width = 1500;
},
{
anchors = (
{
name = am;
pos = (682,1010);
},
{
name = bottom;
pos = (696,-50);
},
{
name = top;
pos = (682,1000);
}
);
associatedMasterId = m01;
layerId = m003;
shapes = (
{
closed = 1;
nodes = (
(1321,-46,l),
(1281,14,ls),
(1172,177,o),
(944,278,o),
(732,278,cs),
(531,278,o),
(343,191,o),
(235,87,c),
(235,627,ls),
(235,796,o),
(436,933,o),
(682,933,cs),
(938,933,o),
(1129,790,o),
(1129,627,cs),
(1129,562,o),
(1058,513,o),
(1011,513,cs),
(938,513,l),
(938,428,l),
(1011,428,ls),
(1118,428,o),
(1214,527,o),
(1214,627,cs),
(1214,867,o),
(949,1018,o),
(682,1018,cs),
(412,1018,o),
(150,862,o),
(150,627,cs),
(150,38,l),
(265,-7,l),
(385,122,o),
(554,193,o),
(735,193,cs),
(907,193,o),
(1113,111,o),
(1213,-38,cs),
(1254,-99,l)
);
}
);
width = 1524;
}
);
note = uni1A36;
production = uni1A36;
script = tham;
subCategory = Letter;
tags = (
"Letter Base",
Letter1400
);
unicode = 6710;
},
{
glyphname = Ba;
lastChange = "2024-02-10 14:51:08 +0000";
layers = (
{
anchors = (
{
name = am;
pos = (715,1010);
},
{
name = bottom;
pos = (724,-100);
},
{
name = top;
pos = (724,1010);
}
);
layerId = m01;
shapes = (
{
closed = 1;
nodes = (
(1117,0,o),
(1350,182,o),
(1350,500,cs),
(1350,726,o),
(1249,911,o),
(1037,1000,c),
(984,870,l),
(1149,802,o),
(1210,661,o),
(1210,500,cs),
(1210,235,o),
(1002,140,o),
(750,140,cs),
(498,140,o),
(290,236,o),
(290,453,cs),
(290,562,o),
(615,556,o),
(615,804,cs),
(615,895,o),
(552,1000,o),
(364,1000,cs),
(209,1000,l),
(209,860,l),
(364,860,ls),
(415,860,o),
(475,849,o),
(475,804,cs),
(475,659,o),
(150,684,o),
(150,453,cs),
(150,136,o),
(435,0,o),
(750,0,cs)
);
}
);
width = 1500;
},
{
anchors = (
{
name = am;
pos = (731,1010);
},
{
name = bottom;
pos = (740,-90);
},
{
name = top;
pos = (740,1010);
}
);
associatedMasterId = m01;
layerId = m003;
shapes = (
{
closed = 1;
nodes = (
(1100,0,o),
(1346,154,o),
(1346,531,cs),
(1346,757,o),
(1191,936,o),
(973,1027,c),
(919,892,l),
(1088,823,o),
(1200,682,o),
(1200,531,cs),
(1200,316,o),
(1100,146,o),
(734,146,cs),
(582,146,o),
(375,168,o),
(307,377,cs),
(283,450,o),
(289,485,o),
(326,507,cs),
(433,570,o),
(608,658,o),
(608,810,cs),
(608,902,o),
(542,1012,o),
(367,1012,cs),
(220,1012,l),
(220,863,l),
(306,861,o),
(458,889,o),
(462,814,cs),
(466,735,o),
(248,634,o),
(214,613,cs),
(127,553,o),
(147,393,o),
(166,337,cs),
(250,89,o),
(449,0,o),
(740,0,cs)
);
}
);
width = 1496;
}
);
note = uni1A37;
subCategory = Letter;
tags = (
"Letter Base",
Letter1500
);
unicode = 6711;
},
{
color = 5;
glyphname = PaH;
lastChange = "2024-01-23 17:58:50 +0000";
layers = (
{
anchors = (
{
name = am;
pos = (728,1010);
},
{
name = bottom;
pos = (748,-100);
},
{
name = top;
pos = (672,1010);
},
{
name = top_alt;
pos = (462,1010);
}
);
layerId = m01;
shapes = (
{
closed = 1;
nodes = (
(510,140,o),
(290,230,o),
(290,453,cs),
(290,562,o),
(615,556,o),
(615,804,cs),
(615,895,o),
(552,1000,o),
(364,1000,cs),
(209,1000,l),
(209,859,l),
(364,860,ls),
(441,860,o),
(475,839,o),
(475,804,cs),
(475,659,o),
(150,684,o),
(150,453,cs),
(150,136,o),
(438,0,o),
(753,0,cs),
(1131,0,o),
(1350,182,o),
(1350,500,cs),
(1350,1670,ls),
(1350,1771,o),
(1393,1837,o),
(1540,1840,c),
(1540,1980,l),
(1328,1980,o),
(1210,1857,o),
(1210,1670,cs),
(1210,500,ls),
(1210,272,o),
(1067,140,o),
(750,140,cs)
);
}
);
width = 1590;
},
{
anchors = (
{
name = am;
pos = (728,1010);
},
{
name = bottom;
pos = (748,-65);
},
{
name = top;
pos = (672,1010);
},
{
name = top_alt;
pos = (462,1010);
}
);
associatedMasterId = m01;
layerId = m003;
shapes = (
{
closed = 1;
nodes = (
(740,0,l),
(1084,0,o),
(1330,207,o),
(1330,531,cs),
(1330,1673,ls),
(1330,1776,o),
(1408,1842,o),
(1524,1842,c),
(1524,1988,l),
(1309,1988,o),
(1185,1864,o),
(1185,1673,cs),
(1185,531,ls),
(1185,304,o),
(1015,145,o),
(734,145,c)
);
},
{
pos = (-16,0);
ref = borfront;
}
);
width = 1526;
}
);
note = uni1A38;
subCategory = Letter;
tags = (
"Letter Base",
Letter1500
);
unicode = 6712;
},
{
glyphname = PhaH;
lastChange = "2024-02-10 14:51:08 +0000";
layers = (
{
anchors = (
{
name = am;
pos = (784,1010);
},
{
name = bottom;
pos = (785,-100);
},
{
name = top;
pos = (785,1000);
}
);
layerId = m01;
shapes = (
{
closed = 1;
nodes = (
(1210,421,l),
(1210,303,ls),
(1210,230,o),
(1130,140,o),
(1025,140,cs),
(922,140,o),
(827,216,o),
(785,283,cs),
(748,342,l),
(707,283,ls),
(679,243,o),
(586,140,o),
(477,140,cs),
(389,140,o),
(290,197,o),
(290,285,cs),
(290,369,o),
(403,432,o),
(517,500,c),
(401,563,o),
(290,647,o),
(290,718,cs),
(290,797,o),
(358,860,o),
(440,860,cs),
(482,860,o),
(518,845,o),
(599,769,c),
(696,870,l),
(588,972,o),
(517,1000,o),
(440,1000,cs),
(278,1000,o),
(150,872,o),
(150,718,cs),
(150,623,o),
(229,547,o),
(295,499,c),
(224,440,o),
(150,362,o),
(150,285,cs),
(150,123,o),
(302,0,o),
(477,0,cs),
(579,0,o),
(686,72,o),
(753,145,c),
(795,97,o),
(917,0,o),
(1025,0,cs),
(1204,0,o),
(1350,148,o),
(1350,303,cs),
(1350,421,l)
);
},
{
closed = 1;
nodes = (
(1350,606,ls),
(1350,796,o),
(1304,1000,o),
(1098,1000,cs),
(962,1000,o),
(880,903,o),
(880,785,cs),
(880,653,o),
(994,570,o),
(1098,570,cs),
(1304,570,o),
(1400,806,o),
(1400,1000,c),
(1300,1000,l),
(1300,823,o),
(1219,670,o),
(1098,670,cs),
(1029,670,o),
(980,729,o),
(980,785,cs),
(980,829,o),
(1002,900,o),
(1098,900,cs),
(1158,900,o),
(1209,854,o),
(1209,799,c),
(1210,606,l),
(1210,410,l),
(1278,360,l),
(1350,410,l)
);
}
);
width = 1550;
},
{
anchors = (
{
name = am;
pos = (780,1010);
},
{
name = bottom;
pos = (781,-90);
},
{
name = top;
pos = (781,1000);
}
);
associatedMasterId = m01;
layerId = m003;
shapes = (
{
closed = 1;
nodes = (
(1015,-1,cs),
(1250,-1,o),
(1362,242,o),
(1362,509,cs),
(1362,589,o),
(1355,660,o),
(1343,727,c),
(1386,792,o),
(1411,869,o),
(1411,945,cs),
(1411,1018,l),
(1275,1018,l),
(1276,945,ls),
(1276,938,o),
(1272,914,o),
(1263,909,c),
(1186,1010,o),
(1140,1018,o),
(1071,1018,cs),
(939,1018,o),
(840,915,o),
(854,786,cs),
(870,613,o),
(1042,523,o),
(1213,607,c),
(1216,575,o),
(1217,544,o),
(1217,509,cs),
(1217,347,o),
(1182,158,o),
(1017,145,cs),
(882,135,o),
(818,247,o),
(754,369,c),
(659,201,o),
(592,145,o),
(489,145,cs),
(393,145,o),
(295,205,o),
(295,291,cs),
(295,387,o),
(435,450,o),
(519,495,c),
(397,569,o),
(295,662,o),
(295,727,cs),
(295,809,o),
(367,873,o),
(452,873,cs),
(495,873,o),
(532,858,o),
(616,779,c),
(716,884,l),
(608,985,o),
(528,1018,o),
(452,1018,cs),
(288,1018,o),
(150,888,o),
(150,727,cs),
(150,627,o),
(222,555,o),
(290,506,c),
(217,443,o),
(150,371,o),
(150,291,cs),
(150,132,o),
(297,0,o),
(489,0,cs),
(591,0,o),
(697,87,o),
(754,152,c),
(808,62,o),
(919,-1,o)
);
},
{
closed = 1;
nodes = (
(1012,716,o),
(984,746,o),
(977,797,cs),
(974,824,o),
(987,890,o),
(1061,890,cs),
(1110,890,o),
(1180,866,o),
(1196,764,c),
(1157,708,o),
(1115,700,o),
(1071,707,cs)
);
}
);
width = 1561;
}
);
note = uni1A39;
subCategory = Letter;
tags = (
"Letter Base",
Letter1500
);
unicode = 6713;
},
{
color = 0;
glyphname = FaH;
lastChange = "2024-02-10 14:51:08 +0000";
layers = (
{
anchors = (
{
name = am;
pos = (887,1010);
},
{
name = bottom;
pos = (763,-100);
},
{
name = top;
pos = (887,1100);
}
);
layerId = m01;
shapes = (
{
closed = 1;
nodes = (
(1350,1000,l),
(1350,1141,l),
(642,1141,ls),
(448,1141,o),
(291,1313,o),
(291,1486,cs),
(291,1669,o),
(448,1839,o),
(642,1839,cs),
(759,1839,l),
(865,1980,l),
(642,1980,ls),
(365,1980,o),
(150,1742,o),
(150,1486,cs),
(150,1219,o),
(385,1000,o),
(642,1000,cs)
);
},
{
ref = RataH;
}
);
width = 1500;
},
{
anchors = (
{
name = am;
pos = (887,1010);
},
{
name = bottom;
pos = (763,-80);
},
{
name = top;
pos = (887,1100);
}
);
associatedMasterId = m01;
layerId = m003;
shapes = (
{
closed = 1;
nodes = (
(575,0,o),
(669,35,o),
(756,145,c),
(843,50,o),
(894,0,o),
(1023,0,cs),
(1215,0,o),
(1362,162,o),
(1362,315,cs),
(1362,1164,l),
(659,1164,ls),
(459,1164,o),
(296,1314,o),
(296,1503,cs),
(296,1692,o),
(459,1842,o),
(659,1842,cs),
(780,1842,l),
(890,1988,l),
(659,1988,ls),
(373,1988,o),
(150,1768,o),
(150,1503,cs),
(150,1226,o),
(393,1013,o),
(659,1013,cs),
(1217,1013,l),
(1217,315,ls),
(1217,241,o),
(1132,145,o),
(1023,145,cs),
(940,145,o),
(835,205,o),
(750,342,c),
(658,208,o),
(610,145,o),
(489,145,cs),
(393,145,o),
(296,203,o),
(296,291,cs),
(296,364,o),
(401,434,o),
(535,503,c),
(415,574,o),
(296,632,o),
(296,727,cs),
(296,807,o),
(364,873,o),
(452,873,cs),
(495,873,o),
(532,858,o),
(563,829,cs),
(617,779,l),
(716,884,l),
(663,934,ls),
(606,989,o),
(531,1018,o),
(452,1018,cs),
(282,1018,o),
(150,886,o),
(150,727,cs),
(150,627,o),
(237,556,o),
(305,507,c),
(212,443,o),
(150,370,o),
(150,291,cs),
(150,124,o),
(308,0,o),
(489,0,cs)
);
}
);
width = 1512;
}
);
note = uni1A3A;
subCategory = Letter;
tags = (
"Letter Base",
Letter1500
);
unicode = 6714;
},
{
glyphname = PaL;
lastChange = "2024-02-10 14:51:08 +0000";
layers = (
{
anchors = (
{
name = am;
pos = (761,1010);
},
{
name = bottom;
pos = (761,-100);
},
{
name = top;
pos = (761,1000);
}
);
layerId = m01;
shapes = (
{
closed = 1;
nodes = (
(555,0,l),
(555,142,l),
(483,142,ls),
(355,142,o),
(292,364,o),
(292,500,cs),
(292,636,o),
(355,858,o),
(483,858,cs),
(608,858,o),
(697,749,o),
(753,619,c),
(813,745,o),
(884,858,o),
(1016,858,cs),
(1143,858,o),
(1206,639,o),
(1206,500,cs),
(1206,361,o),
(1143,142,o),
(1016,142,cs),
(945,142,l),
(945,0,l),
(1016,0,ls),
(1231,0,o),
(1350,273,o),
(1350,500,cs),
(1350,731,o),
(1229,1000,o),
(1016,1000,cs),
(892,1000,o),
(813,950,o),
(749,854,c),
(688,941,o),
(608,1000,o),
(483,1000,cs),
(269,1000,o),
(150,734,o),
(150,500,cs),
(150,269,o),
(268,0,o),
(483,0,cs)
);
}
);
width = 1500;
},
{
anchors = (
{
name = am;
pos = (756,1010);
},
{
name = bottom;
pos = (756,-90);
},
{
name = top;
pos = (756,1000);
}
);
associatedMasterId = m01;
layerId = m003;
shapes = (
{
closed = 1;
nodes = (
(562,0,l),
(562,145,l),
(489,145,ls),
(359,145,o),
(295,371,o),
(295,509,cs),
(295,647,o),
(359,873,o),
(489,873,cs),
(616,873,o),
(702,762,o),
(759,630,c),
(820,758,o),
(888,873,o),
(1022,873,cs),
(1152,873,o),
(1216,651,o),
(1216,509,cs),
(1216,367,o),
(1152,145,o),
(1022,145,cs),
(950,145,l),
(950,0,l),
(1022,0,ls),
(1241,0,o),
(1362,278,o),
(1362,509,cs),
(1362,744,o),
(1239,1018,o),
(1022,1018,cs),
(896,1018,o),
(820,967,o),
(755,869,c),
(693,958,o),
(616,1018,o),
(489,1018,cs),
(271,1018,o),
(150,747,o),
(150,509,cs),
(150,274,o),
(270,0,o),
(489,0,cs)
);
}
);
width = 1512;
}
);
note = uni1A3B;
subCategory = Letter;
tags = (
"Letter Base",
Letter1500
);
unicode = 6715;
},
{
color = 9;
glyphname = PhaL;
lastChange = "2024-02-10 14:51:08 +0000";
layers = (
{
anchors = (
{
name = MaiKU;
pos = (1469,-100);
},
{
name = am;
pos = (1099,1010);
},
{
name = bottom;
pos = (1099,-100);
},
{
name = top;
pos = (1099,1000);
}
);
layerId = m01;
shapes = (
{
closed = 1;
nodes = (
(1450,0,l),
(1753,0,o),
(1950,224,o),
(1950,500,cs),
(1950,775,o),
(1753,1000,o),
(1450,1000,cs),
(1144,1000,o),
(946,775,o),
(946,500,c),
(1086,500,l),
(1086,706,o),
(1212,859,o),
(1450,859,cs),
(1686,859,o),
(1808,706,o),
(1808,500,cs),
(1808,292,o),
(1686,140,o),
(1450,140,c)
);
},
{
closed = 1;
nodes = (
(182,188,l),
(269,73,o),
(407,0,o),
(585,0,cs),
(890,0,o),
(1086,224,o),
(1086,500,cs),
(1086,775,o),
(890,1000,o),
(585,1000,cs),
(384,1000,o),
(232,906,o),
(150,764,c),
(251,662,l),
(301,781,o),
(412,859,o),
(585,859,cs),
(821,859,o),
(945,706,o),
(945,500,cs),
(945,292,o),
(821,140,o),
(585,140,cs),
(439,140,o),
(336,195,o),
(279,286,c)
);
},
{
closed = 1;
nodes = (
(1352,0,l),
(1450,0,l),
(1450,140,l),
(1352,140,l)
);
}
);
width = 2100;
},
{
anchors = (
{
name = am;
pos = (1094,1010);
},
{
name = bottom;
pos = (1094,-90);
},
{
name = top;
pos = (1094,1000);
}
);
associatedMasterId = m01;
layerId = m003;
shapes = (
{
closed = 1;
nodes = (
(1464,0,l),
(1773,0,o),
(1973,228,o),
(1973,509,cs),
(1973,789,o),
(1773,1018,o),
(1464,1018,cs),
(1153,1018,o),
(955,789,o),
(955,509,c),
(1098,509,l),
(1098,719,o),
(1222,874,o),
(1464,874,cs),
(1704,874,o),
(1829,719,o),
(1829,509,cs),
(1829,297,o),
(1704,143,o),
(1464,143,c)
);
},
{
closed = 1;
nodes = (
(183,191,l),
(271,74,o),
(411,0,o),
(589,0,cs),
(899,0,o),
(1098,228,o),
(1098,509,cs),
(1098,789,o),
(899,1018,o),
(589,1018,cs),
(387,1018,o),
(233,922,o),
(150,778,c),
(253,674,l),
(304,795,o),
(416,874,o),
(589,874,cs),
(829,874,o),
(954,719,o),
(954,509,cs),
(954,297,o),
(829,143,o),
(589,143,cs),
(443,143,o),
(339,199,o),
(281,291,c)
);
},
{
closed = 1;
nodes = (
(1364,0,l),
(1464,0,l),
(1464,143,l),
(1364,143,l)
);
}
);
width = 2123;
}
);
note = uni1A3D;
subCategory = Letter;
tags = (
"Letter Base",
Letter2100
);
unicode = 6717;
},
{
color = 3;
glyphname = FaL;
lastChange = "2024-02-10 14:51:08 +0000";
layers = (
{
anchors = (
{
name = am;
pos = (772,972);
},
{
name = bottom;
pos = (756,-100);
},
{
name = top;
pos = (772,972);
}
);
layerId = m01;
shapes = (
{
closed = 1;
nodes = (
(291,1374,l),
(290,1467,ls),
(288,1675,o),
(487,1839,o),
(733,1839,cs),
(791,1839,o),
(845,1830,o),
(896,1814,c),
(1036,1908,l),
(944,1955,o),
(842,1980,o),
(733,1980,cs),
(428,1980,o),
(154,1779,o),
(151,1467,cs),
(150,1374,l),
(216,1342,l)
);
},
{
ref = PaL;
},
{
closed = 1;
nodes = (
(365,964,l),
(359,971,o),
(329,997,o),
(323,1007,cs),
(303,1042,o),
(290,1088,o),
(290,1129,cs),
(290,1374,l),
(150,1374,l),
(150,1129,ls),
(150,1064,o),
(171,993,o),
(204,935,c),
(218,906,o),
(256,869,o),
(267,864,c)
);
}
);
width = 1500;
},
{
anchors = (
{
name = am;
pos = (772,972);
},
{
name = bottom;
pos = (756,-90);
},
{
name = top;
pos = (772,972);
}
);
associatedMasterId = m01;
layerId = m003;
shapes = (
{
closed = 1;
nodes = (
(296,1359,l),
(295,1455,ls),
(293,1672,o),
(500,1842,o),
(756,1842,cs),
(817,1842,o),
(873,1833,o),
(925,1816,c),
(1071,1914,l),
(975,1963,o),
(870,1988,o),
(756,1988,cs),
(439,1988,o),
(154,1780,o),
(151,1455,cs),
(150,1359,l),
(218,1325,l)
);
},
{
ref = PaL;
},
{
closed = 1;
nodes = (
(375,968,l),
(369,975,o),
(336,1002,o),
(330,1012,cs),
(309,1049,o),
(295,1098,o),
(295,1139,cs),
(295,1359,l),
(150,1359,l),
(150,1139,ls),
(150,1071,o),
(171,998,o),
(206,939,c),
(221,908,o),
(260,869,o),
(271,864,c)
);
}
);
width = 1512;
}
);
note = uni1A3C;
subCategory = Letter;
tags = (
"Letter Base",
Letter1500
);
unicode = 6716;
},
{
glyphname = Ma;
lastChange = "2024-02-10 14:51:08 +0000";
layers = (
{
anchors = (
{
name = am;
pos = (743,1010);
},
{
name = bottom;
pos = (743,-100);
},
{
name = top;
pos = (743,1000);
}
);
layerId = m01;
shapes = (
{
closed = 1;
nodes = (
(1350,-48,l),
(1299,270,o),
(1158,484,o),
(822,484,cs),
(712,484,o),
(617,439,o),
(570,368,c),
(692,286,l),
(703,305,o),
(749,338,o),
(822,338,cs),
(1082,338,o),
(1175,176,o),
(1204,-68,c)
);
},
{
ref = Ba;
}
);
width = 1500;
},
{
anchors = (
{
name = am;
pos = (758,1010);
},
{
name = bottom;
pos = (758,-90);
},
{
name = top;
pos = (758,1000);
}
);
associatedMasterId = m01;
layerId = m003;
shapes = (
{
closed = 1;
nodes = (
(1366,-48,l),
(1347,71,o),
(1319,166,o),
(1275,242,c),
(1331,326,o),
(1362,424,o),
(1362,531,cs),
(1362,763,o),
(1207,936,o),
(989,1027,c),
(935,892,l),
(1104,823,o),
(1216,682,o),
(1216,531,cs),
(1216,468,o),
(1203,412,o),
(1178,363,c),
(1090,443,o),
(977,484,o),
(837,484,cs),
(727,484,o),
(632,439,o),
(585,368,c),
(707,286,l),
(718,305,o),
(764,338,o),
(837,338,cs),
(944,338,o),
(1024,310,o),
(1088,249,c),
(1008,180,o),
(888,145,o),
(749,145,c),
(756,0,l),
(923,0,o),
(1064,45,o),
(1171,129,c),
(1193,81,o),
(1209,15,o),
(1219,-68,c)
);
},
{
ref = borfront;
}
);
width = 1516;
}
);
note = uni1A3E;
subCategory = Letter;
tags = (
"Letter Base",
Letter1500
);
unicode = 6718;
},
{
color = 9;
glyphname = Nya;
lastChange = "2024-02-10 14:51:08 +0000";
layers = (
{
anchors = (
{
name = MaiKU;
pos = (1460,-100);
},
{
name = am;
pos = (1086,1010);
},
{
name = bottom;
pos = (1080,-100);
},
{
name = top;
pos = (1086,1000);
}
);
layerId = m01;
shapes = (
{
closed = 1;
nodes = (
);
},
{
closed = 1;
nodes = (
(1950,782,o),
(1829,936,o),
(1672,1000,c),
(1609,876,l),
(1772,799,o),
(1810,678,o),
(1810,500,cs),
(1810,285,o),
(1728,140,o),
(1469,140,cs),
(1259,140,o),
(1177,293,o),
(1177,500,cs),
(1177,669,ls),
(1177,817,o),
(1060,949,o),
(961,1000,c),
(890,879,l),
(972,834,o),
(1037,745,o),
(1037,669,cs),
(1037,500,ls),
(1037,293,o),
(925,140,o),
(627,140,cs),
(307,140,o),
(250,468,o),
(315,522,cs),
(395,589,o),
(582,685,o),
(582,801,cs),
(582,882,o),
(518,1000,o),
(339,1000,cs),
(194,1000,l),
(194,860,l),
(228,860,o),
(293,860,o),
(339,860,cs),
(397,860,o),
(442,848,o),
(442,805,cs),
(442,760,o),
(299,686,o),
(207,616,cs),
(69,509,o),
(169,0,o),
(626,0,cs),
(851,0,o),
(1019,84,o),
(1099,212,c),
(1164,84,o),
(1294,0,o),
(1469,0,cs),
(1820,0,o),
(1950,223,o),
(1950,500,cs)
);
}
);
width = 2100;
},
{
anchors = (
{
name = am;
pos = (1000,1010);
},
{
name = bottom;
pos = (1004,-90);
},
{
name = top;
pos = (1000,1000);
}
);
associatedMasterId = m01;
layerId = m003;
shapes = (
{
closed = 1;
nodes = (
(1799,810,o),
(1677,963,o),
(1518,1028,c),
(1446,894,l),
(1601,829,o),
(1654,741,o),
(1654,509,cs),
(1654,299,o),
(1564,144,o),
(1354,144,cs),
(1152,144,o),
(1061,299,o),
(1061,509,cs),
(1061,1018,l),
(917,1018,l),
(917,509,ls),
(917,299,o),
(798,145,o),
(586,145,cs),
(282,145,o),
(269,472,o),
(333,526,cs),
(415,595,o),
(600,693,o),
(600,810,cs),
(600,892,o),
(535,1012,o),
(354,1012,cs),
(207,1012,l),
(207,872,l),
(285,873,o),
(449,892,o),
(449,814,cs),
(449,769,o),
(314,694,o),
(221,623,cs),
(81,515,o),
(132,0,o),
(585,0,cs),
(762,0,o),
(900,85,o),
(981,214,c),
(1047,85,o),
(1177,0,o),
(1354,0,cs),
(1633,0,o),
(1799,229,o),
(1799,509,cs)
);
}
);
width = 1949;
}
);
note = uni1A3F;
subCategory = Letter;
tags = (
"Letter Base",
Letter2100
);
unicode = 6719;
},
{
category = Letter;
color = 5;
glyphname = Ya;
lastChange = "2024-01-23 17:45:28 +0000";
layers = (
{
anchors = (
{
name = am;
pos = (789,1010);
},
{
name = bottom;
pos = (786,-130);
},
{
name = top;
pos = (676,1010);
},
{
name = top_alt;
pos = (502,1010);
}
);
layerId = m01;
shapes = (
{
closed = 1;
nodes = (
(1276,847,l),
(1350,918,l),
(1350,1676,ls),
(1350,1775,o),
(1403,1840,o),
(1540,1840,c),
(1540,1980,l),
(1337,1980,o),
(1210,1864,o),
(1210,1676,cs),
(1210,918,l)
);
},
{
ref = RataH;
}
);
width = 1590;
},
{
anchors = (
{
name = am;
pos = (775,1010);
},
{
name = bottom;
pos = (772,-90);
},
{
name = top;
pos = (662,1010);
},
{
name = top_alt;
pos = (488,1010);
}
);
associatedMasterId = m01;
layerId = m003;
shapes = (
{
closed = 1;
nodes = (
(563,0,o),
(645,28,o),
(741,111,c),
(815,37,o),
(895,0,o),
(1008,0,cs),
(1192,0,o),
(1347,153,o),
(1347,315,cs),
(1347,1673,ls),
(1347,1776,o),
(1425,1842,o),
(1541,1842,c),
(1541,1988,l),
(1331,1988,o),
(1202,1867,o),
(1202,1673,cs),
(1202,315,ls),
(1202,241,o),
(1117,145,o),
(1008,145,cs),
(854,145,o),
(814,253,o),
(743,387,c),
(648,207,o),
(583,140,o),
(474,145,cs),
(378,145,o),
(281,203,o),
(281,291,cs),
(281,392,o),
(436,464,o),
(529,507,c),
(411,562,o),
(281,639,o),
(281,727,cs),
(281,807,o),
(349,873,o),
(437,873,cs),
(480,873,o),
(517,858,o),
(602,779,c),
(701,884,l),
(591,989,o),
(516,1018,o),
(437,1018,cs),
(267,1018,o),
(135,886,o),
(135,727,cs),
(135,627,o),
(178,556,o),
(246,507,c),
(171,443,o),
(135,370,o),
(135,291,cs),
(135,124,o),
(293,0,o),
(474,0,cs)
);
}
);
width = 1542;
}
);
note = uni1A40;
script = tham;
subCategory = Letter;
tags = (
"Letter Base",
Letter1500
);
unicode = 6720;
},
{
color = 9;
glyphname = Ra;
lastChange = "2024-01-23 17:58:50 +0000";
layers = (
{
anchors = (
{
name = am;
pos = (756,1010);
},
{
name = bottom;
pos = (757,-100);
},
{
name = top;
pos = (756,1000);
}
);
layerId = m01;
shapes = (
{
closed = 1;
nodes = (
(1490,214,l),
(1324,560,o),
(910,1000,o),
(610,1000,cs),
(431,1000,o),
(240,885,o),
(192,727,c),
(364,594,o),
(766,296,o),
(744,218,cs),
(728,159,o),
(619,137,o),
(510,139,cs),
(395,141,o),
(285,167,o),
(292,241,cs),
(293,253,o),
(311,303,o),
(362,382,c),
(222,418,l),
(155,326,o),
(152,231,o),
(151,224,cs),
(137,79,o),
(322,1,o),
(511,-1,cs),
(682,-3,o),
(852,56,o),
(888,186,cs),
(936,363,o),
(527,641,o),
(372,766,c),
(396,828,o),
(506,860,o),
(613,860,cs),
(836,860,o),
(1220,460,o),
(1364,154,c)
);
}
);
width = 1600;
},
{
anchors = (
{
name = am;
pos = (790,1010);
},
{
name = bottom;
pos = (791,-90);
},
{
name = top;
pos = (790,1000);
}
);
associatedMasterId = m01;
layerId = m003;
shapes = (
{
closed = 1;
nodes = (
(1489,220,l),
(1319,575,o),
(930,1026,o),
(622,1026,cs),
(438,1026,o),
(242,908,o),
(193,746,c),
(366,607,o),
(777,328,o),
(758,224,cs),
(747,162,o),
(631,144,o),
(519,146,cs),
(402,148,o),
(288,171,o),
(295,247,cs),
(296,260,o),
(279,264,o),
(366,392,c),
(224,429,l),
(155,335,o),
(157,294,o),
(151,230,cs),
(137,81,o),
(327,1,o),
(521,-1,cs),
(696,-3,o),
(874,58,o),
(907,191,cs),
(957,394,o),
(531,663,o),
(372,779,c),
(397,843,o),
(515,882,o),
(625,882,cs),
(865,882,o),
(1202,471,o),
(1358,157,c)
);
}
);
width = 1599;
}
);
note = uni1A41;
subCategory = Letter;
tags = (
"Letter Base",
Letter1600
);
unicode = 6721;
},
{
glyphname = Rue;
lastChange = "2024-02-10 14:51:08 +0000";
layers = (
{
anchors = (
{
name = am;
pos = (766,1010);
},
{
name = bottom;
pos = (718,-817);
},
{
name = top;
pos = (766,1000);
}
);
layerId = m01;
shapes = (
{
closed = 1;
nodes = (
(1087,-855,o),
(1350,-765,o),
(1350,-431,cs),
(1350,670,ls),
(1350,852,o),
(1201,1000,o),
(1010,1000,cs),
(878,1000,o),
(801,899,o),
(750,826,c),
(688,900,o),
(595,1000,o),
(490,1000,cs),
(297,1000,o),
(150,851,o),
(150,670,cs),
(150,557,o),
(204,457,o),
(358,357,c),
(434,474,l),
(322,549,o),
(290,606,o),
(290,670,cs),
(290,774,o),
(377,860,o),
(490,860,cs),
(619,860,o),
(702,699,o),
(752,613,c),
(814,720,o),
(885,860,o),
(1010,860,cs),
(1123,860,o),
(1210,774,o),
(1210,670,cs),
(1210,-416,ls),
(1210,-683,o),
(1014,-709,o),
(703,-709,cs),
(485,-709,o),
(292,-640,o),
(292,-496,cs),
(292,-362,o),
(485,-270,o),
(703,-270,cs),
(920,-270,o),
(1076,-332,o),
(1214,-507,c),
(1292,-402,l),
(1176,-220,o),
(909,-130,o),
(703,-130,cs),
(450,-130,o),
(150,-246,o),
(150,-496,cs),
(150,-745,o),
(459,-850,o),
(670,-850,cs)
);
},
{
closed = 1;
nodes = (
(1184,-921,l),
(1194,-595,o),
(1014,-407,o),
(707,-407,cs),
(609,-407,o),
(516,-454,o),
(470,-512,c),
(571,-569,l),
(633,-521,o),
(659,-525,o),
(724,-525,cs),
(965,-525,o),
(1062,-695,o),
(1062,-921,c)
);
}
);
width = 1500;
},
{
anchors = (
{
name = am;
pos = (756,1010);
},
{
name = bottom;
pos = (708,-767);
},
{
name = top;
pos = (756,1000);
}
);
associatedMasterId = m01;
layerId = m003;
shapes = (
{
closed = 1;
nodes = (
(1101,-812,o),
(1362,-719,o),
(1362,-377,cs),
(1362,680,ls),
(1362,867,o),
(1208,1018,o),
(1022,1018,cs),
(887,1018,o),
(808,914,o),
(756,839,c),
(692,915,o),
(596,1018,o),
(489,1018,cs),
(300,1018,o),
(150,866,o),
(150,680,cs),
(150,564,o),
(206,461,o),
(363,358,c),
(443,479,l),
(328,556,o),
(295,613,o),
(295,680,cs),
(295,786,o),
(383,873,o),
(489,873,cs),
(621,873,o),
(706,709,o),
(758,621,c),
(821,730,o),
(894,873,o),
(1022,873,cs),
(1128,873,o),
(1216,786,o),
(1216,680,cs),
(1216,-361,ls),
(1216,-636,o),
(1026,-662,o),
(707,-662,cs),
(483,-662,o),
(295,-591,o),
(295,-444,cs),
(295,-307,o),
(483,-226,o),
(707,-226,cs),
(930,-226,o),
(1080,-275,o),
(1221,-455,c),
(1302,-347,l),
(1183,-160,o),
(919,-81,o),
(707,-81,cs),
(448,-81,o),
(150,-187,o),
(150,-444,cs),
(150,-699,o),
(457,-807,o),
(674,-807,cs)
);
},
{
closed = 1;
nodes = (
(1201,-880,l),
(1201,-545,o),
(1026,-352,o),
(711,-352,cs),
(610,-352,o),
(515,-400,o),
(468,-460,c),
(572,-519,l),
(636,-469,o),
(662,-473,o),
(728,-473,cs),
(976,-473,o),
(1076,-648,o),
(1076,-880,c)
);
}
);
width = 1512;
}
);
note = uni1A42;
subCategory = Letter;
tags = (
"Letter Base",
Letter1500
);
unicode = 6722;
},
{
color = 9;
glyphname = La;
lastChange = "2024-02-10 14:51:08 +0000";
layers = (
{
anchors = (
{
name = MaiKU;
pos = (1488,-100);
},
{
name = am;
pos = (1143,1010);
},
{
name = bottom;
pos = (1143,-100);
},
{
name = top;
pos = (1143,1000);
}
);
layerId = m01;
shapes = (
{
closed = 1;
nodes = (
(1700,860,o),
(1808,708,o),
(1808,500,cs),
(1808,294,o),
(1700,141,o),
(1464,141,cs),
(1246,141,o),
(1147,296,o),
(1120,500,cs),
(1080,795,o),
(940,1000,o),
(634,1000,cs),
(331,1000,o),
(150,775,o),
(150,500,cs),
(150,224,o),
(331,0,o),
(634,0,c),
(634,140,l),
(399,140,o),
(291,292,o),
(291,500,cs),
(291,706,o),
(399,859,o),
(634,859,cs),
(852,859,o),
(952,704,o),
(979,500,cs),
(1018,205,o),
(1159,0,o),
(1464,0,cs),
(1768,0,o),
(1950,225,o),
(1950,500,cs),
(1950,776,o),
(1768,1000,o),
(1464,1000,c),
(1464,860,l)
);
},
{
closed = 1;
nodes = (
(1381,860,l),
(1464,860,l),
(1464,1000,l),
(1381,1000,l)
);
},
{
closed = 1;
nodes = (
(634,0,l),
(718,0,l),
(718,140,l),
(634,140,l)
);
}
);
width = 2100;
},
{
anchors = (
{
name = am;
pos = (1143,1010);
},
{
name = bottom;
pos = (1143,-80);
},
{
name = top;
pos = (1143,1000);
}
);
associatedMasterId = m01;
layerId = m003;
shapes = (
{
closed = 1;
nodes = (
(1728,875,o),
(1838,721,o),
(1838,509,cs),
(1838,299,o),
(1728,144,o),
(1488,144,cs),
(1266,144,o),
(1165,301,o),
(1137,509,cs),
(1097,809,o),
(954,1018,o),
(643,1018,cs),
(334,1018,o),
(150,789,o),
(150,509,cs),
(150,228,o),
(334,0,o),
(643,0,c),
(643,143,l),
(403,143,o),
(294,297,o),
(294,509,cs),
(294,719,o),
(403,874,o),
(643,874,cs),
(865,874,o),
(966,717,o),
(994,509,cs),
(1034,209,o),
(1177,0,o),
(1488,0,cs),
(1797,0,o),
(1982,229,o),
(1982,509,cs),
(1982,790,o),
(1797,1018,o),
(1488,1018,c),
(1488,875,l)
);
},
{
closed = 1;
nodes = (
(1403,875,l),
(1488,875,l),
(1488,1018,l),
(1403,1018,l)
);
},
{
closed = 1;
nodes = (
(643,0,l),
(728,0,l),
(728,143,l),
(643,143,l)
);
}
);
width = 2132;
}
);
note = uni1A43;
subCategory = Letter;
tags = (
"Letter Base",
Letter2100
);
unicode = 6723;
},
{
glyphname = Lue;
lastChange = "2024-02-10 14:51:08 +0000";
layers = (
{
anchors = (
{
name = am;
pos = (768,1010);
},
{
name = bottom;
pos = (718,-881);
},
{
name = top;
pos = (768,1000);
}
);
layerId = m01;
shapes = (
{
closed = 1;
nodes = (
(1203,-556,o),
(1035,-709,o),
(703,-709,cs),
(476,-709,o),
(291,-611,o),
(291,-497,cs),
(291,-384,o),
(476,-286,o),
(703,-286,cs),
(932,-286,o),
(1060,-401,o),
(1196,-546,c),
(1284,-438,l),
(1156,-288,o),
(901,-144,o),
(703,-144,cs),
(448,-144,o),
(150,-264,o),
(150,-497,cs),
(150,-730,o),
(446,-850,o),
(703,-850,cs),
(1034,-850,o),
(1350,-718,o),
(1350,-404,cs),
(1350,-50,o),
(1085,187,o),
(703,187,cs),
(536,187,o),
(400,158,o),
(315,134,c),
(386,255,o),
(536,341,o),
(750,341,cs),
(1058,341,o),
(1350,413,o),
(1350,711,cs),
(1350,874,o),
(1200,1000,o),
(1018,1000,cs),
(920,1000,o),
(796,914,o),
(750,861,c),
(648,944,o),
(567,1000,o),
(481,1000,cs),
(303,1000,o),
(150,878,o),
(150,711,cs),
(150,613,o),
(206,517,o),
(366,430,c),
(434,554,l),
(320,615,o),
(291,663,o),
(291,711,cs),
(291,794,o),
(380,859,o),
(481,859,cs),
(608,859,o),
(689,763,o),
(750,652,c),
(814,770,o),
(906,859,o),
(1018,859,cs),
(1120,859,o),
(1209,794,o),
(1209,711,cs),
(1209,505,o),
(966,482,o),
(750,482,cs),
(445,482,o),
(150,310,o),
(150,23,cs),
(150,-95,l),
(375,26,o),
(476,46,o),
(703,46,cs),
(971,46,o),
(1203,-139,o),
(1203,-376,cs)
);
},
{
closed = 1;
nodes = (
(1144,-921,l),
(1154,-595,o),
(974,-407,o),
(667,-407,cs),
(569,-407,o),
(476,-454,o),
(430,-512,c),
(531,-569,l),
(593,-521,o),
(619,-525,o),
(684,-525,cs),
(925,-525,o),
(1022,-695,o),
(1022,-921,c)
);
}
);
width = 1500;
},
{
anchors = (
{
name = am;
pos = (756,1010);
},
{
name = bottom;
pos = (706,-831);
},
{
name = top;
pos = (756,1000);
}
);
associatedMasterId = m01;
layerId = m003;
shapes = (
{
closed = 1;
nodes = (
(662,-169,o),
(442,-452,c),
(558,-521,l),
(684,-353,o),
(1024,-579,o),
(1024,-858,c),
(1170,-858,l),
(1170,-425,o)
);
},
{
closed = 1;
nodes = (
(1040,-664,o),
(707,-664,cs),
(483,-664,o),
(295,-563,o),
(295,-446,cs),
(295,-329,o),
(483,-228,o),
(707,-228,cs),
(933,-228,o),
(1063,-346,o),
(1203,-496,c),
(1294,-385,l),
(1162,-230,o),
(911,-82,o),
(707,-82,cs),
(455,-82,o),
(150,-206,o),
(150,-446,cs),
(150,-686,o),
(453,-810,o),
(707,-810,cs),
(1039,-807,o),
(1362,-673,o),
(1362,-349,cs),
(1362,14,o),
(1090,232,o),
(707,232,cs),
(546,232,o),
(423,207,o),
(335,183,c),
(425,307,o),
(595,339,o),
(756,339,cs),
(1063,339,o),
(1362,413,o),
(1362,720,cs),
(1362,888,o),
(1207,1018,o),
(1022,1018,cs),
(920,1018,o),
(803,929,o),
(756,875,c),
(661,960,o),
(577,1018,o),
(489,1018,cs),
(308,1018,o),
(150,892,o),
(150,720,cs),
(150,619,o),
(208,520,o),
(371,431,c),
(441,559,l),
(325,621,o),
(295,671,o),
(295,720,cs),
(295,805,o),
(385,873,o),
(489,873,cs),
(621,873,o),
(693,774,o),
(756,660,c),
(821,781,o),
(906,873,o),
(1022,873,cs),
(1126,873,o),
(1216,805,o),
(1216,720,cs),
(1216,508,o),
(968,485,o),
(756,485,cs),
(452,485,o),
(150,359,o),
(150,63,cs),
(150,-58,l),
(382,67,o),
(484,87,o),
(707,87,cs),
(973,87,o),
(1210,-77,o),
(1210,-321,cs),
(1210,-506,o)
);
}
);
width = 1512;
}
);
note = uni1A44;
subCategory = Letter;
tags = (
"Letter Base",
Letter1500
);
unicode = 6724;
},
{
glyphname = Wa;
lastChange = "2024-02-10 14:51:08 +0000";
layers = (
{
anchors = (
{
name = am;
pos = (710,1000);
},
{
name = bottom;
pos = (710,-100);
},
{
name = top;
pos = (710,1000);
}
);
layerId = m01;
shapes = (
{
closed = 1;
nodes = (
(1011,0,o),
(1250,209,o),
(1250,500,cs),
(1250,791,o),
(1011,1000,o),
(699,1000,cs),
(386,1000,o),
(150,789,o),
(150,500,cs),
(150,209,o),
(389,0,o),
(699,0,cs)
);
},
{
closed = 1;
nodes = (
(466,140,o),
(290,289,o),
(290,500,cs),
(290,710,o),
(464,860,o),
(699,860,cs),
(936,860,o),
(1110,710,o),
(1110,500,cs),
(1110,289,o),
(936,140,o),
(699,140,cs)
);
}
);
width = 1400;
},
{
anchors = (
{
name = am;
pos = (708,1000);
},
{
name = bottom;
pos = (708,-90);
},
{
name = top;
pos = (708,1000);
}
);
associatedMasterId = m01;
layerId = m003;
shapes = (
{
closed = 1;
nodes = (
(1024,0,o),
(1265,213,o),
(1265,509,cs),
(1265,805,o),
(1024,1018,o),
(707,1018,cs),
(388,1018,o),
(150,803,o),
(150,509,cs),
(150,213,o),
(391,0,o),
(707,0,cs)
);
},
{
closed = 1;
nodes = (
(470,145,o),
(295,298,o),
(295,509,cs),
(295,720,o),
(470,873,o),
(707,873,cs),
(948,873,o),
(1120,718,o),
(1120,509,cs),
(1120,300,o),
(948,145,o),
(707,145,cs)
);
}
);
width = 1415;
}
);
note = uni1A45;
subCategory = Letter;
tags = (
"Letter Base",
Letter1400
);
unicode = 6725;
},
{
glyphname = Saalaa;
lastChange = "2024-02-10 14:51:08 +0000";
layers = (
{
anchors = (
{
name = am;
pos = (804,1010);
},
{
name = bottom;
pos = (805,-100);
},
{
name = top;
pos = (805,1000);
}
);
layerId = m01;
shapes = (
{
alignment = -1;
ref = KaL;
},
{
closed = 1;
nodes = (
(834,325,o),
(1470,642,o),
(1470,1180,c),
(1330,1180,l),
(1330,766,o),
(850,534,o),
(748,718,c),
(595,644,l)
);
}
);
width = 1620;
},
{
anchors = (
{
name = am;
pos = (804,1010);
},
{
name = bottom;
pos = (805,-90);
},
{
name = top;
pos = (805,1000);
}
);
associatedMasterId = m01;
layerId = m003;
shapes = (
{
closed = 1;
nodes = (
(798,325,o),
(1459,654,o),
(1459,1212,c),
(1314,1212,l),
(1314,782,o),
(815,542,o),
(709,733,c),
(585,656,l)
);
},
{
ref = KaL;
}
);
width = 1609;
}
);
note = uni1A46;
subCategory = Letter;
tags = (
"Letter Base",
Letter1600
);
unicode = 6726;
},
{
color = 9;
glyphname = SaRasi;
lastChange = "2024-02-10 14:51:08 +0000";
layers = (
{
anchors = (
{
name = MaiKU;
pos = (1439,-100);
},
{
name = am;
pos = (1060,1010);
},
{
name = bottom;
pos = (1066,-100);
},
{
name = top;
pos = (1060,1000);
}
);
layerId = m01;
shapes = (
{
closed = 1;
nodes = (
(1468,677,o),
(1313,339,c),
(1443,279,l),
(1554,471,o),
(1728,157,o),
(1756,-83,c),
(1900,-69,l),
(1854,397,o)
);
},
{
pos = (-25,0);
ref = SaH;
}
);
width = 2075;
},
{
anchors = (
{
name = am;
pos = (1085,1010);
},
{
name = bottom;
pos = (1091,-90);
},
{
name = top;
pos = (1085,1000);
}
);
associatedMasterId = m01;
layerId = m003;
shapes = (
{
closed = 1;
nodes = (
(1493,677,o),
(1338,339,c),
(1468,279,l),
(1579,471,o),
(1753,157,o),
(1781,-83,c),
(1925,-69,l),
(1879,397,o)
);
},
{
ref = SaH;
}
);
width = 2123;
}
);
note = uni1A47;
subCategory = Letter;
tags = (
"Letter Base",
Letter2100
);
unicode = 6727;
},
{
color = 9;
glyphname = SaH;
lastChange = "2024-02-10 14:51:08 +0000";
layers = (
{
anchors = (
{
name = MaiKU;
pos = (1469,-100);
},
{
name = am;
pos = (1099,1010);
},
{
name = bottom;
pos = (1099,-100);
},
{
name = top;
pos = (1099,1000);
}
);
layerId = m01;
shapes = (
{
closed = 1;
nodes = (
(1686,860,o),
(1808,708,o),
(1808,500,cs),
(1808,294,o),
(1686,141,o),
(1450,141,cs),
(1212,141,o),
(1086,294,o),
(1086,500,c),
(946,500,l),
(946,225,o),
(1144,0,o),
(1450,0,cs),
(1753,0,o),
(1950,225,o),
(1950,500,cs),
(1950,776,o),
(1753,1000,o),
(1450,1000,cs),
(1352,1000,l),
(1352,860,l),
(1450,860,ls)
);
},
{
closed = 1;
nodes = (
(182,188,l),
(269,73,o),
(406,0,o),
(581,0,cs),
(886,0,o),
(1086,224,o),
(1086,500,cs),
(1086,775,o),
(886,1000,o),
(581,1000,cs),
(383,1000,o),
(232,906,o),
(150,764,c),
(251,662,l),
(301,781,o),
(411,859,o),
(581,859,cs),
(817,859,o),
(945,706,o),
(945,500,cs),
(945,292,o),
(817,140,o),
(581,140,cs),
(438,140,o),
(336,195,o),
(279,286,c)
);
}
);
width = 2100;
},
{
anchors = (
{
name = am;
pos = (1094,1010);
},
{
name = bottom;
pos = (1094,-90);
},
{
name = top;
pos = (1094,1000);
}
);
associatedMasterId = m01;
layerId = m003;
shapes = (
{
closed = 1;
nodes = (
(1704,875,o),
(1829,721,o),
(1829,509,cs),
(1829,299,o),
(1704,144,o),
(1464,144,cs),
(1222,144,o),
(1098,299,o),
(1098,509,c),
(955,509,l),
(955,229,o),
(1153,0,o),
(1464,0,cs),
(1773,0,o),
(1973,229,o),
(1973,509,cs),
(1973,790,o),
(1773,1018,o),
(1464,1018,cs),
(1364,1018,l),
(1364,875,l),
(1464,875,ls)
);
},
{
closed = 1;
nodes = (
(183,191,l),
(271,74,o),
(411,0,o),
(589,0,cs),
(899,0,o),
(1098,228,o),
(1098,509,cs),
(1098,789,o),
(899,1018,o),
(589,1018,cs),
(387,1018,o),
(233,922,o),
(150,778,c),
(253,674,l),
(304,795,o),
(416,874,o),
(589,874,cs),
(829,874,o),
(954,719,o),
(954,509,cs),
(954,297,o),
(829,143,o),
(589,143,cs),
(443,143,o),
(339,199,o),
(281,291,c)
);
}
);
width = 2123;
}
);
note = uni1A48;
subCategory = Letter;
tags = (
"Letter Base",
Letter2100
);
unicode = 6728;
},
{
color = 8;
glyphname = LLa;
lastChange = "2024-02-10 14:51:08 +0000";
layers = (
{
anchors = (
{
name = am;
pos = (756,1010);
},
{
name = bottom;
pos = (756,-881);
},
{
name = top;
pos = (756,1000);
}
);
layerId = m01;
shapes = (
{
closed = 1;
nodes = (
(987,-850,o),
(1268,-755,o),
(1268,-548,cs),
(1268,-341,o),
(1005,-245,o),
(798,-245,cs),
(693,-245,o),
(585,-277,o),
(509,-336,cs),
(454,-379,l),
(539,-490,l),
(593,-448,ls),
(652,-405,o),
(719,-385,o),
(798,-385,cs),
(984,-385,o),
(1129,-458,o),
(1129,-548,cs),
(1129,-654,o),
(901,-710,o),
(780,-710,cs),
(552,-710,o),
(338,-622,o),
(338,-408,cs),
(338,-50,ls),
(338,-5,o),
(348,26,o),
(376,33,c),
(246,106,l),
(215,68,o),
(198,18,o),
(198,-41,cs),
(198,-408,ls),
(198,-707,o),
(480,-850,o),
(780,-850,cs)
);
},
{
ref = Nga;
}
);
width = 1500;
},
{
anchors = (
{
name = am;
pos = (756,1010);
},
{
name = bottom;
pos = (756,-831);
},
{
name = top;
pos = (756,1000);
}
);
associatedMasterId = m01;
layerId = m003;
shapes = (
{
closed = 1;
nodes = (
(1020,-795,o),
(1313,-696,o),
(1313,-480,cs),
(1313,-265,o),
(1039,-164,o),
(824,-164,cs),
(714,-164,o),
(601,-198,o),
(522,-259,cs),
(464,-304,l),
(553,-419,l),
(610,-376,ls),
(671,-331,o),
(741,-310,o),
(824,-310,cs),
(1017,-310,o),
(1168,-387,o),
(1168,-480,cs),
(1168,-591,o),
(925,-649,o),
(804,-649,cs),
(567,-649,o),
(344,-557,o),
(344,-334,cs),
(344,-71,ls),
(344,-24,o),
(354,9,o),
(383,16,c),
(248,92,l),
(215,52,o),
(198,1,o),
(198,-61,cs),
(198,-334,ls),
(198,-646,o),
(492,-795,o),
(804,-795,cs)
);
},
{
ref = Nga;
}
);
width = 1512;
}
);
note = uni1A4A;
subCategory = Letter;
tags = (
"Letter Base",
Letter1500
);
unicode = 6730;
},
{
glyphname = TuaA;
lastChange = "2024-01-23 17:58:50 +0000";
layers = (
{
anchors = (
{
name = MaiKU;
pos = (1208,-100);
},
{
name = am;
pos = (875,1010);
},
{
name = bottom;
pos = (875,-100);
},
{
name = top;
pos = (875,1000);
}
);
layerId = m01;
shapes = (
{
closed = 1;
nodes = (
(1460,373,o),
(1462,140,o),
(1209,140,cs),
(1093,140,o),
(1011,168,o),
(1011,242,cs),
(1011,325,o),
(1127,353,o),
(1206,353,cs),
(1410,353,o),
(1489,80,o),
(1489,0,c),
(1630,0,l),
(1630,123,o),
(1515,493,o),
(1206,493,cs),
(1017,493,o),
(871,392,o),
(871,242,cs),
(871,82,o),
(1002,1,o),
(1211,0,cs),
(1523,-1,o),
(1600,263,o),
(1600,546,cs),
(1600,827,o),
(1492,1000,o),
(1217,1000,cs),
(982,1000,o),
(871,860,o),
(860,753,c),
(992,710,l),
(1006,809,o),
(1090,860,o),
(1217,860,cs),
(1396,860,o),
(1460,763,o),
(1460,546,cs)
);
},
{
closed = 1;
nodes = (
(540,0,ls),
(651,0,o),
(716,4,o),
(822,123,c),
(733,230,l),
(635,129,o),
(620,140,o),
(539,140,cs),
(450,140,ls),
(296,140,o),
(290,195,o),
(290,276,cs),
(290,384,o),
(455,450,o),
(552,497,c),
(416,564,o),
(290,640,o),
(290,724,cs),
(290,805,o),
(300,860,o),
(450,860,cs),
(539,860,ls),
(620,860,o),
(635,871,o),
(733,770,c),
(822,877,l),
(716,996,o),
(650,1000,o),
(539,1000,cs),
(446,1000,ls),
(257,1000,o),
(150,919,o),
(150,724,cs),
(150,628,o),
(247,552,o),
(313,500,c),
(247,448,o),
(150,372,o),
(150,276,cs),
(150,118,o),
(221,0,o),
(450,0,cs)
);
}
);
width = 1750;
},
{
anchors = (
{
name = am;
pos = (810,1010);
},
{
name = bottom;
pos = (821,-90);
},
{
name = top;
pos = (810,1000);
}
);
associatedMasterId = m01;
layerId = m003;
shapes = (
{
closed = 1;
nodes = (
(1499,0,l),
(1482,77,o),
(1464,184,o),
(1425,257,c),
(1461,345,o),
(1492,449,o),
(1492,558,cs),
(1492,803,o),
(1361,1018,o),
(1124,1018,cs),
(952,1018,o),
(802,895,o),
(802,728,cs),
(802,656,l),
(947,656,l),
(947,728,ls),
(947,799,o),
(1027,873,o),
(1124,873,cs),
(1251,873,o),
(1346,758,o),
(1346,558,cs),
(1346,501,o),
(1331,448,o),
(1319,400,c),
(1252,463,o),
(1157,494,o),
(1073,494,cs),
(924,494,o),
(802,388,o),
(802,249,cs),
(802,108,o),
(898,2,o),
(1076,2,cs),
(1168,2,o),
(1263,33,o),
(1331,110,c),
(1343,65,l),
(1355,0,l)
);
},
{
closed = 1;
nodes = (
(588,0,o),
(669,-8,o),
(773,92,c),
(738,237,l),
(632,151,o),
(609,142,o),
(476,145,cs),
(364,148,o),
(295,199,o),
(295,281,cs),
(295,391,o),
(460,458,o),
(559,506,c),
(421,574,o),
(295,651,o),
(295,737,cs),
(295,819,o),
(364,873,o),
(476,873,cs),
(591,873,o),
(649,859,o),
(734,790,c),
(780,926,l),
(707,1010,o),
(575,1018,o),
(476,1018,cs),
(283,1018,o),
(150,898,o),
(150,737,cs),
(150,639,o),
(239,562,o),
(306,509,c),
(239,456,o),
(150,379,o),
(150,281,cs),
(150,120,o),
(283,0,o),
(476,0,cs)
);
},
{
closed = 1;
nodes = (
(978,147,o),
(947,199,o),
(947,249,cs),
(947,306,o),
(1017,348,o),
(1073,348,cs),
(1134,348,o),
(1209,315,o),
(1257,250,c),
(1214,183,o),
(1140,147,o),
(1076,147,cs)
);
}
);
width = 1649;
}
);
note = uni1A4B;
subCategory = Letter;
tags = (
"Letter Base",
Letter1800
);
unicode = 6731;
},
{
color = 9;
glyphname = HaL;
lastChange = "2024-02-10 14:51:08 +0000";
layers = (
{
anchors = (
{
name = am;
pos = (1102,1010);
},
{
name = bottom;
pos = (1063,-896);
},
{
name = top;
pos = (1100,1000);
}
);
layerId = m01;
shapes = (
{
closed = 1;
nodes = (
(1540,140,l),
(1369,140,l),
(1369,0,l),
(1424,0,l),
(1461,-3,ls),
(1487,-5,o),
(1531,-32,o),
(1531,-69,cs),
(1531,-409,ls),
(1531,-622,o),
(1313,-710,o),
(1089,-710,cs),
(972,-710,o),
(740,-654,o),
(740,-548,cs),
(740,-459,o),
(884,-384,o),
(1070,-384,cs),
(1141,-384,o),
(1222,-405,o),
(1331,-489,c),
(1416,-378,l),
(1287,-277,o),
(1169,-244,o),
(1070,-244,cs),
(864,-244,o),
(601,-343,o),
(601,-548,cs),
(601,-753,o),
(876,-850,o),
(1089,-850,cs),
(1392,-850,o),
(1671,-704,o),
(1671,-409,cs),
(1671,-69,ls),
(1671,-23,o),
(1650,20,o),
(1599,71,c)
);
},
{
ref = HaH;
}
);
width = 2100;
},
{
anchors = (
{
name = am;
pos = (1100,1010);
},
{
name = bottom;
pos = (1063,-846);
},
{
name = top;
pos = (1100,1000);
}
);
associatedMasterId = m01;
layerId = m003;
shapes = (
{
closed = 1;
nodes = (
(1534,143,l),
(1356,143,l),
(1356,1,l),
(1414,1,l),
(1452,-2,ls),
(1479,-4,o),
(1525,-33,o),
(1525,-71,cs),
(1525,-340,ls),
(1525,-563,o),
(1298,-655,o),
(1065,-655,cs),
(944,-655,o),
(701,-597,o),
(701,-486,cs),
(701,-393,o),
(852,-316,o),
(1045,-316,cs),
(1119,-316,o),
(1203,-337,o),
(1316,-425,c),
(1405,-310,l),
(1271,-204,o),
(1148,-170,o),
(1045,-170,cs),
(830,-170,o),
(556,-273,o),
(556,-486,cs),
(556,-700,o),
(843,-801,o),
(1065,-801,cs),
(1381,-801,o),
(1671,-648,o),
(1671,-340,cs),
(1671,-71,ls),
(1671,-23,o),
(1650,21,o),
(1596,75,c)
);
},
{
ref = HaH;
}
);
width = 2132;
}
);
note = uni1A4C;
subCategory = Letter;
tags = (
"Letter Base",
Letter2100
);
unicode = 6732;
},
{
color = 9;
glyphname = Lae;
lastChange = "2024-02-07 15:13:54 +0000";
layers = (
{
anchors = (
{
name = am;
pos = (1527,1010);
},
{
name = bottom;
pos = (1104,-100);
},
{
name = top;
pos = (1524,1100);
}
);
layerId = m01;
shapes = (
{
closed = 1;
nodes = (
(1950,495,l),
(1950,1178,l),
(1251,1178,ls),
(1056,1178,o),
(898,1325,o),
(898,1508,cs),
(898,1692,o),
(1056,1838,o),
(1251,1838,cs),
(1733,1838,l),
(1860,1980,l),
(1251,1980,ls),
(977,1980,o),
(756,1770,o),
(756,1508,cs),
(756,1247,o),
(977,1036,o),
(1251,1036,cs),
(1810,1036,l),
(1810,495,l),
(1873,445,l)
);
},
{
closed = 1;
nodes = (
(1810,495,l),
(1810,291,o),
(1708,140,o),
(1475,140,cs),
(1239,140,o),
(1118,291,o),
(1118,495,c),
(979,495,l),
(979,223,o),
(1171,0,o),
(1475,0,cs),
(1756,0,o),
(1950,223,o),
(1950,495,c)
);
},
{
closed = 1;
nodes = (
(412,140,o),
(290,289,o),
(290,495,cs),
(290,700,o),
(402,851,o),
(635,851,cs),
(871,851,o),
(979,700,o),
(979,495,c),
(1118,495,l),
(1118,768,o),
(939,991,o),
(635,991,cs),
(335,991,o),
(150,768,o),
(150,495,cs),
(150,222,o),
(345,0,o),
(645,0,c),
(645,140,l)
);
},
{
closed = 1;
nodes = (
(645,0,l),
(743,0,l),
(743,140,l),
(645,140,l)
);
}
);
width = 2100;
},
{
anchors = (
{
name = am;
pos = (1550,1010);
},
{
name = bottom;
pos = (1127,-80);
},
{
name = top;
pos = (1547,1100);
}
);
associatedMasterId = m01;
layerId = m003;
shapes = (
{
closed = 1;
nodes = (
(2043,509,l),
(2043,1164,l),
(1050,1164,ls),
(849,1164,o),
(686,1315,o),
(686,1503,cs),
(686,1691,o),
(849,1842,o),
(1050,1842,cs),
(1800,1842,l),
(1930,1988,l),
(1050,1988,ls),
(768,1988,o),
(541,1772,o),
(541,1503,cs),
(541,1234,o),
(768,1018,o),
(1050,1018,cs),
(1899,1018,l),
(1899,509,l),
(1964,456,l)
);
},
{
closed = 1;
nodes = (
(1899,509,l),
(1899,299,o),
(1774,144,o),
(1534,144,cs),
(1292,144,o),
(1168,299,o),
(1168,509,c),
(1025,509,l),
(1025,229,o),
(1223,0,o),
(1534,0,cs),
(1843,0,o),
(2043,229,o),
(2043,509,c)
);
},
{
closed = 1;
nodes = (
(419,143,o),
(294,297,o),
(294,509,cs),
(294,719,o),
(419,874,o),
(659,874,cs),
(901,874,o),
(1025,719,o),
(1025,509,c),
(1168,509,l),
(1168,789,o),
(970,1018,o),
(659,1018,cs),
(350,1018,o),
(150,789,o),
(150,509,cs),
(150,228,o),
(350,0,o),
(659,0,c),
(659,143,l)
);
},
{
closed = 1;
nodes = (
(659,0,l),
(759,0,l),
(759,143,l),
(659,143,l)
);
}
);
width = 2193;
}
);
note = uni1A53;
subCategory = Letter;
tags = (
"Letter Base"
);
unicode = 6739;
},
{
color = 9;
glyphname = SSa;
lastChange = "2024-01-23 17:58:50 +0000";
layers = (
{
anchors = (
{
name = MaiKU;
pos = (2338,-100);
},
{
name = am;
pos = (1900,1010);
},
{
name = bottom;
pos = (1902,-100);
},
{
name = top;
pos = (1899,1000);
}
);
layerId = m01;
shapes = (
{
closed = 1;
nodes = (
(2546,860,o),
(2669,708,o),
(2669,500,cs),
(2669,294,o),
(2546,141,o),
(2310,141,cs),
(2072,141,o),
(1950,294,o),
(1950,500,c),
(1810,500,l),
(1810,225,o),
(2004,0,o),
(2310,0,cs),
(2614,0,o),
(2810,225,o),
(2810,500,cs),
(2810,776,o),
(2614,1000,o),
(2310,1000,c),
(2310,860,l)
);
},
{
closed = 1;
nodes = (
(2212,860,l),
(2310,860,l),
(2310,1000,l),
(2212,1000,l)
);
},
{
ref = SaH;
}
);
width = 2960;
},
{
anchors = (
{
name = am;
pos = (1900,1010);
},
{
name = bottom;
pos = (1902,-90);
},
{
name = top;
pos = (1899,1000);
}
);
associatedMasterId = m01;
layerId = m003;
shapes = (
{
closed = 1;
nodes = (
(1704,875,o),
(1829,721,o),
(1829,509,cs),
(1829,299,o),
(1704,144,o),
(1464,144,cs),
(1222,144,o),
(1098,299,o),
(1098,509,c),
(955,509,l),
(955,229,o),
(1153,0,o),
(1464,0,cs),
(1773,0,o),
(1973,229,o),
(1973,509,cs),
(1973,790,o),
(1773,1018,o),
(1464,1018,c),
(1464,875,l)
);
},
{
closed = 1;
nodes = (
(183,191,l),
(271,74,o),
(411,0,o),
(589,0,cs),
(899,0,o),
(1098,228,o),
(1098,509,cs),
(1098,789,o),
(899,1018,o),
(589,1018,cs),
(387,1018,o),
(233,922,o),
(150,778,c),
(253,674,l),
(304,795,o),
(416,874,o),
(589,874,cs),
(829,874,o),
(954,719,o),
(954,509,cs),
(954,297,o),
(829,143,o),
(589,143,cs),
(443,143,o),
(339,199,o),
(281,291,c)
);
},
{
closed = 1;
nodes = (
(2579,875,o),
(2704,721,o),
(2704,509,cs),
(2704,299,o),
(2579,144,o),
(2339,144,cs),
(2097,144,o),
(1973,299,o),
(1973,509,c),
(1830,509,l),
(1830,229,o),
(2028,0,o),
(2339,0,cs),
(2648,0,o),
(2848,229,o),
(2848,509,cs),
(2848,790,o),
(2648,1018,o),
(2339,1018,c),
(2339,875,l)
);
},
{
closed = 1;
nodes = (
(1364,875,l),
(1464,875,l),
(1464,1018,l),
(1364,1018,l)
);
},
{
closed = 1;
nodes = (
(2239,875,l),
(2339,875,l),
(2339,1018,l),
(2239,1018,l)
);
}
);
width = 2998;
}
);
note = uni1A54;
subCategory = Letter;
tags = (
"Letter Base"
);
unicode = 6740;
},
{
glyphname = Rawong;
lastChange = "2024-02-08 16:18:26 +0000";
layers = (
{
layerId = m01;
shapes = (
{
closed = 1;
nodes = (
(409,-161,o),
(340,-77,o),
(340,15,cs),
(340,1272,ls),
(340,1533,o),
(471,1840,o),
(737,1840,cs),
(890,1840,l),
(949,1979,l),
(737,1980,ls),
(408,1982,o),
(200,1628,o),
(200,1272,cs),
(200,15,ls),
(200,-153,o),
(325,-301,o),
(516,-301,cs),
(670,-301,o),
(768,-210,o),
(812,-91,c),
(681,-39,l),
(657,-107,o),
(606,-161,o),
(516,-161,cs)
);
}
);
width = 699;
},
{
associatedMasterId = m01;
layerId = m003;
shapes = (
{
closed = 1;
nodes = (
(346,91,l),
(346,1348,ls),
(346,1619,o),
(486,1838,o),
(758,1841,cs),
(846,1842,l),
(956,1990,l),
(758,1991,ls),
(416,1993,o),
(200,1718,o),
(200,1348,cs),
(200,91,l),
(271,27,l)
);
},
{
closed = 1;
nodes = (
(417,-159,o),
(346,-73,o),
(346,22,cs),
(346,92,l),
(200,92,l),
(200,22,ls),
(200,-151,o),
(330,-305,o),
(528,-305,cs),
(687,-305,o),
(789,-211,o),
(836,-87,c),
(700,-34,l),
(673,-104,o),
(621,-159,o),
(528,-159,cs)
);
}
);
width = 656;
}
);
note = uni1A55;
subCategory = Letter;
unicode = 6741;
},
{
color = 4;
glyphname = LaNoi;
lastChange = "2024-01-27 20:49:41 +0000";
layers = (
{
anchors = (
{
name = _bottom;
pos = (-689,-100);
},
{
name = bottom;
pos = (-526,-794);
}
);
layerId = m01;
shapes = (
{
closed = 1;
nodes = (
(-861,-850,l),
(-861,-723,l),
(-956,-723,ls),
(-1056,-723,o),
(-1156,-591,o),
(-1156,-491,cs),
(-1156,-365,o),
(-1050,-257,o),
(-945,-257,cs),
(-817,-257,o),
(-758,-394,o),
(-748,-491,cs),
(-726,-700,o),
(-623,-850,o),
(-436,-850,cs),
(-251,-850,o),
(-96,-686,o),
(-96,-491,cs),
(-96,-280,o),
(-253,-130,o),
(-436,-130,cs),
(-521,-130,l),
(-521,-257,l),
(-436,-257,ls),
(-321,-257,o),
(-223,-385,o),
(-223,-491,cs),
(-223,-598,o),
(-321,-723,o),
(-436,-723,cs),
(-556,-723,o),
(-611,-597,o),
(-621,-491,cs),
(-640,-283,o),
(-757,-130,o),
(-945,-130,cs),
(-1130,-130,o),
(-1283,-280,o),
(-1283,-491,cs),
(-1283,-686,o),
(-1131,-850,o),
(-945,-850,cs)
);
}
);
width = 0;
},
{
anchors = (
{
name = _bottom;
pos = (-689,-59);
},
{
name = bottom;
pos = (-684,-785);
}
);
associatedMasterId = m01;
layerId = m003;
shapes = (
{
closed = 1;
nodes = (
(-861,-800,l),
(-861,-673,l),
(-956,-673,ls),
(-1056,-673,o),
(-1156,-547,o),
(-1156,-447,cs),
(-1156,-321,o),
(-1050,-219,o),
(-945,-219,cs),
(-817,-219,o),
(-758,-350,o),
(-748,-447,cs),
(-726,-656,o),
(-623,-800,o),
(-436,-800,cs),
(-251,-800,o),
(-96,-642,o),
(-96,-447,cs),
(-96,-248,o),
(-253,-92,o),
(-436,-92,cs),
(-521,-92,l),
(-521,-219,l),
(-436,-219,ls),
(-321,-219,o),
(-223,-341,o),
(-223,-447,cs),
(-223,-554,o),
(-321,-673,o),
(-436,-673,cs),
(-556,-673,o),
(-611,-553,o),
(-621,-447,cs),
(-640,-251,o),
(-757,-92,o),
(-945,-92,cs),
(-1130,-92,o),
(-1283,-248,o),
(-1283,-447,cs),
(-1283,-642,o),
(-1131,-800,o),
(-945,-800,cs)
);
}
);
width = 0;
}
);
note = uni1A56;
subCategory = Nonspacing;
unicode = 6742;
},
{
color = 8;
glyphname = LaTangLai;
lastChange = "2024-01-28 14:45:33 +0000";
layers = (
{
anchors = (
{
name = top;
pos = (-593,1010);
},
{
name = top_rahaam;
pos = (50,1010);
}
);
layerId = m01;
shapes = (
{
ref = La.blw;
},
{
closed = 1;
nodes = (
(470,-641,o),
(344,-379,o),
(96,-379,cs),
(16,-379,o),
(-61,-424,o),
(-95,-487,c),
(28,-555,l),
(35,-544,o),
(59,-519,o),
(96,-519,cs),
(266,-519,o),
(331,-718,o),
(331,-893,c),
(470,-893,l)
);
}
);
width = 570;
},
{
anchors = (
{
name = "*top";
pos = (-93,1000);
},
{
name = top;
pos = (-693,1010);
},
{
name = top_rahaam;
pos = (-50,1010);
}
);
associatedMasterId = m01;
layerId = m003;
shapes = (
{
closed = 1;
nodes = (
(335,-329,o),
(78,-329,cs),
(-5,-329,o),
(-86,-376,o),
(-121,-442,c),
(7,-512,l),
(14,-500,o),
(39,-474,o),
(78,-474,cs),
(253,-474,o),
(321,-681,o),
(321,-862,c),
(466,-862,l),
(466,-601,o)
);
},
{
ref = La.blw;
}
);
width = 546;
}
);
note = uni1A57;
subCategory = Letter;
tags = (
postbase
);
unicode = 6743;
},
{
color = 9;
glyphname = MaiKangLai;
lastChange = "2024-02-10 14:24:38 +0000";
layers = (
{
anchors = (
{
name = _MaiKangLai;
pos = (-289,909);
},
{
name = _top;
pos = (-303,909);
},
{
name = _top_2;
pos = (-349,2011);
}
);
layerId = m01;
shapes = (
{
closed = 1;
nodes = (
(-452,1100,o),
(-440,1129,o),
(-381,1195,cs),
(-347,1232,o),
(-320,1254,o),
(-288,1246,cs),
(-266,1240,o),
(-237,1216,o),
(-237,1164,cs),
(-237,1100,l),
(-124,1100,l),
(-124,1146,o),
(-124,1112,o),
(-124,1189,cs),
(-124,1276,o),
(-210,1363,o),
(-292,1363,cs),
(-373,1363,o),
(-425,1325,o),
(-460,1281,cs),
(-474,1263,o),
(-499,1226,o),
(-524,1226,cs),
(-558,1226,o),
(-592,1278,o),
(-592,1345,cs),
(-592,1412,o),
(-548,1451,o),
(-508,1460,cs),
(-312,1503,o),
(-198,1474,o),
(-99,1460,cs),
(52,1438,o),
(130,1479,o),
(185,1587,cs),
(214,1643,l),
(102,1700,l),
(74,1643,ls),
(53,1602,o),
(18,1565,o),
(-81,1582,cs),
(-116,1588,l),
(-100,1697,o),
(-177,1763,o),
(-253,1763,cs),
(-346,1763,o),
(-407,1685,o),
(-389,1588,c),
(-508,1588,ls),
(-631,1588,o),
(-718,1476,o),
(-718,1345,cs),
(-718,1224,o),
(-645,1100,o),
(-524,1100,cs)
);
},
{
closed = 1;
nodes = (
(-286,1578,o),
(-309,1605,o),
(-309,1636,cs),
(-309,1669,o),
(-286,1694,o),
(-253,1694,cs),
(-222,1694,o),
(-199,1669,o),
(-199,1636,cs),
(-199,1605,o),
(-222,1578,o),
(-253,1578,cs)
);
}
);
width = 0;
},
{
anchors = (
{
name = _top;
pos = (407,929);
}
);
associatedMasterId = m01;
layerId = "B993F7AA-1F8E-4972-962E-87B24E0E8640";
name = "7 Aug 21, 06:37";
shapes = (
{
closed = 1;
nodes = (
(396,1253,o),
(396,1241,qs),
(396,1230,o),
(380,1214,o),
(367,1214,qs),
(292,1214,l),
(318,1239,o),
(356,1268,o),
(367,1268,qs),
(380,1268,o)
);
},
{
closed = 1;
nodes = (
(753,1639,ls),
(746,1625,o),
(729,1605,o),
(693,1591,o),
(631,1584,o),
(580,1584,qs),
(563,1584,l),
(565,1598,o),
(565,1609,o),
(565,1617,qs),
(565,1646,o),
(543,1698,o),
(505,1737,o),
(454,1759,o),
(426,1759,qs),
(397,1759,o),
(346,1737,o),
(308,1698,o),
(286,1646,o),
(286,1617,qs),
(286,1614,o),
(288,1595,o),
(290,1584,q),
(131,1584,ls),
(86,1584,o),
(8,1545,o),
(-23,1509,qs),
(-51,1474,o),
(-79,1387,o),
(-79,1341,qs),
(-79,1296,o),
(-52,1208,o),
(-29,1174,q),
(0,1138,o),
(74,1096,o),
(115,1096,qs),
(140,1096,o),
(184,1112,o),
(223,1138,o),
(258,1173,o),
(273,1191,q),
(273,1096,l),
(337,1096,ls),
(367,1096,o),
(420,1118,o),
(460,1156,o),
(483,1208,o),
(483,1237,qs),
(483,1266,o),
(460,1318,o),
(420,1357,o),
(367,1379,o),
(337,1379,qs),
(307,1379,o),
(259,1359,o),
(222,1329,o),
(192,1293,o),
(179,1277,qs),
(156,1248,o),
(130,1222,o),
(115,1222,qs),
(103,1222,o),
(79,1239,o),
(59,1271,o),
(47,1315,o),
(47,1341,qs),
(47,1391,o),
(95,1456,o),
(131,1456,qs),
(580,1456,ls),
(636,1456,o),
(723,1465,o),
(792,1493,o),
(843,1542,o),
(864,1583,qs),
(893,1639,l),
(781,1696,l)
);
},
{
closed = 1;
nodes = (
(480,1642,o),
(480,1617,qs),
(480,1594,o),
(449,1559,o),
(426,1559,qs),
(401,1559,o),
(370,1594,o),
(370,1617,qs),
(370,1642,o),
(401,1675,o),
(426,1675,qs),
(449,1675,o)
);
}
);
userData = {
assembly = "SVTCA[0]	/* SetFreedomAndProjectionVectorToAxis */
PUSHW[ ]	/* 1 value pushed */
16 
MDAP[1]	/* MoveDirectAbsPt */
PUSHW[ ]	/* 1 value pushed */
87 
MDAP[1]	/* MoveDirectAbsPt */
PUSHW[ ]	/* 1 value pushed */
33 
MDAP[1]	/* MoveDirectAbsPt */
PUSHW[ ]	/* 1 value pushed */
0 
RCVT[ ]	/* ReadCVT */
IF[ ]	/* If */
PUSHW[ ]	/* 1 value pushed */
86 
MDAP[1]	/* MoveDirectAbsPt */
ELSE[ ]	/* Else */
PUSHW[ ]	/* 2 values pushed */
86 31 
MIAP[0]	/* MoveIndirectAbsPt */
EIF[ ]	/* EndIf */
PUSHW[ ]	/* 1 value pushed */
0 
RCVT[ ]	/* ReadCVT */
IF[ ]	/* If */
PUSHW[ ]	/* 1 value pushed */
50 
MDAP[1]	/* MoveDirectAbsPt */
ELSE[ ]	/* Else */
PUSHW[ ]	/* 2 values pushed */
50 25 
MIAP[0]	/* MoveIndirectAbsPt */
EIF[ ]	/* EndIf */
NPUSHW[ ]	/* 3 values pushed */
31 16 1 
DELTAP2[ ]	/* DeltaExceptionP2 */
NPUSHW[ ]	/* 3 values pushed */
127 16 1 
DELTAP1[ ]	/* DeltaExceptionP1 */
PUSHW[ ]	/* 1 value pushed */
33 
SRP0[ ]	/* SetRefPoint0 */
PUSHW[ ]	/* 2 values pushed */
17 2 
MIRP[10100]	/* MoveIndirectRelPt */
PUSHW[ ]	/* 1 value pushed */
50 
SRP0[ ]	/* SetRefPoint0 */
PUSHW[ ]	/* 2 values pushed */
25 3 
MIRP[10100]	/* MoveIndirectRelPt */
PUSHW[ ]	/* 1 value pushed */
17 
SRP0[ ]	/* SetRefPoint0 */
PUSHW[ ]	/* 2 values pushed */
62 3 
MIRP[10100]	/* MoveIndirectRelPt */
PUSHW[ ]	/* 1 value pushed */
87 
SRP0[ ]	/* SetRefPoint0 */
PUSHW[ ]	/* 2 values pushed */
71 2 
MIRP[10100]	/* MoveIndirectRelPt */
PUSHW[ ]	/* 1 value pushed */
16 
SRP0[ ]	/* SetRefPoint0 */
PUSHW[ ]	/* 2 values pushed */
80 3 
MIRP[10100]	/* MoveIndirectRelPt */
IUP[0]	/* InterpolateUntPts */
IUP[1]	/* InterpolateUntPts */";
};
width = 0;
},
{
anchors = (
{
name = _top;
pos = (407,929);
}
);
associatedMasterId = m01;
layerId = "AEE27112-A6F4-4A13-A2F1-ABA1848942AF";
name = "7 Aug 21, 06:37";
shapes = (
{
closed = 1;
nodes = (
(396,1253,o),
(396,1241,qs),
(396,1230,o),
(380,1214,o),
(367,1214,qs),
(292,1214,l),
(318,1239,o),
(356,1268,o),
(367,1268,qs),
(380,1268,o)
);
},
{
closed = 1;
nodes = (
(753,1639,ls),
(746,1625,o),
(729,1605,o),
(693,1591,o),
(631,1584,o),
(580,1584,qs),
(563,1584,l),
(565,1598,o),
(565,1609,o),
(565,1617,qs),
(565,1646,o),
(543,1698,o),
(505,1737,o),
(454,1759,o),
(426,1759,qs),
(397,1759,o),
(346,1737,o),
(308,1698,o),
(286,1646,o),
(286,1617,qs),
(286,1614,o),
(288,1595,o),
(290,1584,q),
(131,1584,ls),
(86,1584,o),
(8,1545,o),
(-23,1509,qs),
(-51,1474,o),
(-79,1387,o),
(-79,1341,qs),
(-79,1296,o),
(-52,1208,o),
(-29,1174,q),
(0,1138,o),
(74,1096,o),
(115,1096,qs),
(140,1096,o),
(184,1112,o),
(223,1138,o),
(258,1173,o),
(273,1191,q),
(273,1096,l),
(337,1096,ls),
(367,1096,o),
(420,1118,o),
(460,1156,o),
(483,1208,o),
(483,1237,qs),
(483,1266,o),
(460,1318,o),
(420,1357,o),
(367,1379,o),
(337,1379,qs),
(307,1379,o),
(259,1359,o),
(222,1329,o),
(192,1293,o),
(179,1277,qs),
(156,1248,o),
(130,1222,o),
(115,1222,qs),
(103,1222,o),
(79,1239,o),
(59,1271,o),
(47,1315,o),
(47,1341,qs),
(47,1391,o),
(95,1456,o),
(131,1456,qs),
(580,1456,ls),
(636,1456,o),
(723,1465,o),
(792,1493,o),
(843,1542,o),
(864,1583,qs),
(893,1639,l),
(781,1696,l)
);
},
{
closed = 1;
nodes = (
(480,1642,o),
(480,1617,qs),
(480,1594,o),
(449,1559,o),
(426,1559,qs),
(401,1559,o),
(370,1594,o),
(370,1617,qs),
(370,1642,o),
(401,1675,o),
(426,1675,qs),
(449,1675,o)
);
}
);
userData = {
assembly = "SVTCA[0]	/* SetFreedomAndProjectionVectorToAxis */
PUSHW[ ]	/* 1 value pushed */
16 
MDAP[1]	/* MoveDirectAbsPt */
PUSHW[ ]	/* 1 value pushed */
87 
MDAP[1]	/* MoveDirectAbsPt */
PUSHW[ ]	/* 1 value pushed */
33 
MDAP[1]	/* MoveDirectAbsPt */
PUSHW[ ]	/* 1 value pushed */
0 
RCVT[ ]	/* ReadCVT */
IF[ ]	/* If */
PUSHW[ ]	/* 1 value pushed */
86 
MDAP[1]	/* MoveDirectAbsPt */
ELSE[ ]	/* Else */
PUSHW[ ]	/* 2 values pushed */
86 31 
MIAP[0]	/* MoveIndirectAbsPt */
EIF[ ]	/* EndIf */
PUSHW[ ]	/* 1 value pushed */
0 
RCVT[ ]	/* ReadCVT */
IF[ ]	/* If */
PUSHW[ ]	/* 1 value pushed */
50 
MDAP[1]	/* MoveDirectAbsPt */
ELSE[ ]	/* Else */
PUSHW[ ]	/* 2 values pushed */
50 25 
MIAP[0]	/* MoveIndirectAbsPt */
EIF[ ]	/* EndIf */
NPUSHW[ ]	/* 3 values pushed */
31 16 1 
DELTAP2[ ]	/* DeltaExceptionP2 */
NPUSHW[ ]	/* 3 values pushed */
127 16 1 
DELTAP1[ ]	/* DeltaExceptionP1 */
PUSHW[ ]	/* 1 value pushed */
33 
SRP0[ ]	/* SetRefPoint0 */
PUSHW[ ]	/* 2 values pushed */
17 2 
MIRP[10100]	/* MoveIndirectRelPt */
PUSHW[ ]	/* 1 value pushed */
50 
SRP0[ ]	/* SetRefPoint0 */
PUSHW[ ]	/* 2 values pushed */
25 3 
MIRP[10100]	/* MoveIndirectRelPt */
PUSHW[ ]	/* 1 value pushed */
17 
SRP0[ ]	/* SetRefPoint0 */
PUSHW[ ]	/* 2 values pushed */
62 3 
MIRP[10100]	/* MoveIndirectRelPt */
PUSHW[ ]	/* 1 value pushed */
87 
SRP0[ ]	/* SetRefPoint0 */
PUSHW[ ]	/* 2 values pushed */
71 2 
MIRP[10100]	/* MoveIndirectRelPt */
PUSHW[ ]	/* 1 value pushed */
16 
SRP0[ ]	/* SetRefPoint0 */
PUSHW[ ]	/* 2 values pushed */
80 3 
MIRP[10100]	/* MoveIndirectRelPt */
IUP[0]	/* InterpolateUntPts */
IUP[1]	/* InterpolateUntPts */";
};
width = 0;
},
{
anchors = (
{
name = _top;
pos = (407,929);
}
);
associatedMasterId = m01;
layerId = "106250E1-9725-4D92-AD4E-757AD107BDC6";
name = "7 Aug 21, 06:37";
shapes = (
{
closed = 1;
nodes = (
(396,1253,o),
(396,1241,qs),
(396,1230,o),
(380,1214,o),
(367,1214,qs),
(292,1214,l),
(318,1239,o),
(356,1268,o),
(367,1268,qs),
(380,1268,o)
);
},
{
closed = 1;
nodes = (
(753,1639,ls),
(746,1625,o),
(729,1605,o),
(693,1591,o),
(631,1584,o),
(580,1584,qs),
(563,1584,l),
(565,1598,o),
(565,1609,o),
(565,1617,qs),
(565,1646,o),
(543,1698,o),
(505,1737,o),
(454,1759,o),
(426,1759,qs),
(397,1759,o),
(346,1737,o),
(308,1698,o),
(286,1646,o),
(286,1617,qs),
(286,1614,o),
(288,1595,o),
(290,1584,q),
(131,1584,ls),
(86,1584,o),
(8,1545,o),
(-23,1509,qs),
(-51,1474,o),
(-79,1387,o),
(-79,1341,qs),
(-79,1296,o),
(-52,1208,o),
(-29,1174,q),
(0,1138,o),
(74,1096,o),
(115,1096,qs),
(140,1096,o),
(184,1112,o),
(223,1138,o),
(258,1173,o),
(273,1191,q),
(273,1096,l),
(337,1096,ls),
(367,1096,o),
(420,1118,o),
(460,1156,o),
(483,1208,o),
(483,1237,qs),
(483,1266,o),
(460,1318,o),
(420,1357,o),
(367,1379,o),
(337,1379,qs),
(307,1379,o),
(259,1359,o),
(222,1329,o),
(192,1293,o),
(179,1277,qs),
(156,1248,o),
(130,1222,o),
(115,1222,qs),
(103,1222,o),
(79,1239,o),
(59,1271,o),
(47,1315,o),
(47,1341,qs),
(47,1391,o),
(95,1456,o),
(131,1456,qs),
(580,1456,ls),
(636,1456,o),
(723,1465,o),
(792,1493,o),
(843,1542,o),
(864,1583,qs),
(893,1639,l),
(781,1696,l)
);
},
{
closed = 1;
nodes = (
(480,1642,o),
(480,1617,qs),
(480,1594,o),
(449,1559,o),
(426,1559,qs),
(401,1559,o),
(370,1594,o),
(370,1617,qs),
(370,1642,o),
(401,1675,o),
(426,1675,qs),
(449,1675,o)
);
}
);
userData = {
assembly = "SVTCA[0]	/* SetFreedomAndProjectionVectorToAxis */
PUSHW[ ]	/* 1 value pushed */
16 
MDAP[1]	/* MoveDirectAbsPt */
PUSHW[ ]	/* 1 value pushed */
87 
MDAP[1]	/* MoveDirectAbsPt */
PUSHW[ ]	/* 1 value pushed */
33 
MDAP[1]	/* MoveDirectAbsPt */
PUSHW[ ]	/* 1 value pushed */
0 
RCVT[ ]	/* ReadCVT */
IF[ ]	/* If */
PUSHW[ ]	/* 1 value pushed */
86 
MDAP[1]	/* MoveDirectAbsPt */
ELSE[ ]	/* Else */
PUSHW[ ]	/* 2 values pushed */
86 31 
MIAP[0]	/* MoveIndirectAbsPt */
EIF[ ]	/* EndIf */
PUSHW[ ]	/* 1 value pushed */
0 
RCVT[ ]	/* ReadCVT */
IF[ ]	/* If */
PUSHW[ ]	/* 1 value pushed */
50 
MDAP[1]	/* MoveDirectAbsPt */
ELSE[ ]	/* Else */
PUSHW[ ]	/* 2 values pushed */
50 25 
MIAP[0]	/* MoveIndirectAbsPt */
EIF[ ]	/* EndIf */
NPUSHW[ ]	/* 3 values pushed */
31 16 1 
DELTAP2[ ]	/* DeltaExceptionP2 */
NPUSHW[ ]	/* 3 values pushed */
127 16 1 
DELTAP1[ ]	/* DeltaExceptionP1 */
PUSHW[ ]	/* 1 value pushed */
33 
SRP0[ ]	/* SetRefPoint0 */
PUSHW[ ]	/* 2 values pushed */
17 2 
MIRP[10100]	/* MoveIndirectRelPt */
PUSHW[ ]	/* 1 value pushed */
50 
SRP0[ ]	/* SetRefPoint0 */
PUSHW[ ]	/* 2 values pushed */
25 3 
MIRP[10100]	/* MoveIndirectRelPt */
PUSHW[ ]	/* 1 value pushed */
17 
SRP0[ ]	/* SetRefPoint0 */
PUSHW[ ]	/* 2 values pushed */
62 3 
MIRP[10100]	/* MoveIndirectRelPt */
PUSHW[ ]	/* 1 value pushed */
87 
SRP0[ ]	/* SetRefPoint0 */
PUSHW[ ]	/* 2 values pushed */
71 2 
MIRP[10100]	/* MoveIndirectRelPt */
PUSHW[ ]	/* 1 value pushed */
16 
SRP0[ ]	/* SetRefPoint0 */
PUSHW[ ]	/* 2 values pushed */
80 3 
MIRP[10100]	/* MoveIndirectRelPt */
IUP[0]	/* InterpolateUntPts */
IUP[1]	/* InterpolateUntPts */";
};
width = 0;
},
{
anchors = (
{
name = _top;
pos = (407,929);
}
);
associatedMasterId = m01;
layerId = "C6AD0AAD-BC54-4244-BC60-6026ABCA6D4E";
name = "7 Aug 21, 06:38";
shapes = (
{
closed = 1;
nodes = (
(396,1253,o),
(396,1241,qs),
(396,1230,o),
(380,1214,o),
(367,1214,qs),
(292,1214,l),
(318,1239,o),
(356,1268,o),
(367,1268,qs),
(380,1268,o)
);
},
{
closed = 1;
nodes = (
(753,1639,ls),
(746,1625,o),
(729,1605,o),
(693,1591,o),
(631,1584,o),
(580,1584,qs),
(563,1584,l),
(565,1598,o),
(565,1609,o),
(565,1617,qs),
(565,1646,o),
(543,1698,o),
(505,1737,o),
(454,1759,o),
(426,1759,qs),
(397,1759,o),
(346,1737,o),
(308,1698,o),
(286,1646,o),
(286,1617,qs),
(286,1614,o),
(288,1595,o),
(290,1584,q),
(131,1584,ls),
(86,1584,o),
(8,1545,o),
(-23,1509,qs),
(-51,1474,o),
(-79,1387,o),
(-79,1341,qs),
(-79,1296,o),
(-52,1208,o),
(-29,1174,q),
(0,1138,o),
(74,1096,o),
(115,1096,qs),
(140,1096,o),
(184,1112,o),
(223,1138,o),
(258,1173,o),
(273,1191,q),
(273,1096,l),
(337,1096,ls),
(367,1096,o),
(420,1118,o),
(460,1156,o),
(483,1208,o),
(483,1237,qs),
(483,1266,o),
(460,1318,o),
(420,1357,o),
(367,1379,o),
(337,1379,qs),
(307,1379,o),
(259,1359,o),
(222,1329,o),
(192,1293,o),
(179,1277,qs),
(156,1248,o),
(130,1222,o),
(115,1222,qs),
(103,1222,o),
(79,1239,o),
(59,1271,o),
(47,1315,o),
(47,1341,qs),
(47,1391,o),
(95,1456,o),
(131,1456,qs),
(580,1456,ls),
(636,1456,o),
(723,1465,o),
(792,1493,o),
(843,1542,o),
(864,1583,qs),
(893,1639,l),
(781,1696,l)
);
},
{
closed = 1;
nodes = (
(480,1642,o),
(480,1617,qs),
(480,1594,o),
(449,1559,o),
(426,1559,qs),
(401,1559,o),
(370,1594,o),
(370,1617,qs),
(370,1642,o),
(401,1675,o),
(426,1675,qs),
(449,1675,o)
);
}
);
userData = {
assembly = "SVTCA[0]	/* SetFreedomAndProjectionVectorToAxis */
PUSHW[ ]	/* 1 value pushed */
16 
MDAP[1]	/* MoveDirectAbsPt */
PUSHW[ ]	/* 1 value pushed */
87 
MDAP[1]	/* MoveDirectAbsPt */
PUSHW[ ]	/* 1 value pushed */
33 
MDAP[1]	/* MoveDirectAbsPt */
PUSHW[ ]	/* 1 value pushed */
0 
RCVT[ ]	/* ReadCVT */
IF[ ]	/* If */
PUSHW[ ]	/* 1 value pushed */
86 
MDAP[1]	/* MoveDirectAbsPt */
ELSE[ ]	/* Else */
PUSHW[ ]	/* 2 values pushed */
86 31 
MIAP[0]	/* MoveIndirectAbsPt */
EIF[ ]	/* EndIf */
PUSHW[ ]	/* 1 value pushed */
0 
RCVT[ ]	/* ReadCVT */
IF[ ]	/* If */
PUSHW[ ]	/* 1 value pushed */
50 
MDAP[1]	/* MoveDirectAbsPt */
ELSE[ ]	/* Else */
PUSHW[ ]	/* 2 values pushed */
50 25 
MIAP[0]	/* MoveIndirectAbsPt */
EIF[ ]	/* EndIf */
NPUSHW[ ]	/* 3 values pushed */
31 16 1 
DELTAP2[ ]	/* DeltaExceptionP2 */
NPUSHW[ ]	/* 3 values pushed */
127 16 1 
DELTAP1[ ]	/* DeltaExceptionP1 */
PUSHW[ ]	/* 1 value pushed */
33 
SRP0[ ]	/* SetRefPoint0 */
PUSHW[ ]	/* 2 values pushed */
17 2 
MIRP[10100]	/* MoveIndirectRelPt */
PUSHW[ ]	/* 1 value pushed */
50 
SRP0[ ]	/* SetRefPoint0 */
PUSHW[ ]	/* 2 values pushed */
25 3 
MIRP[10100]	/* MoveIndirectRelPt */
PUSHW[ ]	/* 1 value pushed */
17 
SRP0[ ]	/* SetRefPoint0 */
PUSHW[ ]	/* 2 values pushed */
62 3 
MIRP[10100]	/* MoveIndirectRelPt */
PUSHW[ ]	/* 1 value pushed */
87 
SRP0[ ]	/* SetRefPoint0 */
PUSHW[ ]	/* 2 values pushed */
71 2 
MIRP[10100]	/* MoveIndirectRelPt */
PUSHW[ ]	/* 1 value pushed */
16 
SRP0[ ]	/* SetRefPoint0 */
PUSHW[ ]	/* 2 values pushed */
80 3 
MIRP[10100]	/* MoveIndirectRelPt */
IUP[0]	/* InterpolateUntPts */
IUP[1]	/* InterpolateUntPts */";
};
width = 0;
},
{
anchors = (
{
name = _top;
pos = (-953,929);
},
{
name = _top_2;
pos = (-999,2011);
}
);
associatedMasterId = m01;
layerId = m003;
shapes = (
{
closed = 1;
nodes = (
(-552,1100,o),
(-509,1147,o),
(-451,1216,cs),
(-416,1251,o),
(-388,1272,o),
(-372,1272,cs),
(-355,1272,o),
(-343,1261,o),
(-343,1245,cs),
(-343,1230,o),
(-366,1202,o),
(-383,1202,cs),
(-436,1202,l),
(-436,1100,l),
(-402,1100,ls),
(-321,1100,o),
(-256,1164,o),
(-256,1241,cs),
(-256,1318,o),
(-320,1383,o),
(-402,1383,cs),
(-483,1383,o),
(-525,1325,o),
(-560,1281,cs),
(-574,1263,o),
(-599,1226,o),
(-624,1226,cs),
(-658,1226,o),
(-692,1278,o),
(-692,1345,cs),
(-692,1412,o),
(-656,1460,o),
(-608,1460,cs),
(-159,1460,ls),
(-9,1460,o),
(70,1479,o),
(125,1587,cs),
(154,1643,l),
(42,1700,l),
(14,1643,ls),
(-7,1602,o),
(-35,1588,o),
(-159,1588,cs),
(-176,1588,l),
(-160,1697,o),
(-237,1763,o),
(-313,1763,cs),
(-406,1763,o),
(-467,1685,o),
(-449,1588,c),
(-608,1588,ls),
(-731,1588,o),
(-818,1476,o),
(-818,1345,cs),
(-818,1224,o),
(-745,1100,o),
(-624,1100,cs)
);
},
{
closed = 1;
nodes = (
(-346,1563,o),
(-369,1590,o),
(-369,1621,cs),
(-369,1654,o),
(-346,1679,o),
(-313,1679,cs),
(-282,1679,o),
(-259,1654,o),
(-259,1621,cs),
(-259,1590,o),
(-282,1563,o),
(-313,1563,cs)
);
}
);
width = 0;
},
{
anchors = (
{
name = _top;
pos = (407,929);
}
);
associatedMasterId = m01;
layerId = "4A9207A3-450F-44C8-A713-DCF1F6B1B21E";
name = "7 Aug 21, 06:37";
shapes = (
{
closed = 1;
nodes = (
(396,1253,o),
(396,1241,qs),
(396,1230,o),
(380,1214,o),
(367,1214,qs),
(292,1214,l),
(318,1239,o),
(356,1268,o),
(367,1268,qs),
(380,1268,o)
);
},
{
closed = 1;
nodes = (
(753,1639,ls),
(746,1625,o),
(729,1605,o),
(693,1591,o),
(631,1584,o),
(580,1584,qs),
(563,1584,l),
(565,1598,o),
(565,1609,o),
(565,1617,qs),
(565,1646,o),
(543,1698,o),
(505,1737,o),
(454,1759,o),
(426,1759,qs),
(397,1759,o),
(346,1737,o),
(308,1698,o),
(286,1646,o),
(286,1617,qs),
(286,1614,o),
(288,1595,o),
(290,1584,q),
(131,1584,ls),
(86,1584,o),
(8,1545,o),
(-23,1509,qs),
(-51,1474,o),
(-79,1387,o),
(-79,1341,qs),
(-79,1296,o),
(-52,1208,o),
(-29,1174,q),
(0,1138,o),
(74,1096,o),
(115,1096,qs),
(140,1096,o),
(184,1112,o),
(223,1138,o),
(258,1173,o),
(273,1191,q),
(273,1096,l),
(337,1096,ls),
(367,1096,o),
(420,1118,o),
(460,1156,o),
(483,1208,o),
(483,1237,qs),
(483,1266,o),
(460,1318,o),
(420,1357,o),
(367,1379,o),
(337,1379,qs),
(307,1379,o),
(259,1359,o),
(222,1329,o),
(192,1293,o),
(179,1277,qs),
(156,1248,o),
(130,1222,o),
(115,1222,qs),
(103,1222,o),
(79,1239,o),
(59,1271,o),
(47,1315,o),
(47,1341,qs),
(47,1391,o),
(95,1456,o),
(131,1456,qs),
(580,1456,ls),
(636,1456,o),
(723,1465,o),
(792,1493,o),
(843,1542,o),
(864,1583,qs),
(893,1639,l),
(781,1696,l)
);
},
{
closed = 1;
nodes = (
(480,1642,o),
(480,1617,qs),
(480,1594,o),
(449,1559,o),
(426,1559,qs),
(401,1559,o),
(370,1594,o),
(370,1617,qs),
(370,1642,o),
(401,1675,o),
(426,1675,qs),
(449,1675,o)
);
}
);
userData = {
assembly = "SVTCA[0]	/* SetFreedomAndProjectionVectorToAxis */
PUSHW[ ]	/* 1 value pushed */
16 
MDAP[1]	/* MoveDirectAbsPt */
PUSHW[ ]	/* 1 value pushed */
87 
MDAP[1]	/* MoveDirectAbsPt */
PUSHW[ ]	/* 1 value pushed */
33 
MDAP[1]	/* MoveDirectAbsPt */
PUSHW[ ]	/* 1 value pushed */
0 
RCVT[ ]	/* ReadCVT */
IF[ ]	/* If */
PUSHW[ ]	/* 1 value pushed */
86 
MDAP[1]	/* MoveDirectAbsPt */
ELSE[ ]	/* Else */
PUSHW[ ]	/* 2 values pushed */
86 31 
MIAP[0]	/* MoveIndirectAbsPt */
EIF[ ]	/* EndIf */
PUSHW[ ]	/* 1 value pushed */
0 
RCVT[ ]	/* ReadCVT */
IF[ ]	/* If */
PUSHW[ ]	/* 1 value pushed */
50 
MDAP[1]	/* MoveDirectAbsPt */
ELSE[ ]	/* Else */
PUSHW[ ]	/* 2 values pushed */
50 25 
MIAP[0]	/* MoveIndirectAbsPt */
EIF[ ]	/* EndIf */
NPUSHW[ ]	/* 3 values pushed */
31 16 1 
DELTAP2[ ]	/* DeltaExceptionP2 */
NPUSHW[ ]	/* 3 values pushed */
127 16 1 
DELTAP1[ ]	/* DeltaExceptionP1 */
PUSHW[ ]	/* 1 value pushed */
33 
SRP0[ ]	/* SetRefPoint0 */
PUSHW[ ]	/* 2 values pushed */
17 2 
MIRP[10100]	/* MoveIndirectRelPt */
PUSHW[ ]	/* 1 value pushed */
50 
SRP0[ ]	/* SetRefPoint0 */
PUSHW[ ]	/* 2 values pushed */
25 3 
MIRP[10100]	/* MoveIndirectRelPt */
PUSHW[ ]	/* 1 value pushed */
17 
SRP0[ ]	/* SetRefPoint0 */
PUSHW[ ]	/* 2 values pushed */
62 3 
MIRP[10100]	/* MoveIndirectRelPt */
PUSHW[ ]	/* 1 value pushed */
87 
SRP0[ ]	/* SetRefPoint0 */
PUSHW[ ]	/* 2 values pushed */
71 2 
MIRP[10100]	/* MoveIndirectRelPt */
PUSHW[ ]	/* 1 value pushed */
16 
SRP0[ ]	/* SetRefPoint0 */
PUSHW[ ]	/* 2 values pushed */
80 3 
MIRP[10100]	/* MoveIndirectRelPt */
IUP[0]	/* InterpolateUntPts */
IUP[1]	/* InterpolateUntPts */";
};
width = 0;
},
{
anchors = (
{
name = _top;
pos = (407,929);
}
);
associatedMasterId = m01;
layerId = "E4215F88-EC7E-43B0-97B5-D94C72AC5CCB";
name = "7 Aug 21, 06:37";
shapes = (
{
closed = 1;
nodes = (
(396,1253,o),
(396,1241,qs),
(396,1230,o),
(380,1214,o),
(367,1214,qs),
(292,1214,l),
(318,1239,o),
(356,1268,o),
(367,1268,qs),
(380,1268,o)
);
},
{
closed = 1;
nodes = (
(753,1639,ls),
(746,1625,o),
(729,1605,o),
(693,1591,o),
(631,1584,o),
(580,1584,qs),
(563,1584,l),
(565,1598,o),
(565,1609,o),
(565,1617,qs),
(565,1646,o),
(543,1698,o),
(505,1737,o),
(454,1759,o),
(426,1759,qs),
(397,1759,o),
(346,1737,o),
(308,1698,o),
(286,1646,o),
(286,1617,qs),
(286,1614,o),
(288,1595,o),
(290,1584,q),
(131,1584,ls),
(86,1584,o),
(8,1545,o),
(-23,1509,qs),
(-51,1474,o),
(-79,1387,o),
(-79,1341,qs),
(-79,1296,o),
(-52,1208,o),
(-29,1174,q),
(0,1138,o),
(74,1096,o),
(115,1096,qs),
(140,1096,o),
(184,1112,o),
(223,1138,o),
(258,1173,o),
(273,1191,q),
(273,1096,l),
(337,1096,ls),
(367,1096,o),
(420,1118,o),
(460,1156,o),
(483,1208,o),
(483,1237,qs),
(483,1266,o),
(460,1318,o),
(420,1357,o),
(367,1379,o),
(337,1379,qs),
(307,1379,o),
(259,1359,o),
(222,1329,o),
(192,1293,o),
(179,1277,qs),
(156,1248,o),
(130,1222,o),
(115,1222,qs),
(103,1222,o),
(79,1239,o),
(59,1271,o),
(47,1315,o),
(47,1341,qs),
(47,1391,o),
(95,1456,o),
(131,1456,qs),
(580,1456,ls),
(636,1456,o),
(723,1465,o),
(792,1493,o),
(843,1542,o),
(864,1583,qs),
(893,1639,l),
(781,1696,l)
);
},
{
closed = 1;
nodes = (
(480,1642,o),
(480,1617,qs),
(480,1594,o),
(449,1559,o),
(426,1559,qs),
(401,1559,o),
(370,1594,o),
(370,1617,qs),
(370,1642,o),
(401,1675,o),
(426,1675,qs),
(449,1675,o)
);
}
);
userData = {
assembly = "SVTCA[0]	/* SetFreedomAndProjectionVectorToAxis */
PUSHW[ ]	/* 1 value pushed */
16 
MDAP[1]	/* MoveDirectAbsPt */
PUSHW[ ]	/* 1 value pushed */
87 
MDAP[1]	/* MoveDirectAbsPt */
PUSHW[ ]	/* 1 value pushed */
33 
MDAP[1]	/* MoveDirectAbsPt */
PUSHW[ ]	/* 1 value pushed */
0 
RCVT[ ]	/* ReadCVT */
IF[ ]	/* If */
PUSHW[ ]	/* 1 value pushed */
86 
MDAP[1]	/* MoveDirectAbsPt */
ELSE[ ]	/* Else */
PUSHW[ ]	/* 2 values pushed */
86 31 
MIAP[0]	/* MoveIndirectAbsPt */
EIF[ ]	/* EndIf */
PUSHW[ ]	/* 1 value pushed */
0 
RCVT[ ]	/* ReadCVT */
IF[ ]	/* If */
PUSHW[ ]	/* 1 value pushed */
50 
MDAP[1]	/* MoveDirectAbsPt */
ELSE[ ]	/* Else */
PUSHW[ ]	/* 2 values pushed */
50 25 
MIAP[0]	/* MoveIndirectAbsPt */
EIF[ ]	/* EndIf */
NPUSHW[ ]	/* 3 values pushed */
31 16 1 
DELTAP2[ ]	/* DeltaExceptionP2 */
NPUSHW[ ]	/* 3 values pushed */
127 16 1 
DELTAP1[ ]	/* DeltaExceptionP1 */
PUSHW[ ]	/* 1 value pushed */
33 
SRP0[ ]	/* SetRefPoint0 */
PUSHW[ ]	/* 2 values pushed */
17 2 
MIRP[10100]	/* MoveIndirectRelPt */
PUSHW[ ]	/* 1 value pushed */
50 
SRP0[ ]	/* SetRefPoint0 */
PUSHW[ ]	/* 2 values pushed */
25 3 
MIRP[10100]	/* MoveIndirectRelPt */
PUSHW[ ]	/* 1 value pushed */
17 
SRP0[ ]	/* SetRefPoint0 */
PUSHW[ ]	/* 2 values pushed */
62 3 
MIRP[10100]	/* MoveIndirectRelPt */
PUSHW[ ]	/* 1 value pushed */
87 
SRP0[ ]	/* SetRefPoint0 */
PUSHW[ ]	/* 2 values pushed */
71 2 
MIRP[10100]	/* MoveIndirectRelPt */
PUSHW[ ]	/* 1 value pushed */
16 
SRP0[ ]	/* SetRefPoint0 */
PUSHW[ ]	/* 2 values pushed */
80 3 
MIRP[10100]	/* MoveIndirectRelPt */
IUP[0]	/* InterpolateUntPts */
IUP[1]	/* InterpolateUntPts */";
};
width = 0;
},
{
anchors = (
{
name = _top;
pos = (407,929);
}
);
associatedMasterId = m01;
layerId = "A3DB84B6-8C77-48FD-878E-2E995CE48B84";
name = "7 Aug 21, 06:37";
shapes = (
{
closed = 1;
nodes = (
(396,1253,o),
(396,1241,qs),
(396,1230,o),
(380,1214,o),
(367,1214,qs),
(292,1214,l),
(318,1239,o),
(356,1268,o),
(367,1268,qs),
(380,1268,o)
);
},
{
closed = 1;
nodes = (
(753,1639,ls),
(746,1625,o),
(729,1605,o),
(693,1591,o),
(631,1584,o),
(580,1584,qs),
(563,1584,l),
(565,1598,o),
(565,1609,o),
(565,1617,qs),
(565,1646,o),
(543,1698,o),
(505,1737,o),
(454,1759,o),
(426,1759,qs),
(397,1759,o),
(346,1737,o),
(308,1698,o),
(286,1646,o),
(286,1617,qs),
(286,1614,o),
(288,1595,o),
(290,1584,q),
(131,1584,ls),
(86,1584,o),
(8,1545,o),
(-23,1509,qs),
(-51,1474,o),
(-79,1387,o),
(-79,1341,qs),
(-79,1296,o),
(-52,1208,o),
(-29,1174,q),
(0,1138,o),
(74,1096,o),
(115,1096,qs),
(140,1096,o),
(184,1112,o),
(223,1138,o),
(258,1173,o),
(273,1191,q),
(273,1096,l),
(337,1096,ls),
(367,1096,o),
(420,1118,o),
(460,1156,o),
(483,1208,o),
(483,1237,qs),
(483,1266,o),
(460,1318,o),
(420,1357,o),
(367,1379,o),
(337,1379,qs),
(307,1379,o),
(259,1359,o),
(222,1329,o),
(192,1293,o),
(179,1277,qs),
(156,1248,o),
(130,1222,o),
(115,1222,qs),
(103,1222,o),
(79,1239,o),
(59,1271,o),
(47,1315,o),
(47,1341,qs),
(47,1391,o),
(95,1456,o),
(131,1456,qs),
(580,1456,ls),
(636,1456,o),
(723,1465,o),
(792,1493,o),
(843,1542,o),
(864,1583,qs),
(893,1639,l),
(781,1696,l)
);
},
{
closed = 1;
nodes = (
(480,1642,o),
(480,1617,qs),
(480,1594,o),
(449,1559,o),
(426,1559,qs),
(401,1559,o),
(370,1594,o),
(370,1617,qs),
(370,1642,o),
(401,1675,o),
(426,1675,qs),
(449,1675,o)
);
}
);
userData = {
assembly = "SVTCA[0]	/* SetFreedomAndProjectionVectorToAxis */
PUSHW[ ]	/* 1 value pushed */
16 
MDAP[1]	/* MoveDirectAbsPt */
PUSHW[ ]	/* 1 value pushed */
87 
MDAP[1]	/* MoveDirectAbsPt */
PUSHW[ ]	/* 1 value pushed */
33 
MDAP[1]	/* MoveDirectAbsPt */
PUSHW[ ]	/* 1 value pushed */
0 
RCVT[ ]	/* ReadCVT */
IF[ ]	/* If */
PUSHW[ ]	/* 1 value pushed */
86 
MDAP[1]	/* MoveDirectAbsPt */
ELSE[ ]	/* Else */
PUSHW[ ]	/* 2 values pushed */
86 31 
MIAP[0]	/* MoveIndirectAbsPt */
EIF[ ]	/* EndIf */
PUSHW[ ]	/* 1 value pushed */
0 
RCVT[ ]	/* ReadCVT */
IF[ ]	/* If */
PUSHW[ ]	/* 1 value pushed */
50 
MDAP[1]	/* MoveDirectAbsPt */
ELSE[ ]	/* Else */
PUSHW[ ]	/* 2 values pushed */
50 25 
MIAP[0]	/* MoveIndirectAbsPt */
EIF[ ]	/* EndIf */
NPUSHW[ ]	/* 3 values pushed */
31 16 1 
DELTAP2[ ]	/* DeltaExceptionP2 */
NPUSHW[ ]	/* 3 values pushed */
127 16 1 
DELTAP1[ ]	/* DeltaExceptionP1 */
PUSHW[ ]	/* 1 value pushed */
33 
SRP0[ ]	/* SetRefPoint0 */
PUSHW[ ]	/* 2 values pushed */
17 2 
MIRP[10100]	/* MoveIndirectRelPt */
PUSHW[ ]	/* 1 value pushed */
50 
SRP0[ ]	/* SetRefPoint0 */
PUSHW[ ]	/* 2 values pushed */
25 3 
MIRP[10100]	/* MoveIndirectRelPt */
PUSHW[ ]	/* 1 value pushed */
17 
SRP0[ ]	/* SetRefPoint0 */
PUSHW[ ]	/* 2 values pushed */
62 3 
MIRP[10100]	/* MoveIndirectRelPt */
PUSHW[ ]	/* 1 value pushed */
87 
SRP0[ ]	/* SetRefPoint0 */
PUSHW[ ]	/* 2 values pushed */
71 2 
MIRP[10100]	/* MoveIndirectRelPt */
PUSHW[ ]	/* 1 value pushed */
16 
SRP0[ ]	/* SetRefPoint0 */
PUSHW[ ]	/* 2 values pushed */
80 3 
MIRP[10100]	/* MoveIndirectRelPt */
IUP[0]	/* InterpolateUntPts */
IUP[1]	/* InterpolateUntPts */";
};
width = 0;
},
{
anchors = (
{
name = _top;
pos = (407,929);
}
);
associatedMasterId = m01;
layerId = "13E3DEB8-7881-4FB0-9525-C4EC91BD92F9";
name = "7 Aug 21, 06:38";
shapes = (
{
closed = 1;
nodes = (
(396,1253,o),
(396,1241,qs),
(396,1230,o),
(380,1214,o),
(367,1214,qs),
(292,1214,l),
(318,1239,o),
(356,1268,o),
(367,1268,qs),
(380,1268,o)
);
},
{
closed = 1;
nodes = (
(753,1639,ls),
(746,1625,o),
(729,1605,o),
(693,1591,o),
(631,1584,o),
(580,1584,qs),
(563,1584,l),
(565,1598,o),
(565,1609,o),
(565,1617,qs),
(565,1646,o),
(543,1698,o),
(505,1737,o),
(454,1759,o),
(426,1759,qs),
(397,1759,o),
(346,1737,o),
(308,1698,o),
(286,1646,o),
(286,1617,qs),
(286,1614,o),
(288,1595,o),
(290,1584,q),
(131,1584,ls),
(86,1584,o),
(8,1545,o),
(-23,1509,qs),
(-51,1474,o),
(-79,1387,o),
(-79,1341,qs),
(-79,1296,o),
(-52,1208,o),
(-29,1174,q),
(0,1138,o),
(74,1096,o),
(115,1096,qs),
(140,1096,o),
(184,1112,o),
(223,1138,o),
(258,1173,o),
(273,1191,q),
(273,1096,l),
(337,1096,ls),
(367,1096,o),
(420,1118,o),
(460,1156,o),
(483,1208,o),
(483,1237,qs),
(483,1266,o),
(460,1318,o),
(420,1357,o),
(367,1379,o),
(337,1379,qs),
(307,1379,o),
(259,1359,o),
(222,1329,o),
(192,1293,o),
(179,1277,qs),
(156,1248,o),
(130,1222,o),
(115,1222,qs),
(103,1222,o),
(79,1239,o),
(59,1271,o),
(47,1315,o),
(47,1341,qs),
(47,1391,o),
(95,1456,o),
(131,1456,qs),
(580,1456,ls),
(636,1456,o),
(723,1465,o),
(792,1493,o),
(843,1542,o),
(864,1583,qs),
(893,1639,l),
(781,1696,l)
);
},
{
closed = 1;
nodes = (
(480,1642,o),
(480,1617,qs),
(480,1594,o),
(449,1559,o),
(426,1559,qs),
(401,1559,o),
(370,1594,o),
(370,1617,qs),
(370,1642,o),
(401,1675,o),
(426,1675,qs),
(449,1675,o)
);
}
);
userData = {
assembly = "SVTCA[0]	/* SetFreedomAndProjectionVectorToAxis */
PUSHW[ ]	/* 1 value pushed */
16 
MDAP[1]	/* MoveDirectAbsPt */
PUSHW[ ]	/* 1 value pushed */
87 
MDAP[1]	/* MoveDirectAbsPt */
PUSHW[ ]	/* 1 value pushed */
33 
MDAP[1]	/* MoveDirectAbsPt */
PUSHW[ ]	/* 1 value pushed */
0 
RCVT[ ]	/* ReadCVT */
IF[ ]	/* If */
PUSHW[ ]	/* 1 value pushed */
86 
MDAP[1]	/* MoveDirectAbsPt */
ELSE[ ]	/* Else */
PUSHW[ ]	/* 2 values pushed */
86 31 
MIAP[0]	/* MoveIndirectAbsPt */
EIF[ ]	/* EndIf */
PUSHW[ ]	/* 1 value pushed */
0 
RCVT[ ]	/* ReadCVT */
IF[ ]	/* If */
PUSHW[ ]	/* 1 value pushed */
50 
MDAP[1]	/* MoveDirectAbsPt */
ELSE[ ]	/* Else */
PUSHW[ ]	/* 2 values pushed */
50 25 
MIAP[0]	/* MoveIndirectAbsPt */
EIF[ ]	/* EndIf */
NPUSHW[ ]	/* 3 values pushed */
31 16 1 
DELTAP2[ ]	/* DeltaExceptionP2 */
NPUSHW[ ]	/* 3 values pushed */
127 16 1 
DELTAP1[ ]	/* DeltaExceptionP1 */
PUSHW[ ]	/* 1 value pushed */
33 
SRP0[ ]	/* SetRefPoint0 */
PUSHW[ ]	/* 2 values pushed */
17 2 
MIRP[10100]	/* MoveIndirectRelPt */
PUSHW[ ]	/* 1 value pushed */
50 
SRP0[ ]	/* SetRefPoint0 */
PUSHW[ ]	/* 2 values pushed */
25 3 
MIRP[10100]	/* MoveIndirectRelPt */
PUSHW[ ]	/* 1 value pushed */
17 
SRP0[ ]	/* SetRefPoint0 */
PUSHW[ ]	/* 2 values pushed */
62 3 
MIRP[10100]	/* MoveIndirectRelPt */
PUSHW[ ]	/* 1 value pushed */
87 
SRP0[ ]	/* SetRefPoint0 */
PUSHW[ ]	/* 2 values pushed */
71 2 
MIRP[10100]	/* MoveIndirectRelPt */
PUSHW[ ]	/* 1 value pushed */
16 
SRP0[ ]	/* SetRefPoint0 */
PUSHW[ ]	/* 2 values pushed */
80 3 
MIRP[10100]	/* MoveIndirectRelPt */
IUP[0]	/* InterpolateUntPts */
IUP[1]	/* InterpolateUntPts */";
};
width = 0;
}
);
note = uni1A58;
subCategory = Nonspacing;
unicode = 6744;
},
{
color = 9;
glyphname = NgaBon;
lastChange = "2023-12-10 04:29:12 +0000";
layers = (
{
anchors = (
{
name = _top;
pos = (-686,1000);
},
{
name = _top_2;
pos = (-708,1961);
}
);
layerId = m01;
shapes = (
{
alignment = -1;
pos = (36,1938);
ref = Nga.blw;
scale = (1.0296,1.0296);
}
);
width = 0;
},
{
anchors = (
{
name = _top;
pos = (-691,800);
}
);
associatedMasterId = m01;
layerId = "E8600FBA-3D25-43EF-AB53-B62D839935E2";
name = "7 Aug 21, 06:37";
shapes = (
{
closed = 1;
nodes = (
(-182,1203,o),
(-200,1327,o),
(-231,1442,o),
(-276,1546,o),
(-303,1588,qs),
(-373,1688,o),
(-570,1795,o),
(-691,1795,qs),
(-809,1795,o),
(-999,1723,o),
(-1071,1652,qs),
(-1134,1589,o),
(-1200,1426,o),
(-1200,1334,qs),
(-1200,1294,o),
(-1184,1231,o),
(-1160,1181,o),
(-1129,1144,o),
(-1114,1131,qs),
(-1079,1100,o),
(-987,1068,o),
(-936,1068,qs),
(-862,1068,o),
(-805,1128,qs),
(-788,1148,o),
(-760,1191,o),
(-746,1213,qs),
(-738,1227,l),
(-738,1225,l),
(-713,1269,o),
(-677,1317,o),
(-657,1317,qs),
(-642,1317,o),
(-620,1287,o),
(-620,1265,qs),
(-620,1243,o),
(-642,1213,o),
(-657,1213,qs),
(-730,1213,l),
(-730,1068,l),
(-657,1068,ls),
(-620,1068,o),
(-553,1099,o),
(-503,1152,o),
(-474,1224,o),
(-474,1265,qs),
(-474,1306,o),
(-503,1378,o),
(-553,1431,o),
(-620,1462,o),
(-657,1462,qs),
(-699,1462,o),
(-762,1431,o),
(-811,1383,o),
(-849,1325,o),
(-865,1298,qs),
(-888,1258,o),
(-920,1213,o),
(-936,1213,qs),
(-946,1213,o),
(-986,1219,o),
(-1025,1244,o),
(-1055,1292,o),
(-1055,1334,qs),
(-1055,1391,o),
(-1012,1504,o),
(-922,1594,o),
(-785,1649,o),
(-691,1649,qs),
(-521,1649,o),
(-425,1507,qs),
(-378,1438,o),
(-328,1250,o),
(-328,1140,qs),
(-328,1068,l),
(-182,1068,l),
(-182,1140,ls)
);
}
);
userData = {
assembly = "PUSHW[ ]	/* 4 values pushed */
12 4 62 4 
CALL[ ]	/* CallFunction */
PUSHW[ ]	/* 4 values pushed */
30 4 37 4 
CALL[ ]	/* CallFunction */
PUSHW[ ]	/* 4 values pushed */
0 4 1 4 
CALL[ ]	/* CallFunction */
NPUSHW[ ]	/* 23 values pushed */
6 12 22 12 38 12 54 12 70 12 86 12 102 12 118 12 134 12 150 12 166 12 11 
DELTAP1[ ]	/* DeltaExceptionP1 */
NPUSHW[ ]	/* 5 values pushed */
181 12 197 12 2 
DELTAP1[ ]	/* DeltaExceptionP1 */
PUSHW[ ]	/* 1 value pushed */
30 
SRP0[ ]	/* SetRefPoint0 */
PUSHW[ ]	/* 2 values pushed */
41 4 
MIRP[10100]	/* MoveIndirectRelPt */
SVTCA[0]	/* SetFreedomAndProjectionVectorToAxis */
PUSHW[ ]	/* 3 values pushed */
25 35 3 
CALL[ ]	/* CallFunction */
PUSHW[ ]	/* 4 values pushed */
68 1 7 4 
CALL[ ]	/* CallFunction */
PUSHW[ ]	/* 1 value pushed */
35 
SRP0[ ]	/* SetRefPoint0 */
PUSHW[ ]	/* 1 value pushed */
0 
MDRP[10000]	/* MoveDirectRelPt */
PUSHW[ ]	/* 1 value pushed */
35 
SRP0[ ]	/* SetRefPoint0 */
PUSHW[ ]	/* 2 values pushed */
38 1 
MIRP[10100]	/* MoveIndirectRelPt */
PUSHW[ ]	/* 1 value pushed */
17 
MDRP[10000]	/* MoveDirectRelPt */
PUSHW[ ]	/* 1 value pushed */
35 
SRP0[ ]	/* SetRefPoint0 */
PUSHW[ ]	/* 1 value pushed */
54 
MDRP[10000]	/* MoveDirectRelPt */
IUP[0]	/* InterpolateUntPts */
IUP[1]	/* InterpolateUntPts */";
};
width = 0;
},
{
anchors = (
{
name = _top;
pos = (-691,800);
}
);
associatedMasterId = m01;
layerId = "9A9EB3DE-6A06-4F96-BAFB-C2D7B1EFF25B";
name = "7 Aug 21, 06:37";
shapes = (
{
closed = 1;
nodes = (
(-182,1203,o),
(-200,1327,o),
(-231,1442,o),
(-276,1546,o),
(-303,1588,qs),
(-373,1688,o),
(-570,1795,o),
(-691,1795,qs),
(-809,1795,o),
(-999,1723,o),
(-1071,1652,qs),
(-1134,1589,o),
(-1200,1426,o),
(-1200,1334,qs),
(-1200,1294,o),
(-1184,1231,o),
(-1160,1181,o),
(-1129,1144,o),
(-1114,1131,qs),
(-1079,1100,o),
(-987,1068,o),
(-936,1068,qs),
(-862,1068,o),
(-805,1128,qs),
(-788,1148,o),
(-760,1191,o),
(-746,1213,qs),
(-738,1227,l),
(-738,1225,l),
(-713,1269,o),
(-677,1317,o),
(-657,1317,qs),
(-642,1317,o),
(-620,1287,o),
(-620,1265,qs),
(-620,1243,o),
(-642,1213,o),
(-657,1213,qs),
(-730,1213,l),
(-730,1068,l),
(-657,1068,ls),
(-620,1068,o),
(-553,1099,o),
(-503,1152,o),
(-474,1224,o),
(-474,1265,qs),
(-474,1306,o),
(-503,1378,o),
(-553,1431,o),
(-620,1462,o),
(-657,1462,qs),
(-699,1462,o),
(-762,1431,o),
(-811,1383,o),
(-849,1325,o),
(-865,1298,qs),
(-888,1258,o),
(-920,1213,o),
(-936,1213,qs),
(-946,1213,o),
(-986,1219,o),
(-1025,1244,o),
(-1055,1292,o),
(-1055,1334,qs),
(-1055,1391,o),
(-1012,1504,o),
(-922,1594,o),
(-785,1649,o),
(-691,1649,qs),
(-521,1649,o),
(-425,1507,qs),
(-378,1438,o),
(-328,1250,o),
(-328,1140,qs),
(-328,1068,l),
(-182,1068,l),
(-182,1140,ls)
);
}
);
userData = {
assembly = "PUSHW[ ]	/* 4 values pushed */
12 4 62 4 
CALL[ ]	/* CallFunction */
PUSHW[ ]	/* 4 values pushed */
30 4 37 4 
CALL[ ]	/* CallFunction */
PUSHW[ ]	/* 4 values pushed */
0 4 1 4 
CALL[ ]	/* CallFunction */
NPUSHW[ ]	/* 23 values pushed */
6 12 22 12 38 12 54 12 70 12 86 12 102 12 118 12 134 12 150 12 166 12 11 
DELTAP1[ ]	/* DeltaExceptionP1 */
NPUSHW[ ]	/* 5 values pushed */
181 12 197 12 2 
DELTAP1[ ]	/* DeltaExceptionP1 */
PUSHW[ ]	/* 1 value pushed */
30 
SRP0[ ]	/* SetRefPoint0 */
PUSHW[ ]	/* 2 values pushed */
41 4 
MIRP[10100]	/* MoveIndirectRelPt */
SVTCA[0]	/* SetFreedomAndProjectionVectorToAxis */
PUSHW[ ]	/* 3 values pushed */
25 35 3 
CALL[ ]	/* CallFunction */
PUSHW[ ]	/* 4 values pushed */
68 1 7 4 
CALL[ ]	/* CallFunction */
PUSHW[ ]	/* 1 value pushed */
35 
SRP0[ ]	/* SetRefPoint0 */
PUSHW[ ]	/* 1 value pushed */
0 
MDRP[10000]	/* MoveDirectRelPt */
PUSHW[ ]	/* 1 value pushed */
35 
SRP0[ ]	/* SetRefPoint0 */
PUSHW[ ]	/* 2 values pushed */
38 1 
MIRP[10100]	/* MoveIndirectRelPt */
PUSHW[ ]	/* 1 value pushed */
17 
MDRP[10000]	/* MoveDirectRelPt */
PUSHW[ ]	/* 1 value pushed */
35 
SRP0[ ]	/* SetRefPoint0 */
PUSHW[ ]	/* 1 value pushed */
54 
MDRP[10000]	/* MoveDirectRelPt */
IUP[0]	/* InterpolateUntPts */
IUP[1]	/* InterpolateUntPts */";
};
width = 0;
},
{
anchors = (
{
name = _top;
pos = (-691,800);
}
);
associatedMasterId = m01;
layerId = "D321DF6E-1BA4-4BC3-9581-EE9F363B1AE2";
name = "7 Aug 21, 06:37";
shapes = (
{
closed = 1;
nodes = (
(-182,1203,o),
(-200,1327,o),
(-231,1442,o),
(-276,1546,o),
(-303,1588,qs),
(-373,1688,o),
(-570,1795,o),
(-691,1795,qs),
(-809,1795,o),
(-999,1723,o),
(-1071,1652,qs),
(-1134,1589,o),
(-1200,1426,o),
(-1200,1334,qs),
(-1200,1294,o),
(-1184,1231,o),
(-1160,1181,o),
(-1129,1144,o),
(-1114,1131,qs),
(-1079,1100,o),
(-987,1068,o),
(-936,1068,qs),
(-862,1068,o),
(-805,1128,qs),
(-788,1148,o),
(-760,1191,o),
(-746,1213,qs),
(-738,1227,l),
(-738,1225,l),
(-713,1269,o),
(-677,1317,o),
(-657,1317,qs),
(-642,1317,o),
(-620,1287,o),
(-620,1265,qs),
(-620,1243,o),
(-642,1213,o),
(-657,1213,qs),
(-730,1213,l),
(-730,1068,l),
(-657,1068,ls),
(-620,1068,o),
(-553,1099,o),
(-503,1152,o),
(-474,1224,o),
(-474,1265,qs),
(-474,1306,o),
(-503,1378,o),
(-553,1431,o),
(-620,1462,o),
(-657,1462,qs),
(-699,1462,o),
(-762,1431,o),
(-811,1383,o),
(-849,1325,o),
(-865,1298,qs),
(-888,1258,o),
(-920,1213,o),
(-936,1213,qs),
(-946,1213,o),
(-986,1219,o),
(-1025,1244,o),
(-1055,1292,o),
(-1055,1334,qs),
(-1055,1391,o),
(-1012,1504,o),
(-922,1594,o),
(-785,1649,o),
(-691,1649,qs),
(-521,1649,o),
(-425,1507,qs),
(-378,1438,o),
(-328,1250,o),
(-328,1140,qs),
(-328,1068,l),
(-182,1068,l),
(-182,1140,ls)
);
}
);
userData = {
assembly = "PUSHW[ ]	/* 4 values pushed */
12 4 62 4 
CALL[ ]	/* CallFunction */
PUSHW[ ]	/* 4 values pushed */
30 4 37 4 
CALL[ ]	/* CallFunction */
PUSHW[ ]	/* 4 values pushed */
0 4 1 4 
CALL[ ]	/* CallFunction */
NPUSHW[ ]	/* 23 values pushed */
6 12 22 12 38 12 54 12 70 12 86 12 102 12 118 12 134 12 150 12 166 12 11 
DELTAP1[ ]	/* DeltaExceptionP1 */
NPUSHW[ ]	/* 5 values pushed */
181 12 197 12 2 
DELTAP1[ ]	/* DeltaExceptionP1 */
PUSHW[ ]	/* 1 value pushed */
30 
SRP0[ ]	/* SetRefPoint0 */
PUSHW[ ]	/* 2 values pushed */
41 4 
MIRP[10100]	/* MoveIndirectRelPt */
SVTCA[0]	/* SetFreedomAndProjectionVectorToAxis */
PUSHW[ ]	/* 3 values pushed */
25 35 3 
CALL[ ]	/* CallFunction */
PUSHW[ ]	/* 4 values pushed */
68 1 7 4 
CALL[ ]	/* CallFunction */
PUSHW[ ]	/* 1 value pushed */
35 
SRP0[ ]	/* SetRefPoint0 */
PUSHW[ ]	/* 1 value pushed */
0 
MDRP[10000]	/* MoveDirectRelPt */
PUSHW[ ]	/* 1 value pushed */
35 
SRP0[ ]	/* SetRefPoint0 */
PUSHW[ ]	/* 2 values pushed */
38 1 
MIRP[10100]	/* MoveIndirectRelPt */
PUSHW[ ]	/* 1 value pushed */
17 
MDRP[10000]	/* MoveDirectRelPt */
PUSHW[ ]	/* 1 value pushed */
35 
SRP0[ ]	/* SetRefPoint0 */
PUSHW[ ]	/* 1 value pushed */
54 
MDRP[10000]	/* MoveDirectRelPt */
IUP[0]	/* InterpolateUntPts */
IUP[1]	/* InterpolateUntPts */";
};
width = 0;
},
{
anchors = (
{
name = _top;
pos = (-691,800);
}
);
associatedMasterId = m01;
layerId = "0A64A148-63A5-4B70-ADF9-34DBC058C95B";
name = "7 Aug 21, 06:38";
shapes = (
{
closed = 1;
nodes = (
(-182,1203,o),
(-200,1327,o),
(-231,1442,o),
(-276,1546,o),
(-303,1588,qs),
(-373,1688,o),
(-570,1795,o),
(-691,1795,qs),
(-809,1795,o),
(-999,1723,o),
(-1071,1652,qs),
(-1134,1589,o),
(-1200,1426,o),
(-1200,1334,qs),
(-1200,1294,o),
(-1184,1231,o),
(-1160,1181,o),
(-1129,1144,o),
(-1114,1131,qs),
(-1079,1100,o),
(-987,1068,o),
(-936,1068,qs),
(-862,1068,o),
(-805,1128,qs),
(-788,1148,o),
(-760,1191,o),
(-746,1213,qs),
(-738,1227,l),
(-738,1225,l),
(-713,1269,o),
(-677,1317,o),
(-657,1317,qs),
(-642,1317,o),
(-620,1287,o),
(-620,1265,qs),
(-620,1243,o),
(-642,1213,o),
(-657,1213,qs),
(-730,1213,l),
(-730,1068,l),
(-657,1068,ls),
(-620,1068,o),
(-553,1099,o),
(-503,1152,o),
(-474,1224,o),
(-474,1265,qs),
(-474,1306,o),
(-503,1378,o),
(-553,1431,o),
(-620,1462,o),
(-657,1462,qs),
(-699,1462,o),
(-762,1431,o),
(-811,1383,o),
(-849,1325,o),
(-865,1298,qs),
(-888,1258,o),
(-920,1213,o),
(-936,1213,qs),
(-946,1213,o),
(-986,1219,o),
(-1025,1244,o),
(-1055,1292,o),
(-1055,1334,qs),
(-1055,1391,o),
(-1012,1504,o),
(-922,1594,o),
(-785,1649,o),
(-691,1649,qs),
(-521,1649,o),
(-425,1507,qs),
(-378,1438,o),
(-328,1250,o),
(-328,1140,qs),
(-328,1068,l),
(-182,1068,l),
(-182,1140,ls)
);
}
);
userData = {
assembly = "PUSHW[ ]	/* 4 values pushed */
12 4 62 4 
CALL[ ]	/* CallFunction */
PUSHW[ ]	/* 4 values pushed */
30 4 37 4 
CALL[ ]	/* CallFunction */
PUSHW[ ]	/* 4 values pushed */
0 4 1 4 
CALL[ ]	/* CallFunction */
NPUSHW[ ]	/* 23 values pushed */
6 12 22 12 38 12 54 12 70 12 86 12 102 12 118 12 134 12 150 12 166 12 11 
DELTAP1[ ]	/* DeltaExceptionP1 */
NPUSHW[ ]	/* 5 values pushed */
181 12 197 12 2 
DELTAP1[ ]	/* DeltaExceptionP1 */
PUSHW[ ]	/* 1 value pushed */
30 
SRP0[ ]	/* SetRefPoint0 */
PUSHW[ ]	/* 2 values pushed */
41 4 
MIRP[10100]	/* MoveIndirectRelPt */
SVTCA[0]	/* SetFreedomAndProjectionVectorToAxis */
PUSHW[ ]	/* 3 values pushed */
25 35 3 
CALL[ ]	/* CallFunction */
PUSHW[ ]	/* 4 values pushed */
68 1 7 4 
CALL[ ]	/* CallFunction */
PUSHW[ ]	/* 1 value pushed */
35 
SRP0[ ]	/* SetRefPoint0 */
PUSHW[ ]	/* 1 value pushed */
0 
MDRP[10000]	/* MoveDirectRelPt */
PUSHW[ ]	/* 1 value pushed */
35 
SRP0[ ]	/* SetRefPoint0 */
PUSHW[ ]	/* 2 values pushed */
38 1 
MIRP[10100]	/* MoveIndirectRelPt */
PUSHW[ ]	/* 1 value pushed */
17 
MDRP[10000]	/* MoveDirectRelPt */
PUSHW[ ]	/* 1 value pushed */
35 
SRP0[ ]	/* SetRefPoint0 */
PUSHW[ ]	/* 1 value pushed */
54 
MDRP[10000]	/* MoveDirectRelPt */
IUP[0]	/* InterpolateUntPts */
IUP[1]	/* InterpolateUntPts */";
};
width = 0;
},
{
anchors = (
{
name = _top;
pos = (-686,1000);
},
{
name = _top_2;
pos = (-708,1961);
}
);
associatedMasterId = m01;
layerId = m003;
shapes = (
{
alignment = -1;
pos = (0,1922);
ref = Nga.blw;
}
);
width = 0;
},
{
anchors = (
{
name = _top;
pos = (-691,800);
}
);
associatedMasterId = m01;
layerId = "A3A65544-95F9-44E1-999A-0516CCA61625";
name = "7 Aug 21, 06:37";
shapes = (
{
closed = 1;
nodes = (
(-182,1203,o),
(-200,1327,o),
(-231,1442,o),
(-276,1546,o),
(-303,1588,qs),
(-373,1688,o),
(-570,1795,o),
(-691,1795,qs),
(-809,1795,o),
(-999,1723,o),
(-1071,1652,qs),
(-1134,1589,o),
(-1200,1426,o),
(-1200,1334,qs),
(-1200,1294,o),
(-1184,1231,o),
(-1160,1181,o),
(-1129,1144,o),
(-1114,1131,qs),
(-1079,1100,o),
(-987,1068,o),
(-936,1068,qs),
(-862,1068,o),
(-805,1128,qs),
(-788,1148,o),
(-760,1191,o),
(-746,1213,qs),
(-738,1227,l),
(-738,1225,l),
(-713,1269,o),
(-677,1317,o),
(-657,1317,qs),
(-642,1317,o),
(-620,1287,o),
(-620,1265,qs),
(-620,1243,o),
(-642,1213,o),
(-657,1213,qs),
(-730,1213,l),
(-730,1068,l),
(-657,1068,ls),
(-620,1068,o),
(-553,1099,o),
(-503,1152,o),
(-474,1224,o),
(-474,1265,qs),
(-474,1306,o),
(-503,1378,o),
(-553,1431,o),
(-620,1462,o),
(-657,1462,qs),
(-699,1462,o),
(-762,1431,o),
(-811,1383,o),
(-849,1325,o),
(-865,1298,qs),
(-888,1258,o),
(-920,1213,o),
(-936,1213,qs),
(-946,1213,o),
(-986,1219,o),
(-1025,1244,o),
(-1055,1292,o),
(-1055,1334,qs),
(-1055,1391,o),
(-1012,1504,o),
(-922,1594,o),
(-785,1649,o),
(-691,1649,qs),
(-521,1649,o),
(-425,1507,qs),
(-378,1438,o),
(-328,1250,o),
(-328,1140,qs),
(-328,1068,l),
(-182,1068,l),
(-182,1140,ls)
);
}
);
userData = {
assembly = "PUSHW[ ]	/* 4 values pushed */
12 4 62 4 
CALL[ ]	/* CallFunction */
PUSHW[ ]	/* 4 values pushed */
30 4 37 4 
CALL[ ]	/* CallFunction */
PUSHW[ ]	/* 4 values pushed */
0 4 1 4 
CALL[ ]	/* CallFunction */
NPUSHW[ ]	/* 23 values pushed */
6 12 22 12 38 12 54 12 70 12 86 12 102 12 118 12 134 12 150 12 166 12 11 
DELTAP1[ ]	/* DeltaExceptionP1 */
NPUSHW[ ]	/* 5 values pushed */
181 12 197 12 2 
DELTAP1[ ]	/* DeltaExceptionP1 */
PUSHW[ ]	/* 1 value pushed */
30 
SRP0[ ]	/* SetRefPoint0 */
PUSHW[ ]	/* 2 values pushed */
41 4 
MIRP[10100]	/* MoveIndirectRelPt */
SVTCA[0]	/* SetFreedomAndProjectionVectorToAxis */
PUSHW[ ]	/* 3 values pushed */
25 35 3 
CALL[ ]	/* CallFunction */
PUSHW[ ]	/* 4 values pushed */
68 1 7 4 
CALL[ ]	/* CallFunction */
PUSHW[ ]	/* 1 value pushed */
35 
SRP0[ ]	/* SetRefPoint0 */
PUSHW[ ]	/* 1 value pushed */
0 
MDRP[10000]	/* MoveDirectRelPt */
PUSHW[ ]	/* 1 value pushed */
35 
SRP0[ ]	/* SetRefPoint0 */
PUSHW[ ]	/* 2 values pushed */
38 1 
MIRP[10100]	/* MoveIndirectRelPt */
PUSHW[ ]	/* 1 value pushed */
17 
MDRP[10000]	/* MoveDirectRelPt */
PUSHW[ ]	/* 1 value pushed */
35 
SRP0[ ]	/* SetRefPoint0 */
PUSHW[ ]	/* 1 value pushed */
54 
MDRP[10000]	/* MoveDirectRelPt */
IUP[0]	/* InterpolateUntPts */
IUP[1]	/* InterpolateUntPts */";
};
width = 0;
},
{
anchors = (
{
name = _top;
pos = (-691,800);
}
);
associatedMasterId = m01;
layerId = "8516E713-11A6-4ADE-BC26-F4DE1DE7EFC2";
name = "7 Aug 21, 06:37";
shapes = (
{
closed = 1;
nodes = (
(-182,1203,o),
(-200,1327,o),
(-231,1442,o),
(-276,1546,o),
(-303,1588,qs),
(-373,1688,o),
(-570,1795,o),
(-691,1795,qs),
(-809,1795,o),
(-999,1723,o),
(-1071,1652,qs),
(-1134,1589,o),
(-1200,1426,o),
(-1200,1334,qs),
(-1200,1294,o),
(-1184,1231,o),
(-1160,1181,o),
(-1129,1144,o),
(-1114,1131,qs),
(-1079,1100,o),
(-987,1068,o),
(-936,1068,qs),
(-862,1068,o),
(-805,1128,qs),
(-788,1148,o),
(-760,1191,o),
(-746,1213,qs),
(-738,1227,l),
(-738,1225,l),
(-713,1269,o),
(-677,1317,o),
(-657,1317,qs),
(-642,1317,o),
(-620,1287,o),
(-620,1265,qs),
(-620,1243,o),
(-642,1213,o),
(-657,1213,qs),
(-730,1213,l),
(-730,1068,l),
(-657,1068,ls),
(-620,1068,o),
(-553,1099,o),
(-503,1152,o),
(-474,1224,o),
(-474,1265,qs),
(-474,1306,o),
(-503,1378,o),
(-553,1431,o),
(-620,1462,o),
(-657,1462,qs),
(-699,1462,o),
(-762,1431,o),
(-811,1383,o),
(-849,1325,o),
(-865,1298,qs),
(-888,1258,o),
(-920,1213,o),
(-936,1213,qs),
(-946,1213,o),
(-986,1219,o),
(-1025,1244,o),
(-1055,1292,o),
(-1055,1334,qs),
(-1055,1391,o),
(-1012,1504,o),
(-922,1594,o),
(-785,1649,o),
(-691,1649,qs),
(-521,1649,o),
(-425,1507,qs),
(-378,1438,o),
(-328,1250,o),
(-328,1140,qs),
(-328,1068,l),
(-182,1068,l),
(-182,1140,ls)
);
}
);
userData = {
assembly = "PUSHW[ ]	/* 4 values pushed */
12 4 62 4 
CALL[ ]	/* CallFunction */
PUSHW[ ]	/* 4 values pushed */
30 4 37 4 
CALL[ ]	/* CallFunction */
PUSHW[ ]	/* 4 values pushed */
0 4 1 4 
CALL[ ]	/* CallFunction */
NPUSHW[ ]	/* 23 values pushed */
6 12 22 12 38 12 54 12 70 12 86 12 102 12 118 12 134 12 150 12 166 12 11 
DELTAP1[ ]	/* DeltaExceptionP1 */
NPUSHW[ ]	/* 5 values pushed */
181 12 197 12 2 
DELTAP1[ ]	/* DeltaExceptionP1 */
PUSHW[ ]	/* 1 value pushed */
30 
SRP0[ ]	/* SetRefPoint0 */
PUSHW[ ]	/* 2 values pushed */
41 4 
MIRP[10100]	/* MoveIndirectRelPt */
SVTCA[0]	/* SetFreedomAndProjectionVectorToAxis */
PUSHW[ ]	/* 3 values pushed */
25 35 3 
CALL[ ]	/* CallFunction */
PUSHW[ ]	/* 4 values pushed */
68 1 7 4 
CALL[ ]	/* CallFunction */
PUSHW[ ]	/* 1 value pushed */
35 
SRP0[ ]	/* SetRefPoint0 */
PUSHW[ ]	/* 1 value pushed */
0 
MDRP[10000]	/* MoveDirectRelPt */
PUSHW[ ]	/* 1 value pushed */
35 
SRP0[ ]	/* SetRefPoint0 */
PUSHW[ ]	/* 2 values pushed */
38 1 
MIRP[10100]	/* MoveIndirectRelPt */
PUSHW[ ]	/* 1 value pushed */
17 
MDRP[10000]	/* MoveDirectRelPt */
PUSHW[ ]	/* 1 value pushed */
35 
SRP0[ ]	/* SetRefPoint0 */
PUSHW[ ]	/* 1 value pushed */
54 
MDRP[10000]	/* MoveDirectRelPt */
IUP[0]	/* InterpolateUntPts */
IUP[1]	/* InterpolateUntPts */";
};
width = 0;
},
{
anchors = (
{
name = _top;
pos = (-691,800);
}
);
associatedMasterId = m01;
layerId = "3AA54985-7A26-4AD6-AB98-A17AE1314002";
name = "7 Aug 21, 06:37";
shapes = (
{
closed = 1;
nodes = (
(-182,1203,o),
(-200,1327,o),
(-231,1442,o),
(-276,1546,o),
(-303,1588,qs),
(-373,1688,o),
(-570,1795,o),
(-691,1795,qs),
(-809,1795,o),
(-999,1723,o),
(-1071,1652,qs),
(-1134,1589,o),
(-1200,1426,o),
(-1200,1334,qs),
(-1200,1294,o),
(-1184,1231,o),
(-1160,1181,o),
(-1129,1144,o),
(-1114,1131,qs),
(-1079,1100,o),
(-987,1068,o),
(-936,1068,qs),
(-862,1068,o),
(-805,1128,qs),
(-788,1148,o),
(-760,1191,o),
(-746,1213,qs),
(-738,1227,l),
(-738,1225,l),
(-713,1269,o),
(-677,1317,o),
(-657,1317,qs),
(-642,1317,o),
(-620,1287,o),
(-620,1265,qs),
(-620,1243,o),
(-642,1213,o),
(-657,1213,qs),
(-730,1213,l),
(-730,1068,l),
(-657,1068,ls),
(-620,1068,o),
(-553,1099,o),
(-503,1152,o),
(-474,1224,o),
(-474,1265,qs),
(-474,1306,o),
(-503,1378,o),
(-553,1431,o),
(-620,1462,o),
(-657,1462,qs),
(-699,1462,o),
(-762,1431,o),
(-811,1383,o),
(-849,1325,o),
(-865,1298,qs),
(-888,1258,o),
(-920,1213,o),
(-936,1213,qs),
(-946,1213,o),
(-986,1219,o),
(-1025,1244,o),
(-1055,1292,o),
(-1055,1334,qs),
(-1055,1391,o),
(-1012,1504,o),
(-922,1594,o),
(-785,1649,o),
(-691,1649,qs),
(-521,1649,o),
(-425,1507,qs),
(-378,1438,o),
(-328,1250,o),
(-328,1140,qs),
(-328,1068,l),
(-182,1068,l),
(-182,1140,ls)
);
}
);
userData = {
assembly = "PUSHW[ ]	/* 4 values pushed */
12 4 62 4 
CALL[ ]	/* CallFunction */
PUSHW[ ]	/* 4 values pushed */
30 4 37 4 
CALL[ ]	/* CallFunction */
PUSHW[ ]	/* 4 values pushed */
0 4 1 4 
CALL[ ]	/* CallFunction */
NPUSHW[ ]	/* 23 values pushed */
6 12 22 12 38 12 54 12 70 12 86 12 102 12 118 12 134 12 150 12 166 12 11 
DELTAP1[ ]	/* DeltaExceptionP1 */
NPUSHW[ ]	/* 5 values pushed */
181 12 197 12 2 
DELTAP1[ ]	/* DeltaExceptionP1 */
PUSHW[ ]	/* 1 value pushed */
30 
SRP0[ ]	/* SetRefPoint0 */
PUSHW[ ]	/* 2 values pushed */
41 4 
MIRP[10100]	/* MoveIndirectRelPt */
SVTCA[0]	/* SetFreedomAndProjectionVectorToAxis */
PUSHW[ ]	/* 3 values pushed */
25 35 3 
CALL[ ]	/* CallFunction */
PUSHW[ ]	/* 4 values pushed */
68 1 7 4 
CALL[ ]	/* CallFunction */
PUSHW[ ]	/* 1 value pushed */
35 
SRP0[ ]	/* SetRefPoint0 */
PUSHW[ ]	/* 1 value pushed */
0 
MDRP[10000]	/* MoveDirectRelPt */
PUSHW[ ]	/* 1 value pushed */
35 
SRP0[ ]	/* SetRefPoint0 */
PUSHW[ ]	/* 2 values pushed */
38 1 
MIRP[10100]	/* MoveIndirectRelPt */
PUSHW[ ]	/* 1 value pushed */
17 
MDRP[10000]	/* MoveDirectRelPt */
PUSHW[ ]	/* 1 value pushed */
35 
SRP0[ ]	/* SetRefPoint0 */
PUSHW[ ]	/* 1 value pushed */
54 
MDRP[10000]	/* MoveDirectRelPt */
IUP[0]	/* InterpolateUntPts */
IUP[1]	/* InterpolateUntPts */";
};
width = 0;
},
{
anchors = (
{
name = _top;
pos = (-691,800);
}
);
associatedMasterId = m01;
layerId = "42867B87-74C8-47E8-B08F-5309624B4BE1";
name = "7 Aug 21, 06:38";
shapes = (
{
closed = 1;
nodes = (
(-182,1203,o),
(-200,1327,o),
(-231,1442,o),
(-276,1546,o),
(-303,1588,qs),
(-373,1688,o),
(-570,1795,o),
(-691,1795,qs),
(-809,1795,o),
(-999,1723,o),
(-1071,1652,qs),
(-1134,1589,o),
(-1200,1426,o),
(-1200,1334,qs),
(-1200,1294,o),
(-1184,1231,o),
(-1160,1181,o),
(-1129,1144,o),
(-1114,1131,qs),
(-1079,1100,o),
(-987,1068,o),
(-936,1068,qs),
(-862,1068,o),
(-805,1128,qs),
(-788,1148,o),
(-760,1191,o),
(-746,1213,qs),
(-738,1227,l),
(-738,1225,l),
(-713,1269,o),
(-677,1317,o),
(-657,1317,qs),
(-642,1317,o),
(-620,1287,o),
(-620,1265,qs),
(-620,1243,o),
(-642,1213,o),
(-657,1213,qs),
(-730,1213,l),
(-730,1068,l),
(-657,1068,ls),
(-620,1068,o),
(-553,1099,o),
(-503,1152,o),
(-474,1224,o),
(-474,1265,qs),
(-474,1306,o),
(-503,1378,o),
(-553,1431,o),
(-620,1462,o),
(-657,1462,qs),
(-699,1462,o),
(-762,1431,o),
(-811,1383,o),
(-849,1325,o),
(-865,1298,qs),
(-888,1258,o),
(-920,1213,o),
(-936,1213,qs),
(-946,1213,o),
(-986,1219,o),
(-1025,1244,o),
(-1055,1292,o),
(-1055,1334,qs),
(-1055,1391,o),
(-1012,1504,o),
(-922,1594,o),
(-785,1649,o),
(-691,1649,qs),
(-521,1649,o),
(-425,1507,qs),
(-378,1438,o),
(-328,1250,o),
(-328,1140,qs),
(-328,1068,l),
(-182,1068,l),
(-182,1140,ls)
);
}
);
userData = {
assembly = "PUSHW[ ]	/* 4 values pushed */
12 4 62 4 
CALL[ ]	/* CallFunction */
PUSHW[ ]	/* 4 values pushed */
30 4 37 4 
CALL[ ]	/* CallFunction */
PUSHW[ ]	/* 4 values pushed */
0 4 1 4 
CALL[ ]	/* CallFunction */
NPUSHW[ ]	/* 23 values pushed */
6 12 22 12 38 12 54 12 70 12 86 12 102 12 118 12 134 12 150 12 166 12 11 
DELTAP1[ ]	/* DeltaExceptionP1 */
NPUSHW[ ]	/* 5 values pushed */
181 12 197 12 2 
DELTAP1[ ]	/* DeltaExceptionP1 */
PUSHW[ ]	/* 1 value pushed */
30 
SRP0[ ]	/* SetRefPoint0 */
PUSHW[ ]	/* 2 values pushed */
41 4 
MIRP[10100]	/* MoveIndirectRelPt */
SVTCA[0]	/* SetFreedomAndProjectionVectorToAxis */
PUSHW[ ]	/* 3 values pushed */
25 35 3 
CALL[ ]	/* CallFunction */
PUSHW[ ]	/* 4 values pushed */
68 1 7 4 
CALL[ ]	/* CallFunction */
PUSHW[ ]	/* 1 value pushed */
35 
SRP0[ ]	/* SetRefPoint0 */
PUSHW[ ]	/* 1 value pushed */
0 
MDRP[10000]	/* MoveDirectRelPt */
PUSHW[ ]	/* 1 value pushed */
35 
SRP0[ ]	/* SetRefPoint0 */
PUSHW[ ]	/* 2 values pushed */
38 1 
MIRP[10100]	/* MoveIndirectRelPt */
PUSHW[ ]	/* 1 value pushed */
17 
MDRP[10000]	/* MoveDirectRelPt */
PUSHW[ ]	/* 1 value pushed */
35 
SRP0[ ]	/* SetRefPoint0 */
PUSHW[ ]	/* 1 value pushed */
54 
MDRP[10000]	/* MoveDirectRelPt */
IUP[0]	/* InterpolateUntPts */
IUP[1]	/* InterpolateUntPts */";
};
width = 0;
}
);
note = uni1A59;
unicode = 6745;
},
{
color = 9;
glyphname = PaBon;
lastChange = "2023-12-10 04:28:20 +0000";
layers = (
{
anchors = (
{
name = _top;
pos = (-651,1010);
},
{
name = _top_2;
pos = (-646,2002);
}
);
layerId = m01;
shapes = (
{
pos = (22,1939);
ref = PaL.blw;
scale = (1.0255,1.0292);
}
);
width = 0;
},
{
anchors = (
{
name = _top;
pos = (-616,800);
}
);
associatedMasterId = m01;
layerId = "59AC40B5-A6E3-4651-B615-4DF70D403F33";
name = "7 Aug 21, 06:37";
shapes = (
{
closed = 1;
nodes = (
(-379,1067,o),
(-280,1132,o),
(-244,1186,qs),
(-212,1237,o),
(-179,1363,o),
(-179,1430,qs),
(-179,1496,o),
(-214,1625,o),
(-244,1675,qs),
(-280,1728,o),
(-379,1794,o),
(-433,1794,qs),
(-445,1794,o),
(-487,1791,o),
(-536,1776,o),
(-591,1742,o),
(-617,1711,q),
(-642,1741,o),
(-679,1763,qs),
(-719,1786,o),
(-782,1794,o),
(-798,1794,qs),
(-852,1794,o),
(-951,1728,o),
(-987,1675,qs),
(-1019,1624,o),
(-1052,1498,o),
(-1052,1430,qs),
(-1052,1364,o),
(-1017,1236,o),
(-987,1186,qs),
(-951,1132,o),
(-852,1067,o),
(-798,1067,qs),
(-725,1067,l),
(-725,1212,l),
(-798,1212,ls),
(-821,1212,o),
(-856,1248,o),
(-865,1263,qs),
(-885,1295,o),
(-906,1382,o),
(-906,1430,qs),
(-906,1478,o),
(-885,1566,o),
(-865,1598,qs),
(-861,1605,o),
(-847,1622,o),
(-830,1637,o),
(-810,1648,o),
(-798,1648,qs),
(-790,1648,o),
(-763,1644,o),
(-731,1619,o),
(-696,1565,o),
(-679,1516,q),
(-552,1516,l),
(-521,1613,o),
(-481,1639,q),
(-481,1638,l),
(-467,1646,o),
(-443,1648,o),
(-433,1648,qs),
(-422,1648,o),
(-401,1637,o),
(-384,1622,o),
(-371,1605,o),
(-366,1598,qs),
(-346,1566,o),
(-325,1478,o),
(-325,1430,qs),
(-325,1382,o),
(-346,1295,o),
(-366,1263,qs),
(-375,1248,o),
(-410,1212,o),
(-433,1212,qs),
(-506,1212,l),
(-506,1067,l),
(-433,1067,ls)
);
}
);
userData = {
assembly = "PUSHW[ ]	/* 1 value pushed */
80 
MDAP[1]	/* MoveDirectAbsPt */
PUSHW[ ]	/* 1 value pushed */
81 
MDAP[1]	/* MoveDirectAbsPt */
PUSHW[ ]	/* 1 value pushed */
73 
MDRP[11100]	/* MoveDirectRelPt */
PUSHW[ ]	/* 2 values pushed */
8 4 
MIRP[10100]	/* MoveIndirectRelPt */
NPUSHW[ ]	/* 5 values pushed */
186 8 202 8 2 
DELTAP1[ ]	/* DeltaExceptionP1 */
NPUSHW[ ]	/* 23 values pushed */
9 8 25 8 41 8 57 8 73 8 89 8 105 8 121 8 137 8 153 8 169 8 11 
DELTAP1[ ]	/* DeltaExceptionP1 */
PUSHW[ ]	/* 1 value pushed */
80 
SRP0[ ]	/* SetRefPoint0 */
PUSHW[ ]	/* 1 value pushed */
51 
MDRP[10000]	/* MoveDirectRelPt */
PUSHW[ ]	/* 1 value pushed */
51 
MDAP[1]	/* MoveDirectAbsPt */
PUSHW[ ]	/* 2 values pushed */
36 4 
MIRP[10100]	/* MoveIndirectRelPt */
NPUSHW[ ]	/* 23 values pushed */
6 36 22 36 38 36 54 36 70 36 86 36 102 36 118 36 134 36 150 36 166 36 11 
DELTAP1[ ]	/* DeltaExceptionP1 */
NPUSHW[ ]	/* 5 values pushed */
181 36 197 36 2 
DELTAP1[ ]	/* DeltaExceptionP1 */
SVTCA[0]	/* SetFreedomAndProjectionVectorToAxis */
PUSHW[ ]	/* 4 values pushed */
1 1 0 4 
CALL[ ]	/* CallFunction */
PUSHW[ ]	/* 4 values pushed */
67 1 16 4 
CALL[ ]	/* CallFunction */
PUSHW[ ]	/* 1 value pushed */
16 
SRP0[ ]	/* SetRefPoint0 */
PUSHW[ ]	/* 1 value pushed */
28 
MDRP[10000]	/* MoveDirectRelPt */
PUSHW[ ]	/* 1 value pushed */
1 
SRP0[ ]	/* SetRefPoint0 */
PUSHW[ ]	/* 1 value pushed */
42 
MDRP[10000]	/* MoveDirectRelPt */
PUSHW[ ]	/* 1 value pushed */
0 
SRP0[ ]	/* SetRefPoint0 */
PUSHW[ ]	/* 1 value pushed */
44 
MDRP[10000]	/* MoveDirectRelPt */
PUSHW[ ]	/* 1 value pushed */
67 
SRP0[ ]	/* SetRefPoint0 */
PUSHW[ ]	/* 1 value pushed */
57 
MDRP[10000]	/* MoveDirectRelPt */
IUP[0]	/* InterpolateUntPts */
IUP[1]	/* InterpolateUntPts */";
};
width = 0;
},
{
anchors = (
{
name = _top;
pos = (-616,800);
}
);
associatedMasterId = m01;
layerId = "A661505B-7B73-4F41-B4CB-2FA25A5E5FAF";
name = "7 Aug 21, 06:37";
shapes = (
{
closed = 1;
nodes = (
(-379,1067,o),
(-280,1132,o),
(-244,1186,qs),
(-212,1237,o),
(-179,1363,o),
(-179,1430,qs),
(-179,1496,o),
(-214,1625,o),
(-244,1675,qs),
(-280,1728,o),
(-379,1794,o),
(-433,1794,qs),
(-445,1794,o),
(-487,1791,o),
(-536,1776,o),
(-591,1742,o),
(-617,1711,q),
(-642,1741,o),
(-679,1763,qs),
(-719,1786,o),
(-782,1794,o),
(-798,1794,qs),
(-852,1794,o),
(-951,1728,o),
(-987,1675,qs),
(-1019,1624,o),
(-1052,1498,o),
(-1052,1430,qs),
(-1052,1364,o),
(-1017,1236,o),
(-987,1186,qs),
(-951,1132,o),
(-852,1067,o),
(-798,1067,qs),
(-725,1067,l),
(-725,1212,l),
(-798,1212,ls),
(-821,1212,o),
(-856,1248,o),
(-865,1263,qs),
(-885,1295,o),
(-906,1382,o),
(-906,1430,qs),
(-906,1478,o),
(-885,1566,o),
(-865,1598,qs),
(-861,1605,o),
(-847,1622,o),
(-830,1637,o),
(-810,1648,o),
(-798,1648,qs),
(-790,1648,o),
(-763,1644,o),
(-731,1619,o),
(-696,1565,o),
(-679,1516,q),
(-552,1516,l),
(-521,1613,o),
(-481,1639,q),
(-481,1638,l),
(-467,1646,o),
(-443,1648,o),
(-433,1648,qs),
(-422,1648,o),
(-401,1637,o),
(-384,1622,o),
(-371,1605,o),
(-366,1598,qs),
(-346,1566,o),
(-325,1478,o),
(-325,1430,qs),
(-325,1382,o),
(-346,1295,o),
(-366,1263,qs),
(-375,1248,o),
(-410,1212,o),
(-433,1212,qs),
(-506,1212,l),
(-506,1067,l),
(-433,1067,ls)
);
}
);
userData = {
assembly = "PUSHW[ ]	/* 1 value pushed */
80 
MDAP[1]	/* MoveDirectAbsPt */
PUSHW[ ]	/* 1 value pushed */
81 
MDAP[1]	/* MoveDirectAbsPt */
PUSHW[ ]	/* 1 value pushed */
73 
MDRP[11100]	/* MoveDirectRelPt */
PUSHW[ ]	/* 2 values pushed */
8 4 
MIRP[10100]	/* MoveIndirectRelPt */
NPUSHW[ ]	/* 5 values pushed */
186 8 202 8 2 
DELTAP1[ ]	/* DeltaExceptionP1 */
NPUSHW[ ]	/* 23 values pushed */
9 8 25 8 41 8 57 8 73 8 89 8 105 8 121 8 137 8 153 8 169 8 11 
DELTAP1[ ]	/* DeltaExceptionP1 */
PUSHW[ ]	/* 1 value pushed */
80 
SRP0[ ]	/* SetRefPoint0 */
PUSHW[ ]	/* 1 value pushed */
51 
MDRP[10000]	/* MoveDirectRelPt */
PUSHW[ ]	/* 1 value pushed */
51 
MDAP[1]	/* MoveDirectAbsPt */
PUSHW[ ]	/* 2 values pushed */
36 4 
MIRP[10100]	/* MoveIndirectRelPt */
NPUSHW[ ]	/* 23 values pushed */
6 36 22 36 38 36 54 36 70 36 86 36 102 36 118 36 134 36 150 36 166 36 11 
DELTAP1[ ]	/* DeltaExceptionP1 */
NPUSHW[ ]	/* 5 values pushed */
181 36 197 36 2 
DELTAP1[ ]	/* DeltaExceptionP1 */
SVTCA[0]	/* SetFreedomAndProjectionVectorToAxis */
PUSHW[ ]	/* 4 values pushed */
1 1 0 4 
CALL[ ]	/* CallFunction */
PUSHW[ ]	/* 4 values pushed */
67 1 16 4 
CALL[ ]	/* CallFunction */
PUSHW[ ]	/* 1 value pushed */
16 
SRP0[ ]	/* SetRefPoint0 */
PUSHW[ ]	/* 1 value pushed */
28 
MDRP[10000]	/* MoveDirectRelPt */
PUSHW[ ]	/* 1 value pushed */
1 
SRP0[ ]	/* SetRefPoint0 */
PUSHW[ ]	/* 1 value pushed */
42 
MDRP[10000]	/* MoveDirectRelPt */
PUSHW[ ]	/* 1 value pushed */
0 
SRP0[ ]	/* SetRefPoint0 */
PUSHW[ ]	/* 1 value pushed */
44 
MDRP[10000]	/* MoveDirectRelPt */
PUSHW[ ]	/* 1 value pushed */
67 
SRP0[ ]	/* SetRefPoint0 */
PUSHW[ ]	/* 1 value pushed */
57 
MDRP[10000]	/* MoveDirectRelPt */
IUP[0]	/* InterpolateUntPts */
IUP[1]	/* InterpolateUntPts */";
};
width = 0;
},
{
anchors = (
{
name = _top;
pos = (-616,800);
}
);
associatedMasterId = m01;
layerId = "7CBE4617-4AC5-42F7-8CD1-6F4D09915428";
name = "7 Aug 21, 06:37";
shapes = (
{
closed = 1;
nodes = (
(-379,1067,o),
(-280,1132,o),
(-244,1186,qs),
(-212,1237,o),
(-179,1363,o),
(-179,1430,qs),
(-179,1496,o),
(-214,1625,o),
(-244,1675,qs),
(-280,1728,o),
(-379,1794,o),
(-433,1794,qs),
(-445,1794,o),
(-487,1791,o),
(-536,1776,o),
(-591,1742,o),
(-617,1711,q),
(-642,1741,o),
(-679,1763,qs),
(-719,1786,o),
(-782,1794,o),
(-798,1794,qs),
(-852,1794,o),
(-951,1728,o),
(-987,1675,qs),
(-1019,1624,o),
(-1052,1498,o),
(-1052,1430,qs),
(-1052,1364,o),
(-1017,1236,o),
(-987,1186,qs),
(-951,1132,o),
(-852,1067,o),
(-798,1067,qs),
(-725,1067,l),
(-725,1212,l),
(-798,1212,ls),
(-821,1212,o),
(-856,1248,o),
(-865,1263,qs),
(-885,1295,o),
(-906,1382,o),
(-906,1430,qs),
(-906,1478,o),
(-885,1566,o),
(-865,1598,qs),
(-861,1605,o),
(-847,1622,o),
(-830,1637,o),
(-810,1648,o),
(-798,1648,qs),
(-790,1648,o),
(-763,1644,o),
(-731,1619,o),
(-696,1565,o),
(-679,1516,q),
(-552,1516,l),
(-521,1613,o),
(-481,1639,q),
(-481,1638,l),
(-467,1646,o),
(-443,1648,o),
(-433,1648,qs),
(-422,1648,o),
(-401,1637,o),
(-384,1622,o),
(-371,1605,o),
(-366,1598,qs),
(-346,1566,o),
(-325,1478,o),
(-325,1430,qs),
(-325,1382,o),
(-346,1295,o),
(-366,1263,qs),
(-375,1248,o),
(-410,1212,o),
(-433,1212,qs),
(-506,1212,l),
(-506,1067,l),
(-433,1067,ls)
);
}
);
userData = {
assembly = "PUSHW[ ]	/* 1 value pushed */
80 
MDAP[1]	/* MoveDirectAbsPt */
PUSHW[ ]	/* 1 value pushed */
81 
MDAP[1]	/* MoveDirectAbsPt */
PUSHW[ ]	/* 1 value pushed */
73 
MDRP[11100]	/* MoveDirectRelPt */
PUSHW[ ]	/* 2 values pushed */
8 4 
MIRP[10100]	/* MoveIndirectRelPt */
NPUSHW[ ]	/* 5 values pushed */
186 8 202 8 2 
DELTAP1[ ]	/* DeltaExceptionP1 */
NPUSHW[ ]	/* 23 values pushed */
9 8 25 8 41 8 57 8 73 8 89 8 105 8 121 8 137 8 153 8 169 8 11 
DELTAP1[ ]	/* DeltaExceptionP1 */
PUSHW[ ]	/* 1 value pushed */
80 
SRP0[ ]	/* SetRefPoint0 */
PUSHW[ ]	/* 1 value pushed */
51 
MDRP[10000]	/* MoveDirectRelPt */
PUSHW[ ]	/* 1 value pushed */
51 
MDAP[1]	/* MoveDirectAbsPt */
PUSHW[ ]	/* 2 values pushed */
36 4 
MIRP[10100]	/* MoveIndirectRelPt */
NPUSHW[ ]	/* 23 values pushed */
6 36 22 36 38 36 54 36 70 36 86 36 102 36 118 36 134 36 150 36 166 36 11 
DELTAP1[ ]	/* DeltaExceptionP1 */
NPUSHW[ ]	/* 5 values pushed */
181 36 197 36 2 
DELTAP1[ ]	/* DeltaExceptionP1 */
SVTCA[0]	/* SetFreedomAndProjectionVectorToAxis */
PUSHW[ ]	/* 4 values pushed */
1 1 0 4 
CALL[ ]	/* CallFunction */
PUSHW[ ]	/* 4 values pushed */
67 1 16 4 
CALL[ ]	/* CallFunction */
PUSHW[ ]	/* 1 value pushed */
16 
SRP0[ ]	/* SetRefPoint0 */
PUSHW[ ]	/* 1 value pushed */
28 
MDRP[10000]	/* MoveDirectRelPt */
PUSHW[ ]	/* 1 value pushed */
1 
SRP0[ ]	/* SetRefPoint0 */
PUSHW[ ]	/* 1 value pushed */
42 
MDRP[10000]	/* MoveDirectRelPt */
PUSHW[ ]	/* 1 value pushed */
0 
SRP0[ ]	/* SetRefPoint0 */
PUSHW[ ]	/* 1 value pushed */
44 
MDRP[10000]	/* MoveDirectRelPt */
PUSHW[ ]	/* 1 value pushed */
67 
SRP0[ ]	/* SetRefPoint0 */
PUSHW[ ]	/* 1 value pushed */
57 
MDRP[10000]	/* MoveDirectRelPt */
IUP[0]	/* InterpolateUntPts */
IUP[1]	/* InterpolateUntPts */";
};
width = 0;
},
{
anchors = (
{
name = _top;
pos = (-616,800);
}
);
associatedMasterId = m01;
layerId = "8B3D8C80-3C5A-485A-AA84-AA37847F3814";
name = "7 Aug 21, 06:38";
shapes = (
{
closed = 1;
nodes = (
(-379,1067,o),
(-280,1132,o),
(-244,1186,qs),
(-212,1237,o),
(-179,1363,o),
(-179,1430,qs),
(-179,1496,o),
(-214,1625,o),
(-244,1675,qs),
(-280,1728,o),
(-379,1794,o),
(-433,1794,qs),
(-445,1794,o),
(-487,1791,o),
(-536,1776,o),
(-591,1742,o),
(-617,1711,q),
(-642,1741,o),
(-679,1763,qs),
(-719,1786,o),
(-782,1794,o),
(-798,1794,qs),
(-852,1794,o),
(-951,1728,o),
(-987,1675,qs),
(-1019,1624,o),
(-1052,1498,o),
(-1052,1430,qs),
(-1052,1364,o),
(-1017,1236,o),
(-987,1186,qs),
(-951,1132,o),
(-852,1067,o),
(-798,1067,qs),
(-725,1067,l),
(-725,1212,l),
(-798,1212,ls),
(-821,1212,o),
(-856,1248,o),
(-865,1263,qs),
(-885,1295,o),
(-906,1382,o),
(-906,1430,qs),
(-906,1478,o),
(-885,1566,o),
(-865,1598,qs),
(-861,1605,o),
(-847,1622,o),
(-830,1637,o),
(-810,1648,o),
(-798,1648,qs),
(-790,1648,o),
(-763,1644,o),
(-731,1619,o),
(-696,1565,o),
(-679,1516,q),
(-552,1516,l),
(-521,1613,o),
(-481,1639,q),
(-481,1638,l),
(-467,1646,o),
(-443,1648,o),
(-433,1648,qs),
(-422,1648,o),
(-401,1637,o),
(-384,1622,o),
(-371,1605,o),
(-366,1598,qs),
(-346,1566,o),
(-325,1478,o),
(-325,1430,qs),
(-325,1382,o),
(-346,1295,o),
(-366,1263,qs),
(-375,1248,o),
(-410,1212,o),
(-433,1212,qs),
(-506,1212,l),
(-506,1067,l),
(-433,1067,ls)
);
}
);
userData = {
assembly = "PUSHW[ ]	/* 1 value pushed */
80 
MDAP[1]	/* MoveDirectAbsPt */
PUSHW[ ]	/* 1 value pushed */
81 
MDAP[1]	/* MoveDirectAbsPt */
PUSHW[ ]	/* 1 value pushed */
73 
MDRP[11100]	/* MoveDirectRelPt */
PUSHW[ ]	/* 2 values pushed */
8 4 
MIRP[10100]	/* MoveIndirectRelPt */
NPUSHW[ ]	/* 5 values pushed */
186 8 202 8 2 
DELTAP1[ ]	/* DeltaExceptionP1 */
NPUSHW[ ]	/* 23 values pushed */
9 8 25 8 41 8 57 8 73 8 89 8 105 8 121 8 137 8 153 8 169 8 11 
DELTAP1[ ]	/* DeltaExceptionP1 */
PUSHW[ ]	/* 1 value pushed */
80 
SRP0[ ]	/* SetRefPoint0 */
PUSHW[ ]	/* 1 value pushed */
51 
MDRP[10000]	/* MoveDirectRelPt */
PUSHW[ ]	/* 1 value pushed */
51 
MDAP[1]	/* MoveDirectAbsPt */
PUSHW[ ]	/* 2 values pushed */
36 4 
MIRP[10100]	/* MoveIndirectRelPt */
NPUSHW[ ]	/* 23 values pushed */
6 36 22 36 38 36 54 36 70 36 86 36 102 36 118 36 134 36 150 36 166 36 11 
DELTAP1[ ]	/* DeltaExceptionP1 */
NPUSHW[ ]	/* 5 values pushed */
181 36 197 36 2 
DELTAP1[ ]	/* DeltaExceptionP1 */
SVTCA[0]	/* SetFreedomAndProjectionVectorToAxis */
PUSHW[ ]	/* 4 values pushed */
1 1 0 4 
CALL[ ]	/* CallFunction */
PUSHW[ ]	/* 4 values pushed */
67 1 16 4 
CALL[ ]	/* CallFunction */
PUSHW[ ]	/* 1 value pushed */
16 
SRP0[ ]	/* SetRefPoint0 */
PUSHW[ ]	/* 1 value pushed */
28 
MDRP[10000]	/* MoveDirectRelPt */
PUSHW[ ]	/* 1 value pushed */
1 
SRP0[ ]	/* SetRefPoint0 */
PUSHW[ ]	/* 1 value pushed */
42 
MDRP[10000]	/* MoveDirectRelPt */
PUSHW[ ]	/* 1 value pushed */
0 
SRP0[ ]	/* SetRefPoint0 */
PUSHW[ ]	/* 1 value pushed */
44 
MDRP[10000]	/* MoveDirectRelPt */
PUSHW[ ]	/* 1 value pushed */
67 
SRP0[ ]	/* SetRefPoint0 */
PUSHW[ ]	/* 1 value pushed */
57 
MDRP[10000]	/* MoveDirectRelPt */
IUP[0]	/* InterpolateUntPts */
IUP[1]	/* InterpolateUntPts */";
};
width = 0;
},
{
anchors = (
{
name = _top;
pos = (-651,1010);
},
{
name = _top_2;
pos = (-646,2002);
}
);
associatedMasterId = m01;
layerId = m003;
shapes = (
{
pos = (-5,1915);
ref = PaL.blw;
}
);
width = 0;
},
{
anchors = (
{
name = _top;
pos = (-616,800);
}
);
associatedMasterId = m01;
layerId = "7A377779-C6E8-464F-B6C1-E6D94FC4B2B3";
name = "7 Aug 21, 06:37";
shapes = (
{
closed = 1;
nodes = (
(-379,1067,o),
(-280,1132,o),
(-244,1186,qs),
(-212,1237,o),
(-179,1363,o),
(-179,1430,qs),
(-179,1496,o),
(-214,1625,o),
(-244,1675,qs),
(-280,1728,o),
(-379,1794,o),
(-433,1794,qs),
(-445,1794,o),
(-487,1791,o),
(-536,1776,o),
(-591,1742,o),
(-617,1711,q),
(-642,1741,o),
(-679,1763,qs),
(-719,1786,o),
(-782,1794,o),
(-798,1794,qs),
(-852,1794,o),
(-951,1728,o),
(-987,1675,qs),
(-1019,1624,o),
(-1052,1498,o),
(-1052,1430,qs),
(-1052,1364,o),
(-1017,1236,o),
(-987,1186,qs),
(-951,1132,o),
(-852,1067,o),
(-798,1067,qs),
(-725,1067,l),
(-725,1212,l),
(-798,1212,ls),
(-821,1212,o),
(-856,1248,o),
(-865,1263,qs),
(-885,1295,o),
(-906,1382,o),
(-906,1430,qs),
(-906,1478,o),
(-885,1566,o),
(-865,1598,qs),
(-861,1605,o),
(-847,1622,o),
(-830,1637,o),
(-810,1648,o),
(-798,1648,qs),
(-790,1648,o),
(-763,1644,o),
(-731,1619,o),
(-696,1565,o),
(-679,1516,q),
(-552,1516,l),
(-521,1613,o),
(-481,1639,q),
(-481,1638,l),
(-467,1646,o),
(-443,1648,o),
(-433,1648,qs),
(-422,1648,o),
(-401,1637,o),
(-384,1622,o),
(-371,1605,o),
(-366,1598,qs),
(-346,1566,o),
(-325,1478,o),
(-325,1430,qs),
(-325,1382,o),
(-346,1295,o),
(-366,1263,qs),
(-375,1248,o),
(-410,1212,o),
(-433,1212,qs),
(-506,1212,l),
(-506,1067,l),
(-433,1067,ls)
);
}
);
userData = {
assembly = "PUSHW[ ]	/* 1 value pushed */
80 
MDAP[1]	/* MoveDirectAbsPt */
PUSHW[ ]	/* 1 value pushed */
81 
MDAP[1]	/* MoveDirectAbsPt */
PUSHW[ ]	/* 1 value pushed */
73 
MDRP[11100]	/* MoveDirectRelPt */
PUSHW[ ]	/* 2 values pushed */
8 4 
MIRP[10100]	/* MoveIndirectRelPt */
NPUSHW[ ]	/* 5 values pushed */
186 8 202 8 2 
DELTAP1[ ]	/* DeltaExceptionP1 */
NPUSHW[ ]	/* 23 values pushed */
9 8 25 8 41 8 57 8 73 8 89 8 105 8 121 8 137 8 153 8 169 8 11 
DELTAP1[ ]	/* DeltaExceptionP1 */
PUSHW[ ]	/* 1 value pushed */
80 
SRP0[ ]	/* SetRefPoint0 */
PUSHW[ ]	/* 1 value pushed */
51 
MDRP[10000]	/* MoveDirectRelPt */
PUSHW[ ]	/* 1 value pushed */
51 
MDAP[1]	/* MoveDirectAbsPt */
PUSHW[ ]	/* 2 values pushed */
36 4 
MIRP[10100]	/* MoveIndirectRelPt */
NPUSHW[ ]	/* 23 values pushed */
6 36 22 36 38 36 54 36 70 36 86 36 102 36 118 36 134 36 150 36 166 36 11 
DELTAP1[ ]	/* DeltaExceptionP1 */
NPUSHW[ ]	/* 5 values pushed */
181 36 197 36 2 
DELTAP1[ ]	/* DeltaExceptionP1 */
SVTCA[0]	/* SetFreedomAndProjectionVectorToAxis */
PUSHW[ ]	/* 4 values pushed */
1 1 0 4 
CALL[ ]	/* CallFunction */
PUSHW[ ]	/* 4 values pushed */
67 1 16 4 
CALL[ ]	/* CallFunction */
PUSHW[ ]	/* 1 value pushed */
16 
SRP0[ ]	/* SetRefPoint0 */
PUSHW[ ]	/* 1 value pushed */
28 
MDRP[10000]	/* MoveDirectRelPt */
PUSHW[ ]	/* 1 value pushed */
1 
SRP0[ ]	/* SetRefPoint0 */
PUSHW[ ]	/* 1 value pushed */
42 
MDRP[10000]	/* MoveDirectRelPt */
PUSHW[ ]	/* 1 value pushed */
0 
SRP0[ ]	/* SetRefPoint0 */
PUSHW[ ]	/* 1 value pushed */
44 
MDRP[10000]	/* MoveDirectRelPt */
PUSHW[ ]	/* 1 value pushed */
67 
SRP0[ ]	/* SetRefPoint0 */
PUSHW[ ]	/* 1 value pushed */
57 
MDRP[10000]	/* MoveDirectRelPt */
IUP[0]	/* InterpolateUntPts */
IUP[1]	/* InterpolateUntPts */";
};
width = 0;
},
{
anchors = (
{
name = _top;
pos = (-616,800);
}
);
associatedMasterId = m01;
layerId = "124ABF9C-206E-4486-B037-4A077989F1E0";
name = "7 Aug 21, 06:37";
shapes = (
{
closed = 1;
nodes = (
(-379,1067,o),
(-280,1132,o),
(-244,1186,qs),
(-212,1237,o),
(-179,1363,o),
(-179,1430,qs),
(-179,1496,o),
(-214,1625,o),
(-244,1675,qs),
(-280,1728,o),
(-379,1794,o),
(-433,1794,qs),
(-445,1794,o),
(-487,1791,o),
(-536,1776,o),
(-591,1742,o),
(-617,1711,q),
(-642,1741,o),
(-679,1763,qs),
(-719,1786,o),
(-782,1794,o),
(-798,1794,qs),
(-852,1794,o),
(-951,1728,o),
(-987,1675,qs),
(-1019,1624,o),
(-1052,1498,o),
(-1052,1430,qs),
(-1052,1364,o),
(-1017,1236,o),
(-987,1186,qs),
(-951,1132,o),
(-852,1067,o),
(-798,1067,qs),
(-725,1067,l),
(-725,1212,l),
(-798,1212,ls),
(-821,1212,o),
(-856,1248,o),
(-865,1263,qs),
(-885,1295,o),
(-906,1382,o),
(-906,1430,qs),
(-906,1478,o),
(-885,1566,o),
(-865,1598,qs),
(-861,1605,o),
(-847,1622,o),
(-830,1637,o),
(-810,1648,o),
(-798,1648,qs),
(-790,1648,o),
(-763,1644,o),
(-731,1619,o),
(-696,1565,o),
(-679,1516,q),
(-552,1516,l),
(-521,1613,o),
(-481,1639,q),
(-481,1638,l),
(-467,1646,o),
(-443,1648,o),
(-433,1648,qs),
(-422,1648,o),
(-401,1637,o),
(-384,1622,o),
(-371,1605,o),
(-366,1598,qs),
(-346,1566,o),
(-325,1478,o),
(-325,1430,qs),
(-325,1382,o),
(-346,1295,o),
(-366,1263,qs),
(-375,1248,o),
(-410,1212,o),
(-433,1212,qs),
(-506,1212,l),
(-506,1067,l),
(-433,1067,ls)
);
}
);
userData = {
assembly = "PUSHW[ ]	/* 1 value pushed */
80 
MDAP[1]	/* MoveDirectAbsPt */
PUSHW[ ]	/* 1 value pushed */
81 
MDAP[1]	/* MoveDirectAbsPt */
PUSHW[ ]	/* 1 value pushed */
73 
MDRP[11100]	/* MoveDirectRelPt */
PUSHW[ ]	/* 2 values pushed */
8 4 
MIRP[10100]	/* MoveIndirectRelPt */
NPUSHW[ ]	/* 5 values pushed */
186 8 202 8 2 
DELTAP1[ ]	/* DeltaExceptionP1 */
NPUSHW[ ]	/* 23 values pushed */
9 8 25 8 41 8 57 8 73 8 89 8 105 8 121 8 137 8 153 8 169 8 11 
DELTAP1[ ]	/* DeltaExceptionP1 */
PUSHW[ ]	/* 1 value pushed */
80 
SRP0[ ]	/* SetRefPoint0 */
PUSHW[ ]	/* 1 value pushed */
51 
MDRP[10000]	/* MoveDirectRelPt */
PUSHW[ ]	/* 1 value pushed */
51 
MDAP[1]	/* MoveDirectAbsPt */
PUSHW[ ]	/* 2 values pushed */
36 4 
MIRP[10100]	/* MoveIndirectRelPt */
NPUSHW[ ]	/* 23 values pushed */
6 36 22 36 38 36 54 36 70 36 86 36 102 36 118 36 134 36 150 36 166 36 11 
DELTAP1[ ]	/* DeltaExceptionP1 */
NPUSHW[ ]	/* 5 values pushed */
181 36 197 36 2 
DELTAP1[ ]	/* DeltaExceptionP1 */
SVTCA[0]	/* SetFreedomAndProjectionVectorToAxis */
PUSHW[ ]	/* 4 values pushed */
1 1 0 4 
CALL[ ]	/* CallFunction */
PUSHW[ ]	/* 4 values pushed */
67 1 16 4 
CALL[ ]	/* CallFunction */
PUSHW[ ]	/* 1 value pushed */
16 
SRP0[ ]	/* SetRefPoint0 */
PUSHW[ ]	/* 1 value pushed */
28 
MDRP[10000]	/* MoveDirectRelPt */
PUSHW[ ]	/* 1 value pushed */
1 
SRP0[ ]	/* SetRefPoint0 */
PUSHW[ ]	/* 1 value pushed */
42 
MDRP[10000]	/* MoveDirectRelPt */
PUSHW[ ]	/* 1 value pushed */
0 
SRP0[ ]	/* SetRefPoint0 */
PUSHW[ ]	/* 1 value pushed */
44 
MDRP[10000]	/* MoveDirectRelPt */
PUSHW[ ]	/* 1 value pushed */
67 
SRP0[ ]	/* SetRefPoint0 */
PUSHW[ ]	/* 1 value pushed */
57 
MDRP[10000]	/* MoveDirectRelPt */
IUP[0]	/* InterpolateUntPts */
IUP[1]	/* InterpolateUntPts */";
};
width = 0;
},
{
anchors = (
{
name = _top;
pos = (-616,800);
}
);
associatedMasterId = m01;
layerId = "72AAB749-87D8-4090-8B4B-20184E404B03";
name = "7 Aug 21, 06:37";
shapes = (
{
closed = 1;
nodes = (
(-379,1067,o),
(-280,1132,o),
(-244,1186,qs),
(-212,1237,o),
(-179,1363,o),
(-179,1430,qs),
(-179,1496,o),
(-214,1625,o),
(-244,1675,qs),
(-280,1728,o),
(-379,1794,o),
(-433,1794,qs),
(-445,1794,o),
(-487,1791,o),
(-536,1776,o),
(-591,1742,o),
(-617,1711,q),
(-642,1741,o),
(-679,1763,qs),
(-719,1786,o),
(-782,1794,o),
(-798,1794,qs),
(-852,1794,o),
(-951,1728,o),
(-987,1675,qs),
(-1019,1624,o),
(-1052,1498,o),
(-1052,1430,qs),
(-1052,1364,o),
(-1017,1236,o),
(-987,1186,qs),
(-951,1132,o),
(-852,1067,o),
(-798,1067,qs),
(-725,1067,l),
(-725,1212,l),
(-798,1212,ls),
(-821,1212,o),
(-856,1248,o),
(-865,1263,qs),
(-885,1295,o),
(-906,1382,o),
(-906,1430,qs),
(-906,1478,o),
(-885,1566,o),
(-865,1598,qs),
(-861,1605,o),
(-847,1622,o),
(-830,1637,o),
(-810,1648,o),
(-798,1648,qs),
(-790,1648,o),
(-763,1644,o),
(-731,1619,o),
(-696,1565,o),
(-679,1516,q),
(-552,1516,l),
(-521,1613,o),
(-481,1639,q),
(-481,1638,l),
(-467,1646,o),
(-443,1648,o),
(-433,1648,qs),
(-422,1648,o),
(-401,1637,o),
(-384,1622,o),
(-371,1605,o),
(-366,1598,qs),
(-346,1566,o),
(-325,1478,o),
(-325,1430,qs),
(-325,1382,o),
(-346,1295,o),
(-366,1263,qs),
(-375,1248,o),
(-410,1212,o),
(-433,1212,qs),
(-506,1212,l),
(-506,1067,l),
(-433,1067,ls)
);
}
);
userData = {
assembly = "PUSHW[ ]	/* 1 value pushed */
80 
MDAP[1]	/* MoveDirectAbsPt */
PUSHW[ ]	/* 1 value pushed */
81 
MDAP[1]	/* MoveDirectAbsPt */
PUSHW[ ]	/* 1 value pushed */
73 
MDRP[11100]	/* MoveDirectRelPt */
PUSHW[ ]	/* 2 values pushed */
8 4 
MIRP[10100]	/* MoveIndirectRelPt */
NPUSHW[ ]	/* 5 values pushed */
186 8 202 8 2 
DELTAP1[ ]	/* DeltaExceptionP1 */
NPUSHW[ ]	/* 23 values pushed */
9 8 25 8 41 8 57 8 73 8 89 8 105 8 121 8 137 8 153 8 169 8 11 
DELTAP1[ ]	/* DeltaExceptionP1 */
PUSHW[ ]	/* 1 value pushed */
80 
SRP0[ ]	/* SetRefPoint0 */
PUSHW[ ]	/* 1 value pushed */
51 
MDRP[10000]	/* MoveDirectRelPt */
PUSHW[ ]	/* 1 value pushed */
51 
MDAP[1]	/* MoveDirectAbsPt */
PUSHW[ ]	/* 2 values pushed */
36 4 
MIRP[10100]	/* MoveIndirectRelPt */
NPUSHW[ ]	/* 23 values pushed */
6 36 22 36 38 36 54 36 70 36 86 36 102 36 118 36 134 36 150 36 166 36 11 
DELTAP1[ ]	/* DeltaExceptionP1 */
NPUSHW[ ]	/* 5 values pushed */
181 36 197 36 2 
DELTAP1[ ]	/* DeltaExceptionP1 */
SVTCA[0]	/* SetFreedomAndProjectionVectorToAxis */
PUSHW[ ]	/* 4 values pushed */
1 1 0 4 
CALL[ ]	/* CallFunction */
PUSHW[ ]	/* 4 values pushed */
67 1 16 4 
CALL[ ]	/* CallFunction */
PUSHW[ ]	/* 1 value pushed */
16 
SRP0[ ]	/* SetRefPoint0 */
PUSHW[ ]	/* 1 value pushed */
28 
MDRP[10000]	/* MoveDirectRelPt */
PUSHW[ ]	/* 1 value pushed */
1 
SRP0[ ]	/* SetRefPoint0 */
PUSHW[ ]	/* 1 value pushed */
42 
MDRP[10000]	/* MoveDirectRelPt */
PUSHW[ ]	/* 1 value pushed */
0 
SRP0[ ]	/* SetRefPoint0 */
PUSHW[ ]	/* 1 value pushed */
44 
MDRP[10000]	/* MoveDirectRelPt */
PUSHW[ ]	/* 1 value pushed */
67 
SRP0[ ]	/* SetRefPoint0 */
PUSHW[ ]	/* 1 value pushed */
57 
MDRP[10000]	/* MoveDirectRelPt */
IUP[0]	/* InterpolateUntPts */
IUP[1]	/* InterpolateUntPts */";
};
width = 0;
},
{
anchors = (
{
name = _top;
pos = (-616,800);
}
);
associatedMasterId = m01;
layerId = "9E6C5866-F4BA-4E32-A20A-6378FE1A18D9";
name = "7 Aug 21, 06:38";
shapes = (
{
closed = 1;
nodes = (
(-379,1067,o),
(-280,1132,o),
(-244,1186,qs),
(-212,1237,o),
(-179,1363,o),
(-179,1430,qs),
(-179,1496,o),
(-214,1625,o),
(-244,1675,qs),
(-280,1728,o),
(-379,1794,o),
(-433,1794,qs),
(-445,1794,o),
(-487,1791,o),
(-536,1776,o),
(-591,1742,o),
(-617,1711,q),
(-642,1741,o),
(-679,1763,qs),
(-719,1786,o),
(-782,1794,o),
(-798,1794,qs),
(-852,1794,o),
(-951,1728,o),
(-987,1675,qs),
(-1019,1624,o),
(-1052,1498,o),
(-1052,1430,qs),
(-1052,1364,o),
(-1017,1236,o),
(-987,1186,qs),
(-951,1132,o),
(-852,1067,o),
(-798,1067,qs),
(-725,1067,l),
(-725,1212,l),
(-798,1212,ls),
(-821,1212,o),
(-856,1248,o),
(-865,1263,qs),
(-885,1295,o),
(-906,1382,o),
(-906,1430,qs),
(-906,1478,o),
(-885,1566,o),
(-865,1598,qs),
(-861,1605,o),
(-847,1622,o),
(-830,1637,o),
(-810,1648,o),
(-798,1648,qs),
(-790,1648,o),
(-763,1644,o),
(-731,1619,o),
(-696,1565,o),
(-679,1516,q),
(-552,1516,l),
(-521,1613,o),
(-481,1639,q),
(-481,1638,l),
(-467,1646,o),
(-443,1648,o),
(-433,1648,qs),
(-422,1648,o),
(-401,1637,o),
(-384,1622,o),
(-371,1605,o),
(-366,1598,qs),
(-346,1566,o),
(-325,1478,o),
(-325,1430,qs),
(-325,1382,o),
(-346,1295,o),
(-366,1263,qs),
(-375,1248,o),
(-410,1212,o),
(-433,1212,qs),
(-506,1212,l),
(-506,1067,l),
(-433,1067,ls)
);
}
);
userData = {
assembly = "PUSHW[ ]	/* 1 value pushed */
80 
MDAP[1]	/* MoveDirectAbsPt */
PUSHW[ ]	/* 1 value pushed */
81 
MDAP[1]	/* MoveDirectAbsPt */
PUSHW[ ]	/* 1 value pushed */
73 
MDRP[11100]	/* MoveDirectRelPt */
PUSHW[ ]	/* 2 values pushed */
8 4 
MIRP[10100]	/* MoveIndirectRelPt */
NPUSHW[ ]	/* 5 values pushed */
186 8 202 8 2 
DELTAP1[ ]	/* DeltaExceptionP1 */
NPUSHW[ ]	/* 23 values pushed */
9 8 25 8 41 8 57 8 73 8 89 8 105 8 121 8 137 8 153 8 169 8 11 
DELTAP1[ ]	/* DeltaExceptionP1 */
PUSHW[ ]	/* 1 value pushed */
80 
SRP0[ ]	/* SetRefPoint0 */
PUSHW[ ]	/* 1 value pushed */
51 
MDRP[10000]	/* MoveDirectRelPt */
PUSHW[ ]	/* 1 value pushed */
51 
MDAP[1]	/* MoveDirectAbsPt */
PUSHW[ ]	/* 2 values pushed */
36 4 
MIRP[10100]	/* MoveIndirectRelPt */
NPUSHW[ ]	/* 23 values pushed */
6 36 22 36 38 36 54 36 70 36 86 36 102 36 118 36 134 36 150 36 166 36 11 
DELTAP1[ ]	/* DeltaExceptionP1 */
NPUSHW[ ]	/* 5 values pushed */
181 36 197 36 2 
DELTAP1[ ]	/* DeltaExceptionP1 */
SVTCA[0]	/* SetFreedomAndProjectionVectorToAxis */
PUSHW[ ]	/* 4 values pushed */
1 1 0 4 
CALL[ ]	/* CallFunction */
PUSHW[ ]	/* 4 values pushed */
67 1 16 4 
CALL[ ]	/* CallFunction */
PUSHW[ ]	/* 1 value pushed */
16 
SRP0[ ]	/* SetRefPoint0 */
PUSHW[ ]	/* 1 value pushed */
28 
MDRP[10000]	/* MoveDirectRelPt */
PUSHW[ ]	/* 1 value pushed */
1 
SRP0[ ]	/* SetRefPoint0 */
PUSHW[ ]	/* 1 value pushed */
42 
MDRP[10000]	/* MoveDirectRelPt */
PUSHW[ ]	/* 1 value pushed */
0 
SRP0[ ]	/* SetRefPoint0 */
PUSHW[ ]	/* 1 value pushed */
44 
MDRP[10000]	/* MoveDirectRelPt */
PUSHW[ ]	/* 1 value pushed */
67 
SRP0[ ]	/* SetRefPoint0 */
PUSHW[ ]	/* 1 value pushed */
57 
MDRP[10000]	/* MoveDirectRelPt */
IUP[0]	/* InterpolateUntPts */
IUP[1]	/* InterpolateUntPts */";
};
width = 0;
}
);
note = uni1A5A;
unicode = 6746;
},
{
color = 4;
glyphname = HaangPa;
lastChange = "2024-02-09 17:04:02 +0000";
layers = (
{
anchors = (
{
name = bottom;
pos = (-790,-884);
}
);
layerId = m01;
shapes = (
{
closed = 1;
nodes = (
(-479,-850,o),
(-181,-705,o),
(-181,-389,cs),
(-181,-125,ls),
(-181,-29,o),
(-220,49,o),
(-354,133,c),
(-427,13,l),
(-328,-48,o),
(-321,-88,o),
(-321,-125,cs),
(-321,-389,ls),
(-321,-612,o),
(-548,-710,o),
(-787,-710,cs),
(-923,-710,o),
(-1156,-646,o),
(-1156,-535,cs),
(-1156,-444,o),
(-1000,-359,o),
(-807,-359,cs),
(-724,-359,o),
(-648,-383,o),
(-590,-426,cs),
(-533,-469,l),
(-447,-359,l),
(-505,-314,ls),
(-583,-254,o),
(-703,-219,o),
(-807,-219,cs),
(-1026,-219,o),
(-1296,-322,o),
(-1296,-535,cs),
(-1296,-751,o),
(-1003,-850,o),
(-787,-850,cs)
);
}
);
width = 0;
},
{
anchors = (
{
name = bottom;
pos = (-790,-810);
}
);
associatedMasterId = m01;
layerId = m003;
shapes = (
{
closed = 1;
nodes = (
(-479,-776,o),
(-181,-631,o),
(-181,-315,cs),
(-181,-71,ls),
(-181,25,o),
(-220,103,o),
(-354,187,c),
(-430,62,l),
(-331,1,o),
(-327,-44,o),
(-327,-71,cs),
(-327,-315,ls),
(-327,-538,o),
(-550,-630,o),
(-787,-630,cs),
(-908,-630,o),
(-1151,-572,o),
(-1151,-461,cs),
(-1151,-368,o),
(-1000,-291,o),
(-807,-291,cs),
(-724,-291,o),
(-651,-314,o),
(-593,-357,cs),
(-536,-400,l),
(-447,-285,l),
(-505,-240,ls),
(-583,-180,o),
(-703,-145,o),
(-807,-145,cs),
(-1026,-145,o),
(-1296,-248,o),
(-1296,-461,cs),
(-1296,-677,o),
(-1003,-776,o),
(-787,-776,cs)
);
}
);
width = 0;
}
);
note = uni1A5B;
unicode = 6747;
},
{
color = 4;
glyphname = MaNoi;
lastChange = "2023-08-24 16:57:27 +0000";
layers = (
{
anchors = (
{
name = _bottom;
pos = (-613,-80);
}
);
layerId = m01;
shapes = (
{
closed = 1;
nodes = (
(-227,-831,l),
(-267,-658,o),
(-344,-473,o),
(-619,-473,cs),
(-702,-473,o),
(-777,-503,o),
(-817,-554,c),
(-722,-624,l),
(-697,-600,o),
(-633,-584,o),
(-612,-585,cs),
(-456,-592,o),
(-376,-720,o),
(-349,-857,c)
);
},
{
ref = BaNoi;
}
);
width = 0;
},
{
anchors = (
{
name = _bottom;
pos = (-613,-80);
}
);
associatedMasterId = m01;
layerId = m003;
shapes = (
{
closed = 1;
nodes = (
(-227,-831,l),
(-267,-658,o),
(-344,-473,o),
(-619,-473,cs),
(-702,-473,o),
(-777,-503,o),
(-817,-554,c),
(-722,-624,l),
(-697,-600,o),
(-633,-584,o),
(-612,-585,cs),
(-456,-592,o),
(-376,-720,o),
(-349,-857,c)
);
},
{
ref = BaNoi;
}
);
width = 0;
}
);
note = uni1A5C;
unicode = 6748;
},
{
color = 4;
glyphname = BaNoi;
lastChange = "2024-01-23 18:05:23 +0000";
layers = (
{
anchors = (
{
name = _bottom;
pos = (-616,-100);
}
);
layerId = m01;
shapes = (
{
closed = 1;
nodes = (
(-379,-850,o),
(-171,-744,o),
(-171,-478,cs),
(-171,-311,o),
(-298,-192,o),
(-462,-130,c),
(-517,-245,l),
(-404,-287,o),
(-310,-357,o),
(-310,-478,cs),
(-310,-669,o),
(-450,-725,o),
(-648,-725,cs),
(-775,-725,o),
(-981,-692,o),
(-981,-563,cs),
(-981,-443,o),
(-726,-529,o),
(-726,-284,cs),
(-726,-206,o),
(-827,-140,o),
(-935,-140,cs),
(-1049,-140,l),
(-1049,-264,l),
(-981,-261,o),
(-931,-261,o),
(-900,-268,cs),
(-868,-275,o),
(-852,-280,o),
(-852,-300,cs),
(-852,-404,o),
(-1103,-363,o),
(-1103,-529,c),
(-1103,-774,o),
(-889,-850,o),
(-643,-850,cs)
);
}
);
width = 0;
},
{
anchors = (
{
name = _bottom;
pos = (-616,-80);
}
);
associatedMasterId = m01;
layerId = m003;
shapes = (
{
closed = 1;
nodes = (
(-379,-813,o),
(-171,-707,o),
(-171,-441,cs),
(-171,-274,o),
(-298,-155,o),
(-462,-93,c),
(-517,-208,l),
(-404,-250,o),
(-310,-320,o),
(-310,-441,cs),
(-310,-632,o),
(-450,-688,o),
(-648,-688,cs),
(-775,-688,o),
(-981,-655,o),
(-981,-526,cs),
(-981,-406,o),
(-726,-492,o),
(-726,-247,cs),
(-726,-169,o),
(-827,-103,o),
(-935,-103,cs),
(-1049,-103,l),
(-1049,-227,l),
(-981,-224,o),
(-931,-224,o),
(-900,-231,cs),
(-868,-238,o),
(-852,-243,o),
(-852,-263,cs),
(-852,-367,o),
(-1103,-326,o),
(-1103,-492,c),
(-1103,-737,o),
(-889,-813,o),
(-643,-813,cs)
);
}
);
width = 0;
}
);
note = uni1A5D;
unicode = 6749;
},
{
category = Letter;
color = 3;
glyphname = TuaII;
lastChange = "2024-02-07 17:15:11 +0000";
layers = (
{
anchors = (
{
name = am;
pos = (764,1010);
},
{
name = bottom;
pos = (816,-918);
},
{
name = top;
pos = (764,1000);
}
);
layerId = m01;
shapes = (
{
closed = 1;
nodes = (
(1647,-378,o),
(1800,-275,o),
(1800,-126,cs),
(1800,789,ls),
(1800,905,o),
(1700,1000,o),
(1575,1000,cs),
(1486,1000,l),
(1486,861,l),
(1575,861,ls),
(1621,861,o),
(1660,828,o),
(1660,789,cs),
(1660,-126,ls),
(1660,-193,o),
(1578,-237,o),
(1497,-237,cs),
(1416,-237,o),
(1337,-193,o),
(1337,-126,cs),
(1337,-88,l),
(1196,-87,l),
(1196,-126,ls),
(1196,-275,o),
(1349,-378,o),
(1497,-378,cs)
);
},
{
ref = TuaI;
}
);
width = 1950;
},
{
anchors = (
{
name = am;
pos = (764,1010);
},
{
name = bottom;
pos = (816,-918);
},
{
name = top;
pos = (764,1000);
}
);
associatedMasterId = m01;
layerId = m003;
shapes = (
{
closed = 1;
nodes = (
(1653,-388,o),
(1812,-283,o),
(1812,-128,cs),
(1812,797,ls),
(1812,918,o),
(1707,1018,o),
(1577,1018,cs),
(1394,1018,l),
(1504,873,l),
(1577,873,ls),
(1626,873,o),
(1666,840,o),
(1666,797,cs),
(1666,-128,ls),
(1666,-197,o),
(1580,-242,o),
(1496,-242,cs),
(1411,-242,o),
(1327,-197,o),
(1327,-128,cs),
(1327,5,l),
(1181,-85,l),
(1181,-128,ls),
(1181,-283,o),
(1341,-388,o),
(1496,-388,cs)
);
},
{
ref = TuaI;
}
);
width = 1962;
}
);
note = uni1A4E;
script = tham;
subCategory = Letter;
tags = (
"Letter Base"
);
unicode = 6734;
},
{
glyphname = TuaU;
lastChange = "2024-02-09 16:51:58 +0000";
layers = (
{
anchors = (
{
name = am;
pos = (713,1010);
}
);
layerId = m01;
shapes = (
{
closed = 1;
nodes = (
(954,-850,o),
(1250,-737,o),
(1250,-494,cs),
(1250,-422,l),
(1110,-422,l),
(1110,-494,ls),
(1110,-645,o),
(868,-706,o),
(699,-706,cs),
(544,-706,o),
(294,-639,o),
(294,-494,cs),
(294,93,l),
(381,34,o),
(572,0,o),
(699,0,cs),
(925,0,o),
(1250,67,o),
(1250,303,cs),
(1250,716,ls),
(1250,871,o),
(1101,1000,o),
(944,1000,cs),
(859,1000,o),
(752,918,o),
(699,852,c),
(649,918,o),
(545,1000,o),
(459,1000,cs),
(299,1000,o),
(150,871,o),
(150,716,cs),
(150,617,o),
(200,531,o),
(339,439,c),
(417,557,l),
(315,626,o),
(294,666,o),
(294,716,cs),
(294,795,o),
(377,857,o),
(459,857,cs),
(541,857,o),
(626,778,o),
(702,663,c),
(799,791,o),
(858,857,o),
(944,857,cs),
(1024,857,o),
(1110,796,o),
(1110,716,cs),
(1110,303,ls),
(1110,184,o),
(831,139,o),
(699,141,cs),
(528,143,o),
(427,177,o),
(289,264,c),
(150,175,l),
(150,-494,ls),
(150,-728,o),
(455,-850,o),
(699,-850,cs)
);
}
);
width = 1400;
},
{
anchors = (
{
name = am;
pos = (699,1010);
}
);
associatedMasterId = m01;
layerId = m003;
shapes = (
{
closed = 1;
nodes = (
(946,-801,o),
(1250,-683,o),
(1250,-437,cs),
(1250,-364,l),
(1105,-364,l),
(1105,-437,ls),
(1105,-592,o),
(862,-655,o),
(699,-655,cs),
(548,-655,o),
(296,-586,o),
(296,-437,cs),
(296,94,l),
(385,32,o),
(577,0,o),
(699,0,cs),
(918,0,o),
(1250,68,o),
(1250,309,cs),
(1250,727,ls),
(1250,887,o),
(1097,1018,o),
(937,1018,cs),
(849,1018,o),
(752,932,o),
(699,869,c),
(646,932,o),
(549,1018,o),
(461,1018,cs),
(301,1018,o),
(150,887,o),
(150,727,cs),
(150,627,o),
(198,537,o),
(342,444,c),
(423,565,l),
(320,633,o),
(296,678,o),
(296,727,cs),
(296,808,o),
(382,873,o),
(461,873,cs),
(544,873,o),
(624,791,o),
(702,675,c),
(791,804,o),
(848,873,o),
(937,873,cs),
(1016,873,o),
(1105,809,o),
(1105,727,cs),
(1105,309,ls),
(1105,189,o),
(826,143,o),
(699,145,cs),
(532,148,o),
(435,181,o),
(291,269,c),
(150,179,l),
(150,-437,ls),
(150,-675,o),
(457,-801,o),
(699,-801,cs)
);
}
);
width = 1400;
}
);
note = uni1A4F;
subCategory = Letter;
tags = (
"Letter Base"
);
unicode = 6735;
},
{
color = 3;
glyphname = TuaUU;
lastChange = "2023-11-19 19:53:30 +0000";
layers = (
{
anchors = (
{
name = am;
pos = (699,1010);
}
);
layerId = m01;
shapes = (
{
closed = 1;
nodes = (
(289,1301,l),
(288,1472,ls),
(287,1679,o),
(484,1841,o),
(727,1841,cs),
(786,1841,o),
(838,1832,o),
(888,1816,c),
(997,1919,l),
(906,1965,o),
(836,1980,o),
(727,1980,cs),
(425,1980,o),
(153,1782,o),
(151,1472,cs),
(150,1301,l),
(215,1268,l)
);
},
{
ref = TuaU;
},
{
closed = 1;
nodes = (
(300,865,l),
(329,950,l),
(306,974,o),
(290,1038,o),
(290,1091,cs),
(289,1301,l),
(150,1301,l),
(151,1091,ls),
(151,1007,o),
(177,918,o),
(219,865,c)
);
}
);
width = 1400;
},
{
anchors = (
{
name = am;
pos = (699,1010);
}
);
associatedMasterId = m01;
layerId = m003;
shapes = (
{
closed = 1;
nodes = (
(296,1359,l),
(295,1455,ls),
(293,1672,o),
(500,1842,o),
(756,1842,cs),
(817,1842,o),
(873,1833,o),
(925,1816,c),
(1071,1914,l),
(975,1963,o),
(870,1988,o),
(756,1988,cs),
(439,1988,o),
(154,1780,o),
(151,1455,cs),
(150,1359,l),
(218,1325,l)
);
},
{
ref = TuaU;
},
{
closed = 1;
nodes = (
(307,903,l),
(338,990,l),
(314,1017,o),
(297,1083,o),
(297,1139,cs),
(296,1359,l),
(150,1359,l),
(151,1139,ls),
(151,1051,o),
(178,958,o),
(222,903,c)
);
}
);
width = 1400;
}
);
note = uni1A50;
subCategory = Letter;
tags = (
"Letter Base"
);
unicode = 6736;
},
{
category = Letter;
glyphname = TuaEE;
lastChange = "2024-02-09 16:52:08 +0000";
layers = (
{
anchors = (
{
name = am;
pos = (680,1010);
}
);
layerId = m01;
shapes = (
{
closed = 1;
nodes = (
(1250,722,ls),
(1249,875,o),
(1104,1000,o),
(950,1000,cs),
(867,1000,o),
(750,936,o),
(701,877,c),
(648,936,o),
(530,1000,o),
(448,1000,cs),
(294,1000,o),
(150,874,o),
(150,720,cs),
(150,423,ls),
(150,296,o),
(205,207,o),
(331,145,c),
(199,74,o),
(150,15,o),
(150,-134,cs),
(150,-504,ls),
(150,-721,o),
(433,-850,o),
(701,-850,cs),
(963,-850,o),
(1250,-715,o),
(1250,-502,cs),
(1250,-432,l),
(1111,-432,l),
(1111,-502,ls),
(1111,-635,o),
(866,-710,o),
(701,-710,cs),
(531,-710,o),
(290,-637,o),
(290,-504,cs),
(290,-134,ls),
(290,32,o),
(430,74,o),
(570,145,c),
(369,233,o),
(290,296,o),
(290,423,cs),
(290,720,ls),
(290,799,o),
(370,861,o),
(448,861,cs),
(531,861,o),
(599,788,o),
(704,670,c),
(756,752,o),
(854,861,o),
(950,861,cs),
(1026,861,o),
(1110,794,o),
(1110,722,cs),
(1110,602,ls),
(1110,556,o),
(1087,515,o),
(990,448,c),
(1067,332,l),
(1202,420,o),
(1250,508,o),
(1250,602,cs)
);
}
);
width = 1400;
},
{
anchors = (
{
name = am;
pos = (659,1010);
}
);
associatedMasterId = m01;
layerId = m003;
shapes = (
{
closed = 1;
nodes = (
(951,-795,o),
(1250,-654,o),
(1250,-431,cs),
(1250,-358,l),
(1105,-358,l),
(1105,-431,ls),
(1105,-571,o),
(850,-649,o),
(700,-649,cs),
(549,-649,o),
(298,-573,o),
(298,-433,cs),
(298,-71,ls),
(298,102,o),
(444,145,o),
(589,219,c),
(381,310,o),
(298,377,o),
(298,509,cs),
(298,726,ls),
(298,807,o),
(382,873,o),
(463,873,cs),
(549,873,o),
(617,796,o),
(706,675,c),
(760,759,o),
(838,873,o),
(938,873,cs),
(1017,873,o),
(1105,809,o),
(1105,727,cs),
(1105,679,o),
(1080,634,o),
(979,565,c),
(1059,444,l),
(1200,537,o),
(1250,628,o),
(1250,727,cs),
(1250,887,o),
(1098,1018,o),
(938,1018,cs),
(851,1018,o),
(753,951,o),
(700,890,c),
(647,950,o),
(548,1018,o),
(463,1018,cs),
(302,1018,o),
(152,887,o),
(152,726,cs),
(152,509,ls),
(152,378,o),
(209,285,o),
(341,219,c),
(202,145,o),
(152,84,o),
(152,-71,cs),
(152,-433,ls),
(152,-660,o),
(448,-795,o),
(700,-795,cs)
);
}
);
width = 1400;
}
);
note = uni1A51;
production = uni1A51;
script = tham;
subCategory = Letter;
tags = (
"Letter Base"
);
unicode = 6737;
},
{
glyphname = TuaOO;
lastChange = "2024-02-08 17:46:57 +0000";
layers = (
{
anchors = (
{
name = am;
pos = (1663,1010);
}
);
layerId = m01;
shapes = (
{
pos = (789,0);
ref = TuaA;
},
{
closed = 1;
nodes = (
(289,15,l),
(289,-153,o),
(414,-301,o),
(605,-301,cs),
(759,-301,o),
(857,-210,o),
(901,-91,c),
(770,-39,l),
(746,-107,o),
(695,-161,o),
(605,-161,cs),
(498,-161,o),
(429,-77,o),
(429,15,c)
);
},
{
closed = 1;
nodes = (
(429,15,l),
(429,925,ls),
(429,1048,o),
(493,1127,o),
(651,1244,c),
(430,1362,o),
(290,1437,o),
(290,1581,cs),
(290,1741,o),
(491,1838,o),
(665,1838,cs),
(784,1838,o),
(913,1792,o),
(980,1721,cs),
(1029,1669,l),
(1130,1766,l),
(1082,1816,ls),
(973,1928,o),
(821,1980,o),
(665,1980,cs),
(404,1980,o),
(150,1815,o),
(150,1581,cs),
(150,1409,o),
(261,1289,o),
(411,1227,c),
(324,1132,o),
(289,1012,o),
(289,905,cs),
(289,15,l),
(357,-41,l)
);
}
);
width = 2589;
},
{
anchors = (
{
name = am;
pos = (1074,1010);
}
);
associatedMasterId = m01;
layerId = m003;
shapes = (
{
alignment = -1;
pos = (-50,0);
ref = Rawong;
},
{
pos = (500,0);
ref = TuaA;
}
);
width = 2149;
}
);
note = uni1A52;
subCategory = Letter;
tags = (
"Letter Base"
);
unicode = 6738;
},
{
category = Mark;
color = 10;
glyphname = Sakot;
lastChange = "2023-08-21 19:50:04 +0000";
layers = (
{
layerId = m01;
shapes = (
{
closed = 1;
nodes = (
(-762,-719,l),
(-617,-719,l),
(-617,-485,l),
(-383,-485,l),
(-383,-339,l),
(-617,-339,l),
(-617,-105,l),
(-762,-105,l),
(-762,-339,l),
(-996,-339,l),
(-996,-485,l),
(-762,-485,l)
);
}
);
width = 0;
},
{
anchors = (
{
name = _bottom;
pos = (-691,-65);
},
{
name = bottom;
pos = (-690,-800);
}
);
associatedMasterId = m01;
layerId = m003;
shapes = (
{
closed = 1;
nodes = (
(-762,-719,l),
(-617,-719,l),
(-617,-485,l),
(-383,-485,l),
(-383,-339,l),
(-617,-339,l),
(-617,-105,l),
(-762,-105,l),
(-762,-339,l),
(-996,-339,l),
(-996,-485,l),
(-762,-485,l)
);
}
);
width = 0;
}
);
note = uni1A60;
subCategory = Nonspacing;
unicode = 6752;
},
{
color = 6;
glyphname = MaiKA;
lastChange = "2023-12-10 04:31:42 +0000";
layers = (
{
layerId = m01;
shapes = (
{
closed = 1;
nodes = (
(390,551,o),
(472,649,o),
(446,752,c),
(512,723,o),
(544,647,o),
(544,551,c),
(685,551,l),
(685,780,o),
(547,912,o),
(361,912,cs),
(239,912,o),
(125,837,o),
(125,715,cs),
(125,627,o),
(195,551,o),
(288,551,cs)
);
},
{
closed = 1;
nodes = (
(393,59,o),
(472,157,o),
(446,259,c),
(510,231,o),
(544,151,o),
(544,59,c),
(685,59,l),
(685,272,o),
(562,417,o),
(361,417,cs),
(237,417,o),
(125,344,o),
(125,222,cs),
(125,133,o),
(195,59,o),
(288,59,cs)
);
},
{
closed = 1;
nodes = (
(249,635,o),
(211,669,o),
(211,723,cs),
(211,766,o),
(251,796,o),
(296,796,cs),
(345,796,o),
(382,761,o),
(382,714,cs),
(382,670,o),
(345,635,o),
(296,635,cs)
);
},
{
closed = 1;
nodes = (
(252,141,o),
(214,176,o),
(214,229,cs),
(214,272,o),
(254,303,o),
(299,303,cs),
(348,303,o),
(384,268,o),
(384,221,cs),
(384,176,o),
(348,141,o),
(299,141,cs)
);
}
);
width = 835;
},
{
associatedMasterId = m01;
layerId = m003;
shapes = (
{
closed = 1;
nodes = (
(387,571,o),
(464,648,o),
(464,741,cs),
(464,754,o),
(462,767,o),
(459,780,c),
(475,772,o),
(486,763,o),
(499,752,cs),
(540,716,o),
(561,656,o),
(561,571,c),
(706,571,l),
(706,721,o),
(652,811,o),
(597,861,cs),
(537,916,o),
(454,945,o),
(370,945,cs),
(309,945,o),
(251,928,o),
(208,897,cs),
(155,858,o),
(125,805,o),
(125,741,cs),
(125,649,o),
(197,571,o),
(294,571,cs)
);
},
{
closed = 1;
nodes = (
(253,158,o),
(219,186,o),
(217,220,c),
(224,256,o),
(256,282,o),
(294,282,cs),
(338,282,o),
(372,254,o),
(372,220,cs),
(372,184,o),
(338,158,o),
(294,158,cs)
);
},
{
closed = 1;
nodes = (
(386,59,o),
(464,131,o),
(464,228,cs),
(464,241,o),
(462,254,o),
(459,267,c),
(475,259,o),
(486,251,o),
(499,239,cs),
(540,203,o),
(561,142,o),
(561,59,c),
(706,59,l),
(706,210,o),
(652,299,o),
(597,348,cs),
(537,403,o),
(454,432,o),
(370,432,cs),
(309,432,o),
(251,415,o),
(208,384,cs),
(155,347,o),
(125,292,o),
(125,228,cs),
(125,136,o),
(197,59,o),
(294,59,cs)
);
},
{
closed = 1;
nodes = (
(255,676,o),
(225,700,o),
(225,738,c),
(230,768,o),
(257,789,o),
(294,789,cs),
(334,789,o),
(364,765,o),
(364,732,cs),
(364,701,o),
(334,676,o),
(294,676,cs)
);
}
);
width = 856;
}
);
note = uni1A61;
subCategory = Letter;
unicode = 6753;
},
{
color = 9;
glyphname = MaiSat;
lastChange = "2023-08-24 17:00:58 +0000";
layers = (
{
anchors = (
{
name = _top;
pos = (-758,950);
},
{
name = top;
pos = (-765,1386);
},
{
name = top_sam;
pos = (-64,1120);
}
);
layerId = m01;
shapes = (
{
closed = 1;
nodes = (
(-808,1116,l),
(-133,1365,l),
(-133,1511,l),
(-808,1263,l)
);
}
);
width = 0;
},
{
anchors = (
{
name = _top;
pos = (-758,950);
},
{
name = top;
pos = (-765,1386);
},
{
name = top_sam;
pos = (-64,1120);
}
);
associatedMasterId = m01;
layerId = m003;
shapes = (
{
closed = 1;
nodes = (
(-808,1116,l),
(-133,1365,l),
(-133,1511,l),
(-808,1263,l)
);
}
);
width = 0;
}
);
note = uni1A62;
unicode = 6754;
},
{
color = 6;
glyphname = MaiKAA;
lastChange = "2024-02-16 13:39:34 +0000";
layers = (
{
anchors = (
{
name = "*am.tall";
pos = (639,1018);
userData = {
GPOS_Context = "[PaH Ya FaH @abovebase] *";
};
},
{
name = Rana;
pos = (495,-99);
},
{
name = am;
pos = (29,1019);
},
{
name = bottom;
pos = (630,-100);
},
{
name = top;
pos = (638,1018);
}
);
layerId = m01;
shapes = (
{
closed = 1;
nodes = (
(911,0,o),
(1140,216,o),
(1140,500,cs),
(1140,784,o),
(911,1000,o),
(636,1000,cs),
(388,1000,o),
(194,830,o),
(140,587,c),
(281,557,l),
(320,733,o),
(466,858,o),
(636,858,cs),
(835,858,o),
(998,699,o),
(998,500,cs),
(998,305,o),
(839,142,o),
(636,142,cs),
(547,142,o),
(458,180,o),
(380,250,c),
(284,142,l),
(388,49,o),
(511,0,o),
(636,0,cs)
);
}
);
width = 1290;
},
{
anchors = (
{
name = am;
pos = (607,1019);
},
{
name = bottom;
pos = (608,-69);
}
);
associatedMasterId = m01;
layerId = m003;
shapes = (
{
closed = 1;
nodes = (
(887,0,o),
(1122,220,o),
(1122,509,cs),
(1122,798,o),
(887,1018,o),
(607,1018,cs),
(354,1018,o),
(155,845,o),
(100,598,c),
(184,586,l),
(225,767,o),
(378,933,o),
(607,933,cs),
(876,933,o),
(1037,720,o),
(1037,509,cs),
(1037,300,o),
(882,85,o),
(607,85,cs),
(456,85,o),
(382,139,o),
(302,211,c),
(247,145,l),
(352,50,o),
(480,0,o),
(607,0,cs)
);
}
);
width = 1272;
}
);
note = uni1A63;
subCategory = Letter;
unicode = 6755;
},
{
color = 6;
glyphname = MaiKAALuang;
lastChange = "2024-01-23 17:46:29 +0000";
layers = (
{
anchors = (
{
name = top_sam;
pos = (-638,1100);
}
);
layerId = m01;
shapes = (
{
closed = 1;
nodes = (
(155,0,l),
(244,0,ls),
(386,0,o),
(501,115,o),
(501,257,cs),
(501,1628,ls),
(501,1834,o),
(323,1980,o),
(123,1980,cs),
(-48,1980,o),
(-186,1872,o),
(-230,1734,c),
(-92,1701,l),
(-57,1786,o),
(24,1840,o),
(123,1840,cs),
(255,1840,o),
(361,1744,o),
(361,1628,cs),
(361,257,ls),
(361,191,o),
(310,140,o),
(244,140,cs),
(155,140,l)
);
}
);
width = 676;
},
{
anchors = (
{
name = top_sam;
pos = (-638,1100);
}
);
associatedMasterId = m01;
layerId = m003;
shapes = (
{
closed = 1;
nodes = (
(167,0,l),
(260,0,ls),
(406,0,o),
(526,119,o),
(526,267,cs),
(526,1624,ls),
(526,1836,o),
(341,1988,o),
(134,1988,cs),
(-44,1988,o),
(-187,1876,o),
(-233,1733,c),
(-150,1713,l),
(-110,1811,o),
(-28,1903,o),
(134,1903,cs),
(311,1903,o),
(441,1773,o),
(441,1624,cs),
(441,267,ls),
(441,165,o),
(357,85,o),
(260,85,cs),
(167,85,l)
);
}
);
width = 676;
}
);
note = uni1A64;
subCategory = Letter;
unicode = 6756;
},
{
color = 9;
glyphname = MaiKI;
lastChange = "2023-08-24 17:17:25 +0000";
layers = (
{
anchors = (
{
name = _top;
pos = (-971,980);
},
{
name = top;
pos = (-950,1575);
},
{
name = top_alt;
pos = (-1150,1575);
},
{
name = top_sam;
pos = (-503,1104);
}
);
layerId = m01;
shapes = (
{
closed = 1;
nodes = (
(-1035,1217,l),
(-1153,1230,o),
(-1221,1312,o),
(-1221,1390,cs),
(-1221,1506,o),
(-1106,1588,o),
(-951,1588,cs),
(-796,1588,o),
(-681,1506,o),
(-681,1390,cs),
(-681,1312,o),
(-749,1230,o),
(-867,1217,c),
(-818,1104,l),
(-651,1137,o),
(-553,1263,o),
(-553,1390,cs),
(-553,1571,o),
(-734,1712,o),
(-951,1712,cs),
(-1167,1712,o),
(-1349,1571,o),
(-1349,1390,cs),
(-1349,1263,o),
(-1250,1137,o),
(-1083,1103,c)
);
}
);
width = 0;
},
{
anchors = (
{
name = _top;
pos = (-671,1000);
},
{
name = top;
pos = (-650,1575);
},
{
name = top_alt;
pos = (-850,1575);
},
{
name = top_sam;
pos = (-203,1104);
}
);
associatedMasterId = m01;
layerId = m003;
shapes = (
{
closed = 1;
nodes = (
(-735,1217,l),
(-853,1230,o),
(-921,1312,o),
(-921,1390,cs),
(-921,1506,o),
(-806,1588,o),
(-651,1588,cs),
(-496,1588,o),
(-381,1506,o),
(-381,1390,cs),
(-381,1312,o),
(-449,1230,o),
(-567,1217,c),
(-518,1104,l),
(-351,1137,o),
(-253,1263,o),
(-253,1390,cs),
(-253,1571,o),
(-434,1712,o),
(-651,1712,cs),
(-867,1712,o),
(-1049,1571,o),
(-1049,1390,cs),
(-1049,1263,o),
(-950,1137,o),
(-783,1103,c)
);
}
);
width = 0;
}
);
note = uni1A65;
unicode = 6757;
},
{
color = 9;
glyphname = MaiKII;
lastChange = "2023-08-24 17:40:19 +0000";
layers = (
{
anchors = (
{
name = _top;
pos = (-672,980);
},
{
name = top;
pos = (-700,1571);
},
{
name = top_alt;
pos = (-819,1571);
},
{
name = top_sam;
pos = (-103,1098);
}
);
layerId = m01;
shapes = (
{
closed = 1;
nodes = (
(-807,1217,l),
(-872,1250,o),
(-937,1312,o),
(-937,1390,cs),
(-937,1506,o),
(-871,1588,o),
(-740,1588,cs),
(-609,1588,o),
(-543,1508,o),
(-543,1390,cs),
(-543,1312,o),
(-608,1250,o),
(-673,1217,c),
(-586,1104,l),
(-478,1157,o),
(-403,1263,o),
(-403,1390,cs),
(-403,1571,o),
(-556,1712,o),
(-740,1712,cs),
(-924,1712,o),
(-1077,1571,o),
(-1077,1390,cs),
(-1077,1263,o),
(-1001,1157,o),
(-894,1103,c)
);
},
{
closed = 1;
nodes = (
(-128,1295,o),
(-135,1503,o),
(-282,1681,c),
(-388,1628,l),
(-279,1498,o),
(-260,1335,o),
(-369,1167,c),
(-284,1100,l)
);
}
);
width = 0;
},
{
anchors = (
{
name = _top;
pos = (-672,1010);
},
{
name = top;
pos = (-700,1571);
},
{
name = top_alt;
pos = (-819,1571);
},
{
name = top_sam;
pos = (-103,1098);
}
);
associatedMasterId = m01;
layerId = m003;
shapes = (
{
closed = 1;
nodes = (
(-807,1217,l),
(-872,1250,o),
(-937,1312,o),
(-937,1390,cs),
(-937,1506,o),
(-871,1588,o),
(-740,1588,cs),
(-609,1588,o),
(-543,1508,o),
(-543,1390,cs),
(-543,1312,o),
(-608,1250,o),
(-673,1217,c),
(-586,1104,l),
(-478,1157,o),
(-403,1263,o),
(-403,1390,cs),
(-403,1571,o),
(-556,1712,o),
(-740,1712,cs),
(-924,1712,o),
(-1077,1571,o),
(-1077,1390,cs),
(-1077,1263,o),
(-1001,1157,o),
(-894,1103,c)
);
},
{
closed = 1;
nodes = (
(-128,1295,o),
(-135,1503,o),
(-282,1681,c),
(-388,1628,l),
(-279,1498,o),
(-260,1335,o),
(-369,1167,c),
(-284,1100,l)
);
}
);
width = 0;
}
);
note = uni1A66;
unicode = 6758;
},
{
color = 9;
glyphname = MaiKUE;
lastChange = "2023-11-21 15:28:52 +0000";
layers = (
{
anchors = (
{
name = _top;
pos = (-660,980);
},
{
name = top;
pos = (-649,1586);
},
{
name = top_alt;
pos = (-825,1570);
},
{
name = top_sam;
pos = (-178,1104);
}
);
layerId = m01;
shapes = (
{
closed = 1;
nodes = (
(-786,1217,l),
(-865,1250,o),
(-913,1312,o),
(-913,1390,cs),
(-913,1506,o),
(-807,1588,o),
(-651,1588,cs),
(-495,1588,o),
(-389,1506,o),
(-389,1390,cs),
(-389,1312,o),
(-437,1250,o),
(-516,1217,c),
(-467,1104,l),
(-338,1157,o),
(-250,1263,o),
(-250,1390,cs),
(-250,1571,o),
(-432,1712,o),
(-651,1712,cs),
(-869,1712,o),
(-1052,1571,o),
(-1052,1390,cs),
(-1052,1263,o),
(-962,1157,o),
(-834,1103,c)
);
},
{
closed = 1;
nodes = (
(-574,1250,o),
(-510,1311,o),
(-510,1386,cs),
(-510,1461,o),
(-574,1522,o),
(-651,1522,cs),
(-728,1522,o),
(-790,1461,o),
(-790,1386,cs),
(-790,1311,o),
(-728,1250,o),
(-651,1250,cs)
);
},
{
closed = 1;
nodes = (
(-693,1309,o),
(-729,1343,o),
(-729,1386,cs),
(-729,1428,o),
(-693,1462,o),
(-651,1462,cs),
(-607,1462,o),
(-571,1428,o),
(-571,1386,cs),
(-571,1343,o),
(-607,1309,o),
(-651,1309,cs)
);
}
);
width = 0;
},
{
anchors = (
{
name = _top;
pos = (-660,1010);
},
{
name = top;
pos = (-649,1586);
},
{
name = top_alt;
pos = (-825,1570);
},
{
name = top_sam;
pos = (-178,1104);
}
);
associatedMasterId = m01;
layerId = m003;
shapes = (
{
closed = 1;
nodes = (
(-786,1217,l),
(-865,1250,o),
(-913,1312,o),
(-913,1390,cs),
(-913,1506,o),
(-807,1588,o),
(-651,1588,cs),
(-495,1588,o),
(-389,1506,o),
(-389,1390,cs),
(-389,1312,o),
(-437,1250,o),
(-516,1217,c),
(-467,1104,l),
(-338,1157,o),
(-250,1263,o),
(-250,1390,cs),
(-250,1571,o),
(-432,1712,o),
(-651,1712,cs),
(-869,1712,o),
(-1052,1571,o),
(-1052,1390,cs),
(-1052,1263,o),
(-962,1157,o),
(-834,1103,c)
);
},
{
closed = 1;
nodes = (
(-574,1250,o),
(-510,1311,o),
(-510,1386,cs),
(-510,1461,o),
(-574,1522,o),
(-651,1522,cs),
(-728,1522,o),
(-790,1461,o),
(-790,1386,cs),
(-790,1311,o),
(-728,1250,o),
(-651,1250,cs)
);
},
{
closed = 1;
nodes = (
(-679,1334,o),
(-703,1357,o),
(-703,1386,cs),
(-703,1414,o),
(-679,1437,o),
(-651,1437,cs),
(-621,1437,o),
(-597,1414,o),
(-597,1386,cs),
(-597,1357,o),
(-621,1334,o),
(-651,1334,cs)
);
}
);
width = 0;
}
);
note = uni1A67;
unicode = 6759;
},
{
color = 9;
glyphname = MaiKUUE;
lastChange = "2023-11-23 13:51:49 +0000";
layers = (
{
anchors = (
{
name = _top;
pos = (-670,980);
},
{
name = top;
pos = (-672,1562);
},
{
name = top_alt;
pos = (-817,1571);
},
{
name = top_sam;
pos = (-168,1100);
}
);
layerId = m01;
shapes = (
{
closed = 1;
nodes = (
(-786,1217,l),
(-865,1250,o),
(-913,1312,o),
(-913,1390,cs),
(-913,1506,o),
(-808,1588,o),
(-651,1588,cs),
(-586,1588,o),
(-544,1581,o),
(-500,1555,c),
(-569,1501,o),
(-627,1443,o),
(-627,1323,cs),
(-627,1233,o),
(-586,1159,o),
(-466,1104,c),
(-355,1130,o),
(-249,1250,o),
(-249,1390,cs),
(-249,1571,o),
(-431,1712,o),
(-651,1712,cs),
(-870,1712,o),
(-1053,1571,o),
(-1053,1390,cs),
(-1053,1263,o),
(-963,1157,o),
(-835,1103,c)
);
},
{
attr = {
mask = "1";
};
closed = 1;
nodes = (
(-427,1189,o),
(-371,1271,o),
(-365,1355,cs),
(-363,1397,o),
(-381,1462,o),
(-431,1501,c),
(-478,1475,o),
(-536,1426,o),
(-544,1343,cs),
(-550,1278,o),
(-506,1219,o),
(-466,1189,c)
);
}
);
width = 0;
},
{
anchors = (
{
name = _top;
pos = (-670,1010);
},
{
name = top;
pos = (-672,1562);
},
{
name = top_alt;
pos = (-817,1571);
},
{
name = top_sam;
pos = (-168,1100);
}
);
associatedMasterId = m01;
layerId = m003;
shapes = (
{
closed = 1;
nodes = (
(-786,1217,l),
(-865,1250,o),
(-913,1312,o),
(-913,1390,cs),
(-913,1506,o),
(-808,1588,o),
(-651,1588,cs),
(-586,1588,o),
(-528,1574,o),
(-484,1548,c),
(-571,1533,o),
(-639,1443,o),
(-639,1323,cs),
(-639,1201,o),
(-586,1140,o),
(-466,1104,c),
(-355,1130,o),
(-249,1250,o),
(-249,1390,cs),
(-249,1571,o),
(-431,1712,o),
(-651,1712,cs),
(-870,1712,o),
(-1053,1571,o),
(-1053,1390,cs),
(-1053,1263,o),
(-963,1157,o),
(-835,1103,c)
);
},
{
attr = {
mask = "1";
};
closed = 1;
nodes = (
(-443,1212,o),
(-389,1276,o),
(-384,1354,cs),
(-382,1393,o),
(-393,1448,o),
(-423,1466,c),
(-473,1466,o),
(-512,1408,o),
(-518,1349,cs),
(-524,1289,o),
(-516,1240,o),
(-479,1212,c)
);
}
);
width = 0;
}
);
note = uni1A68;
unicode = 6760;
},
{
color = 4;
glyphname = MaiKU;
lastChange = "2024-02-10 14:42:39 +0000";
layers = (
{
anchors = (
{
name = _MaiKU;
pos = (-736,-100);
},
{
name = _bottom;
pos = (-734,-100);
},
{
name = bottom;
pos = (-730,-793);
}
);
layerId = m01;
shapes = (
{
closed = 1;
nodes = (
(-254,-734,l),
(-254,-597,l),
(-593,-597,ls),
(-636,-597,o),
(-671,-562,o),
(-671,-519,cs),
(-671,-150,l),
(-808,-150,l),
(-808,-519,ls),
(-808,-637,o),
(-711,-734,o),
(-593,-734,cs)
);
}
);
width = 0;
},
{
anchors = (
{
name = _bottom;
pos = (-733,-130);
},
{
name = bottom;
pos = (-730,-821);
}
);
associatedMasterId = m01;
layerId = m003;
shapes = (
{
closed = 1;
nodes = (
(-254,-710,l),
(-254,-573,l),
(-593,-573,ls),
(-636,-573,o),
(-671,-538,o),
(-671,-495,cs),
(-671,-156,l),
(-808,-156,l),
(-808,-495,ls),
(-808,-613,o),
(-711,-710,o),
(-593,-710,cs)
);
}
);
width = 0;
}
);
note = uni1A69;
unicode = 6761;
},
{
color = 4;
glyphname = MaiKUU;
lastChange = "2024-02-12 17:28:56 +0000";
layers = (
{
anchors = (
{
name = _MaiKU;
pos = (-687,-100);
},
{
name = _bottom;
pos = (-688,-100);
},
{
name = bottom;
pos = (-670,-817);
}
);
layerId = m01;
shapes = (
{
closed = 1;
nodes = (
(-136,-737,l),
(-136,-600,l),
(-406,-600,ls),
(-449,-600,o),
(-484,-565,o),
(-484,-522,cs),
(-484,-150,l),
(-621,-150,l),
(-621,-522,ls),
(-621,-640,o),
(-524,-737,o),
(-406,-737,cs)
);
},
{
closed = 1;
nodes = (
(-896,-737,l),
(-760,-737,l),
(-760,-150,l),
(-896,-150,l)
);
}
);
width = 0;
},
{
anchors = (
{
name = _bottom;
pos = (-687,-114);
},
{
name = bottom;
pos = (-670,-854);
}
);
associatedMasterId = m01;
layerId = m003;
shapes = (
{
closed = 1;
nodes = (
(-76,-713,l),
(-76,-576,l),
(-446,-576,ls),
(-489,-576,o),
(-524,-541,o),
(-524,-498,cs),
(-524,-156,l),
(-661,-156,l),
(-661,-498,ls),
(-661,-616,o),
(-564,-713,o),
(-446,-713,cs)
);
},
{
closed = 1;
nodes = (
(-856,-713,l),
(-720,-713,l),
(-720,-156,l),
(-856,-156,l)
);
}
);
width = 0;
}
);
note = uni1A6A;
unicode = 6762;
},
